<?xml version="1.0" encoding="utf-8"?>
<!-- Generator: Adobe Illustrator 16.0.0, SVG Export Plug-In . SVG Version: 6.00 Build 0)  -->
<!DOCTYPE svg PUBLIC "-//W3C//DTD SVG 1.1//EN" "http://www.w3.org/Graphics/SVG/1.1/DTD/svg11.dtd">
<svg version="1.1" id="Layer_1" xmlns="http://www.w3.org/2000/svg" xmlns:xlink="http://www.w3.org/1999/xlink" x="0px" y="0px"
	 width="100px" height="100px" viewBox="0 0 100 100" enable-background="new 0 0 100 100" xml:space="preserve">
<g>
	<path fill-rule="evenodd" clip-rule="evenodd" fill="#FFFFFF" d="M97.104,99.344c-31.403,0-62.804,0-94.207,0
		c0-32.896,0-65.792,0-98.688c31.403,0,62.804,0,94.207,0C97.104,33.551,97.104,66.447,97.104,99.344z M53.771,12.404
		c-0.506,1.433-0.452,2.848,0.194,4.227c1.152,2.455,4.021,3.909,6.853,3.615c1.648-0.171,3.031-0.819,4.167-1.938
		c0.27-0.266,0.556-0.533,0.654-0.912c0.162-0.077,0.243-0.219,0.32-0.364c1.099-2.055,1.095-4.107-0.236-6.043
		c-1.497-2.177-3.726-3.107-6.461-2.829c-2.543,0.258-4.31,1.573-5.343,3.753C53.846,12.071,53.763,12.225,53.771,12.404z
		 M45.999,11.567c-0.076-0.313-0.326-0.525-0.508-0.777c-0.454-0.626-1.014-1.159-1.673-1.586c-1.417-0.918-2.994-1.259-4.705-1.053
		c-1.716,0.207-3.129,0.938-4.242,2.173c-0.892,0.993-1.396,2.144-1.507,3.436c-0.07,0.803-0.039,1.604,0.282,2.37
		c0.283,1.003,0.892,1.819,1.722,2.482c1.808,1.442,3.919,1.892,6.227,1.506c1.48-0.248,2.731-0.927,3.65-2.061
		c1.141-1.403,1.586-2.997,1.359-4.742C46.526,12.702,46.357,12.102,45.999,11.567z M30.936,50.26
		c-0.362-1.331-0.652-2.677-0.75-4.048c-0.133-1.839-0.044-3.669,0.391-5.476c0.103-0.425,0.192-0.851,0.354-1.258
		c0.156-0.392,0.303-0.787,0.415-1.191c0.032-0.068,0.072-0.133,0.097-0.202c0.438-1.117,0.929-2.211,1.557-3.248
		c0.321-0.529,0.674-1.035,1.083-1.509c0.112-0.129,0.217-0.165,0.359-0.04c0.151,0.137,0.318,0.261,0.469,0.401
		c1.304,1.232,2.629,2.444,3.953,3.659c2.749,2.524,5.484,5.062,8.229,7.593c0.858,0.791,1.718,1.578,2.63,2.315
		c0.335,0.271,0.336,0.268,0.666-0.032c1.706-1.557,3.412-3.111,5.118-4.669c2.868-2.622,5.736-5.247,8.604-7.87
		c0.558-0.508,1.117-1.017,1.691-1.54c0.348,0.312,0.608,0.653,0.846,1.007c0.276,0.408,0.529,0.826,0.794,1.239
		c0.022,0.058,0.037,0.118,0.066,0.172c0.686,1.302,1.22,2.656,1.646,4.048c0.453,1.49,0.778,3,0.786,4.557
		c0.004,0.545,0.005,1.089,0.008,1.633c-0.072,0.6-0.122,1.205-0.219,1.803c-0.277,1.705-0.758,3.362-1.416,4.972
		c-0.596,1.459-1.29,2.873-2.134,4.223c-0.302,0.488-0.593,0.982-0.888,1.475c-0.045,0.045-0.102,0.082-0.134,0.133
		c-0.355,0.549-0.74,1.078-1.133,1.602c-1.051,1.408-2.186,2.758-3.372,4.066c-1.303,1.438-2.684,2.811-4.09,4.158
		c-0.312,0.299-0.589,0.641-1.001,0.84c-0.091,0.043-0.155,0.105-0.109,0.205c0.049,0.102,0.153,0.08,0.244,0.07
		c0.418-0.055,0.84-0.1,1.257-0.168c1.938-0.311,3.804-0.857,5.629-1.523c2.135-0.779,4.243-1.621,6.192-2.76
		c3.408-1.986,6.441-4.377,8.992-7.295c2.599-2.977,4.635-6.236,5.93-9.893c0.718-2.026,1.218-4.1,1.543-6.209
		c0.149-0.967,0.303-1.937,0.328-2.917c0.062-2.195-0.076-4.381-0.462-6.551c-0.317-1.772-0.771-3.514-1.396-5.214
		c-0.901-2.462-2.108-4.785-3.626-6.962c-1.568-2.249-3.34-4.344-5.482-6.145c-2.155-1.81-4.449-3.44-6.993-4.748
		C65.91,8.09,64.177,7.3,62.345,6.711c-0.222-0.071-0.438-0.164-0.722-0.163c1.66,0.702,3.174,1.56,4.626,2.516
		c2.597,1.711,4.866,3.741,6.757,6.133c0.599,0.758,1.13,1.558,1.688,2.34c0.041,0.077,0.077,0.157,0.125,0.23
		c1.006,1.607,1.815,3.302,2.468,5.06c0.521,1.403,0.919,2.839,1.23,4.3c0.268,1.263,0.444,2.534,0.519,3.814
		c0.084,1.447,0.023,2.895-0.23,4.327c-0.103,0.568-0.26,1.127-0.388,1.692c-0.015,0.064-0.035,0.125-0.108,0.137
		c-0.055,0.009-0.097-0.028-0.109-0.083c-0.093-0.416-0.318-0.783-0.471-1.176c-0.587-1.51-1.231-2.994-2.166-4.353
		c-0.339-0.491-0.635-1.007-0.961-1.504c-0.467-0.708-1.019-1.363-1.562-2.02c-0.476-0.599-1.054-1.109-1.615-1.633
		c-1.142-1.065-2.238-2.178-3.581-3.04c-0.797-0.509-1.553-1.076-2.397-1.515c-0.331-0.171-0.344-0.18-0.603,0.08
		c-0.266,0.263-0.568,0.483-0.86,0.716c-0.321,0.256-0.636,0.521-0.915,0.82c-0.108,0.09-0.22,0.177-0.323,0.273
		c-1.771,1.655-3.478,3.368-5.226,5.045c-0.795,0.762-1.592,1.527-2.429,2.247c-0.76,0.654-1.534,1.291-2.257,1.984
		c-0.831,0.798-1.643,1.615-2.519,2.375c-0.238,0.207-0.242,0.205-0.469,0c-0.781-0.706-1.565-1.408-2.341-2.119
		c-1.556-1.429-3.152-2.82-4.669-4.286c-1.834-1.773-3.677-3.535-5.563-5.259c-0.407-0.371-0.793-0.762-1.251-1.083
		c-0.263-0.345-0.655-0.556-1-0.818c-0.1-0.076-0.219-0.07-0.331-0.008c-0.339,0.189-0.681,0.369-1.012,0.568
		c-1.226,0.738-2.339,1.605-3.417,2.516c-2.442,2.058-4.508,4.395-6.065,7.111c-0.419,0.731-0.806,1.477-1.105,2.259
		c-0.506,0.955-0.846,1.977-1.328,2.942c-0.098-0.028-0.083-0.102-0.098-0.156c-0.406-1.422-0.491-2.88-0.548-4.339
		c-0.049-1.25,0.041-2.5,0.163-3.745c0.17-1.735,0.582-3.428,1.102-5.098c0.488-1.564,1.137-3.07,1.938-4.519
		c0.294-0.531,0.583-1.064,0.928-1.57c0.322-0.472,0.623-0.959,0.934-1.439c0.098-0.079,0.193-0.155,0.271-0.258
		c0.481-0.654,0.991-1.285,1.541-1.888c2.165-2.384,4.609-4.461,7.511-6.046c0.877-0.479,1.741-0.983,2.611-1.475l0.008-0.009
		l-0.009,0.011c-0.382,0.066-0.721,0.236-1.075,0.371c-1.199,0.457-2.433,0.832-3.541,1.486c-1.39,0.817-2.85,1.519-4.218,2.374
		c-2.163,1.354-4.054,3.003-5.798,4.783c-3.109,3.176-5.438,6.817-7.009,10.875c-1.111,2.872-1.768,5.83-1.946,8.873
		c-0.149,2.566,0.011,5.12,0.52,7.653c0.56,2.779,1.457,5.45,2.769,7.993c2.798,5.436,6.981,9.746,12.271,13.145
		c2.181,1.4,4.55,2.475,7.021,3.348c2.104,0.746,4.231,1.428,6.464,1.754c0.339,0.049,0.684,0.113,1.096,0.061
		c-0.207-0.203-0.373-0.361-0.533-0.523c-0.268-0.273-0.524-0.553-0.799-0.814c-0.214-0.203-0.458-0.377-0.678-0.572
		c-0.872-0.781-1.643-1.65-2.445-2.488c-0.798-0.836-1.563-1.701-2.319-2.57c-0.611-0.705-1.178-1.438-1.732-2.178
		c-0.502-0.668-0.973-1.357-1.455-2.035c-0.08-0.195-0.195-0.375-0.31-0.555c-0.945-1.473-1.766-3.004-2.466-4.594
		C31.543,52.098,31.236,51.18,30.936,50.26z M23.951,75.178c0.239-0.496,0.462-0.955,0.684-1.42
		c0.129-0.271,0.129-0.275-0.121-0.436c-0.926-0.605-1.958-0.939-3.081-0.961c-2.454-0.049-4.268,0.988-5.458,2.969
		c-0.688,1.146-0.873,2.383-0.466,3.66c0.675,2.131,2.167,3.518,4.494,3.957c2.33,0.439,4.301-0.279,5.871-1.953
		c0.124-0.133,0.16-0.27,0.16-0.439c-0.005-1.15-0.002-2.307-0.002-3.457c-0.001-0.301-0.005-0.305-0.322-0.305
		c-1.099-0.002-2.198,0-3.297,0c-0.53,0-1.06,0-1.59-0.002c-0.141,0-0.26,0-0.27,0.184c-0.028,0.469-0.067,0.938-0.112,1.408
		c-0.014,0.146,0.035,0.201,0.193,0.199c0.306-0.01,0.608-0.004,0.914-0.004c0.768,0,1.537,0.004,2.305-0.004
		c0.167,0,0.235,0.051,0.231,0.213c-0.01,0.297-0.019,0.596,0.001,0.891c0.014,0.209-0.074,0.35-0.238,0.477
		c-0.939,0.727-2.003,0.982-3.192,0.738c-1.594-0.328-2.832-1.738-2.797-3.201c0.053-2.123,2.179-3.545,4.14-3.303
		C22.712,74.479,23.346,74.736,23.951,75.178z M74.598,83.219c0-0.221,0-0.346,0-0.467c0-1.227,0-2.453,0-3.68
		c0-2.057,0.003-4.117,0-6.172c-0.001-0.463,0.063-0.402-0.45-0.406c-0.557-0.002-1.114-0.004-1.67,0
		c-0.487,0.004-0.429-0.064-0.429,0.385c-0.004,1.523,0,3.051-0.005,4.574c0,0.09,0.048,0.195-0.069,0.289
		c-2.052-1.764-4.102-3.525-6.194-5.326c-0.008,0.141-0.013,0.201-0.013,0.262c-0.002,3.309-0.002,6.617-0.002,9.926
		c0,0.039,0.006,0.076,0,0.111c-0.024,0.17,0.067,0.205,0.23,0.205c0.66-0.006,1.323-0.004,1.987-0.004
		c0.375,0,0.334,0.004,0.334-0.328c0-1.463-0.001-2.926,0.003-4.387c0-0.104-0.038-0.217,0.057-0.332
		C70.438,79.641,72.482,81.396,74.598,83.219z M79.461,76.713c0-1.234,0-2.422,0-3.609c0-0.15-0.002-0.299,0-0.449
		c0.003-0.102-0.032-0.162-0.153-0.162c-0.744,0.002-1.485,0.002-2.228,0.002c-0.109-0.002-0.174,0.033-0.17,0.146
		c0.002,0.1,0,0.201,0,0.299c0,2.342,0,4.684,0,7.025c0,0.855-0.003,1.711,0,2.566c0.001,0.416-0.065,0.385,0.392,0.385
		c0.597,0.002,1.193,0.002,1.789,0c0.408,0,0.369,0.033,0.37-0.33c0-0.521,0.035-1.041-0.01-1.561
		c-0.046-0.553,0.326-0.896,0.587-1.35c0.1,0.156,0.168,0.262,0.236,0.367c0.553,0.873,1.108,1.746,1.651,2.623
		c0.111,0.182,0.23,0.262,0.466,0.258c0.688-0.018,1.378-0.006,2.065-0.008c0.081,0,0.187,0.047,0.249-0.074
		c-0.062-0.102-0.124-0.209-0.19-0.314c-0.989-1.566-1.973-3.139-2.971-4.699c-0.141-0.219-0.142-0.375-0.002-0.594
		c0.927-1.441,1.838-2.893,2.752-4.344c0.071-0.117,0.169-0.219,0.189-0.352c-0.114-0.074-0.222-0.043-0.321-0.045
		c-0.545-0.002-1.088,0.014-1.63-0.006c-0.264-0.012-0.398,0.074-0.528,0.281c-0.747,1.213-1.511,2.414-2.271,3.619
		C79.67,76.492,79.633,76.617,79.461,76.713z M37.627,80.855c0.67,1.016,1.995,1.885,3.252,2.137
		c1.48,0.295,2.727-0.127,3.733-1.146c1.081-1.094,1.067-2.699,0.013-3.82c-0.345-0.367-0.754-0.66-1.2-0.91
		c-0.499-0.279-1.009-0.541-1.511-0.818c-0.297-0.16-0.589-0.33-0.833-0.563c-0.412-0.391-0.328-0.844,0.207-1.074
		c0.292-0.127,0.604-0.176,0.929-0.123c0.359,0.057,0.688,0.184,0.988,0.369c0.167,0.102,0.266,0.076,0.396-0.053
		c0.446-0.443,0.903-0.871,1.357-1.307c0.037-0.035,0.069-0.072,0.064-0.145c-0.567-0.469-1.245-0.771-1.982-0.947
		c-1.054-0.25-2.072-0.152-3.04,0.332c-1.819,0.91-2.155,3.266-0.595,4.561c0.408,0.338,0.851,0.627,1.322,0.883
		c0.479,0.262,0.967,0.508,1.447,0.771c0.241,0.131,0.474,0.275,0.642,0.49c0.264,0.34,0.25,0.672-0.055,0.979
		c-0.352,0.354-0.791,0.482-1.297,0.404c-0.37-0.057-0.705-0.201-1.009-0.41c-0.289-0.201-0.538-0.438-0.757-0.707
		c-0.063-0.076-0.115-0.172-0.25-0.082C38.841,80.07,38.234,80.463,37.627,80.855z M32.216,72.396
		c-1.57,3.553-3.098,7.014-4.646,10.52c0.694,0,1.339,0,1.982,0c0.144,0,0.171-0.094,0.21-0.184
		c0.141-0.324,0.286-0.639,0.415-0.965c0.064-0.162,0.164-0.221,0.351-0.217c0.899,0.006,1.8,0.006,2.701,0
		c0.185-0.004,0.288,0.049,0.354,0.213c0.138,0.338,0.3,0.662,0.443,0.992c0.044,0.105,0.098,0.162,0.227,0.162
		c0.847-0.002,1.692-0.002,2.59-0.002C35.303,79.41,33.775,75.941,32.216,72.396z M52.676,77.686c0,0.176,0,0.348,0,0.52
		c0,1.475,0,2.949,0.001,4.42c0,0.285,0.004,0.289,0.297,0.291c0.224,0.004,0.448,0,0.675,0c1.613,0,3.229,0,4.843,0
		c0.396,0,0.399,0,0.434-0.379c0.031-0.346,0.062-0.691,0.088-1.035c0.031-0.432,0.024-0.369-0.355-0.369
		c-1.032-0.002-2.063,0-3.097-0.002c-0.325,0-0.327-0.004-0.328-0.301c-0.001-1.027,0-2.055,0-3.082c0-1.635,0-3.27-0.001-4.902
		c0-0.402,0.03-0.352-0.389-0.352c-0.609-0.002-1.218,0-1.828-0.002c-0.364,0-0.339-0.012-0.339,0.328
		C52.677,74.441,52.676,76.064,52.676,77.686z M63.531,77.738c0-1.645,0-3.291-0.001-4.938c0-0.303-0.005-0.307-0.32-0.307
		c-0.596-0.002-1.192-0.004-1.787,0c-0.494,0.004-0.453-0.07-0.453,0.404c-0.001,3.207,0,6.412,0,9.619
		c0,0.063,0.005,0.125-0.001,0.184c-0.015,0.158,0.045,0.227,0.221,0.219c0.252-0.01,0.504-0.004,0.757-0.004
		c0.436,0,0.872-0.006,1.309,0.004c0.193,0.004,0.312-0.031,0.277-0.242c-0.01-0.061-0.001-0.123-0.001-0.186
		C63.531,80.906,63.531,79.324,63.531,77.738z M22.619,89.563c0.066,0.068,0.087,0.082,0.098,0.104
		c0.6,1.021,1.312,1.977,1.971,2.963c0.027,0.041,0.056,0.082,0.084,0.127c0.15,0.221,0.387,0.119,0.578,0.105
		c0.199-0.008,0.106-0.195,0.106-0.301c0.008-0.855,0.005-1.711,0.005-2.564c0-0.348,0-0.695-0.001-1.041
		c0-0.07,0.023-0.166-0.069-0.197c-0.125-0.041-0.265-0.037-0.391-0.006c-0.142,0.033-0.088,0.162-0.088,0.254
		c0.003,0.893,0.009,1.785,0.014,2.676c0.001,0.09,0,0.18,0,0.268c-0.644-1.004-1.363-1.934-2.003-2.912
		c-0.142-0.215-0.298-0.313-0.572-0.287c-0.276,0.029-0.282,0.012-0.282,0.273c-0.003,0.717-0.001,1.436-0.001,2.154
		c0,0.496,0.013,0.992-0.004,1.486c-0.011,0.248,0.151,0.203,0.305,0.215c0.182,0.014,0.261-0.031,0.254-0.223
		c-0.016-0.383-0.004-0.768-0.004-1.152C22.619,90.879,22.619,90.25,22.619,89.563z M68.876,91.945
		c-0.643-1.021-1.365-1.969-2.029-2.951c-0.028-0.041-0.055-0.084-0.087-0.123c-0.176-0.207-0.416-0.123-0.625-0.1
		c-0.189,0.021-0.099,0.203-0.099,0.311c-0.007,1.152-0.004,2.303-0.004,3.455c0,0.072-0.003,0.148,0.004,0.223
		c0.005,0.033,0.021,0.088,0.044,0.096c0.142,0.039,0.293,0.039,0.433,0.006c0.114-0.025,0.067-0.145,0.067-0.225
		c-0.002-0.916-0.006-1.834-0.011-2.75c0-0.092,0-0.182,0-0.264c0.096-0.012,0.105,0.031,0.123,0.061
		c0.591,1.01,1.308,1.947,1.943,2.934c0.138,0.215,0.294,0.275,0.541,0.266c0.187-0.008,0.259-0.045,0.252-0.232
		c-0.015-0.383-0.005-0.768-0.005-1.152c0-0.828,0.002-1.66-0.001-2.49c0-0.082,0.045-0.189-0.054-0.236
		c-0.133-0.066-0.29-0.053-0.425-0.014c-0.107,0.031-0.068,0.15-0.068,0.232c-0.001,0.742,0,1.486,0,2.229
		C68.876,91.463,68.876,91.703,68.876,91.945z M76.202,89.555c0.073,0.086,0.1,0.109,0.118,0.137
		c0.596,1.023,1.313,1.975,1.969,2.963c0.021,0.033,0.044,0.064,0.063,0.096c0.147,0.23,0.385,0.123,0.576,0.115
		c0.202-0.01,0.11-0.195,0.11-0.301c0.008-1.164,0.005-2.328,0.005-3.492c0-0.074-0.001-0.15-0.006-0.225
		c-0.003-0.055-0.04-0.082-0.096-0.1c-0.284-0.092-0.45,0.012-0.448,0.293c0.004,0.902,0.013,1.807,0.017,2.709
		c0,0.066,0.038,0.143-0.03,0.193c-0.039,0.01-0.05-0.008-0.066-0.033c-0.573-1.008-1.296-1.928-1.928-2.902
		c-0.141-0.215-0.301-0.275-0.549-0.258c-0.279,0.021-0.284,0.012-0.284,0.27c-0.004,1.201,0.002,2.404-0.007,3.605
		c-0.001,0.186,0.047,0.266,0.263,0.256c0.284-0.012,0.285,0,0.291-0.256c0.003-0.102,0.002-0.199,0.002-0.299
		C76.202,91.426,76.202,90.523,76.202,89.555z M85.651,90.707c-0.419,0-0.828,0.008-1.237-0.002
		c-0.183-0.006-0.22,0.068-0.219,0.219c0,0.154,0.049,0.217,0.226,0.217c0.22,0,0.502-0.094,0.644,0.049
		c0.141,0.143,0.043,0.404,0.045,0.611c0.007,0.645,0.002,0.645-0.685,0.67c-0.888,0.033-1.565-0.406-1.762-1.15
		c-0.065-0.254-0.07-0.516-0.041-0.775c0.076-0.672,0.545-1.164,1.249-1.32c0.448-0.098,0.896-0.088,1.327,0.053
		c0.208,0.064,0.247-0.021,0.301-0.17c0.06-0.17,0.011-0.244-0.17-0.289c-0.338-0.078-0.674-0.115-1.021-0.107
		c-1.554,0.031-2.527,1.104-2.305,2.537c0.138,0.881,0.802,1.492,1.746,1.635c0.424,0.063,0.842,0.045,1.261-0.021
		c0.671-0.098,0.67-0.102,0.67-0.73c0-0.133,0.003-0.271-0.003-0.406C85.668,91.393,85.708,91.061,85.651,90.707z M32.066,91.725
		c0-0.273-0.001-0.547,0.001-0.818c0-0.107-0.007-0.199-0.16-0.199c-0.396,0.002-0.793,0.002-1.19,0c-0.125,0-0.147,0.068-0.15,0.17
		c-0.008,0.221,0.013,0.244,0.256,0.262c0.221,0.016,0.521-0.098,0.64,0.063c0.108,0.146,0.038,0.408,0.038,0.617
		c0.003,0.619,0.001,0.619-0.67,0.652c-0.984,0.047-1.691-0.457-1.831-1.344c-0.154-0.977,0.353-1.916,1.729-1.961
		c0.294-0.012,0.583,0.018,0.858,0.113c0.169,0.059,0.233,0.014,0.276-0.146c0.038-0.139,0.097-0.246-0.128-0.305
		c-0.4-0.104-0.804-0.139-1.217-0.109c-1.187,0.084-1.989,0.768-2.154,1.83c-0.17,1.096,0.484,2.059,1.573,2.299
		c0.646,0.143,1.287,0.078,1.919-0.088c0.148-0.041,0.22-0.104,0.213-0.258C32.058,92.242,32.066,91.984,32.066,91.725z
		 M16.541,88.793c-0.017,0.037-0.031,0.064-0.031,0.086c-0.003,1.264,0,2.527-0.011,3.793c-0.003,0.25,0.16,0.199,0.313,0.205
		c0.17,0.006,0.31,0.014,0.297-0.223c-0.021-0.385-0.007-0.768-0.004-1.152c0.003-0.26,0.006-0.266,0.276-0.26
		c0.4,0.01,0.794-0.016,1.162-0.186c0.55-0.25,0.803-0.711,0.732-1.318c-0.057-0.475-0.409-0.828-0.973-0.955
		C17.711,88.65,17.122,88.699,16.541,88.793z M38.005,88.793c-0.017,0.037-0.032,0.064-0.032,0.086
		c-0.001,1.264,0.001,2.527-0.009,3.793c-0.003,0.25,0.161,0.199,0.313,0.205c0.168,0.006,0.31,0.014,0.297-0.223
		c-0.022-0.385-0.008-0.768-0.006-1.152c0.003-0.26,0.006-0.266,0.275-0.26c0.402,0.01,0.796-0.016,1.164-0.186
		c0.548-0.25,0.805-0.713,0.732-1.318c-0.057-0.477-0.41-0.828-0.973-0.955C39.176,88.65,38.586,88.699,38.005,88.793z
		 M52.172,90.797c0,0.619,0,1.236,0,1.855c0,0.109-0.028,0.227,0.164,0.225c0.742-0.002,1.482,0,2.224,0
		c0.116,0,0.154-0.053,0.16-0.158c0.017-0.27,0.003-0.293-0.297-0.293c-0.476-0.004-0.952-0.01-1.429,0
		c-0.192,0.006-0.255-0.055-0.249-0.232c0.013-0.348,0.012-0.693,0.002-1.039c-0.005-0.16,0.051-0.219,0.226-0.215
		c0.436,0.01,0.873-0.004,1.309,0.006c0.17,0.004,0.233-0.043,0.228-0.207c-0.004-0.154-0.013-0.256-0.229-0.246
		c-0.435,0.014-0.873-0.002-1.308,0.006c-0.176,0.004-0.232-0.055-0.225-0.213c0.011-0.273,0.014-0.547-0.002-0.816
		c-0.01-0.189,0.053-0.264,0.264-0.26c0.45,0.012,0.9-0.002,1.349,0.006c0.189,0.006,0.26-0.047,0.26-0.227
		c0.001-0.176-0.054-0.24-0.25-0.238c-0.621,0.012-1.243,0.002-1.864,0.004c-0.326,0.002-0.33,0.004-0.33,0.297
		C52.171,89.633,52.172,90.215,52.172,90.797z M46.607,90.838c0,0.596-0.001,1.189,0.001,1.781c0.001,0.258,0.005,0.258,0.288,0.258
		c0.282,0,0.286,0,0.287-0.258c0.004-0.334,0.001-0.666,0.001-1.002c0-0.377,0-0.385,0.392-0.375
		c0.362,0.008,0.712-0.033,1.044-0.178c0.537-0.236,0.821-0.723,0.754-1.273c-0.065-0.531-0.406-0.879-1.003-1.012
		c-0.511-0.117-1.023-0.074-1.537-0.021c-0.196,0.018-0.233,0.098-0.23,0.258C46.613,89.625,46.607,90.23,46.607,90.838z
		 M57.658,90.801c0,0.619,0,1.238,0,1.855c0,0.111-0.023,0.223,0.168,0.223c0.724-0.006,1.451-0.004,2.179-0.002
		c0.127,0.002,0.149-0.059,0.156-0.158c0.018-0.271,0.003-0.293-0.291-0.293c-0.476-0.004-0.951-0.004-1.427,0
		c-0.15,0-0.221-0.045-0.209-0.191c0.008-0.086,0-0.174,0-0.26c0-0.977,0.002-1.951,0-2.93c-0.001-0.291-0.005-0.291-0.297-0.289
		c-0.274,0-0.277,0-0.279,0.303C57.656,89.641,57.658,90.221,57.658,90.801z M43.534,90.828c0,0.57-0.001,1.137,0,1.707
		c0,0.354,0.001,0.342,0.36,0.346c0.198,0.002,0.244-0.066,0.243-0.24c-0.005-1.223-0.002-2.447-0.004-3.674
		c0-0.057,0.024-0.139-0.036-0.172c-0.145-0.078-0.31-0.051-0.464-0.029c-0.155,0.023-0.095,0.156-0.095,0.242
		C43.532,89.617,43.534,90.223,43.534,90.828z M63.563,90.838c0-0.619-0.015-1.238,0.005-1.857c0.008-0.238-0.127-0.229-0.294-0.227
		s-0.3-0.016-0.296,0.225c0.015,1.225,0.015,2.453,0,3.676c-0.004,0.24,0.128,0.225,0.293,0.223
		c0.159-0.002,0.307,0.027,0.298-0.219C63.546,92.053,63.563,91.443,63.563,90.838z M73.18,90.826c0-0.605,0.001-1.213-0.001-1.82
		c0-0.082,0.041-0.205-0.063-0.23c-0.139-0.033-0.294-0.033-0.433-0.004c-0.135,0.029-0.077,0.164-0.077,0.252
		c-0.004,1.203-0.004,2.404-0.003,3.607c0.002,0.248,0.008,0.248,0.297,0.246c0.273-0.002,0.278-0.002,0.279-0.268
		C73.183,92.016,73.18,91.422,73.18,90.826z"/>
	<path fill-rule="evenodd" clip-rule="evenodd" fill="#F9CF27" d="M67.441,35.389c-0.265-0.414-0.518-0.832-0.794-1.239
		c-0.237-0.354-0.498-0.695-0.846-1.007c-0.574,0.523-1.134,1.032-1.691,1.54c-2.868,2.624-5.736,5.248-8.604,7.87
		c-1.706,1.558-3.412,3.112-5.118,4.669c-0.33,0.3-0.331,0.304-0.666,0.032c-0.912-0.737-1.772-1.525-2.63-2.315
		c-2.745-2.531-5.479-5.069-8.229-7.593c-1.323-1.215-2.649-2.426-3.953-3.659c-0.15-0.14-0.317-0.264-0.469-0.401
		c-0.142-0.125-0.247-0.089-0.359,0.04c-0.409,0.475-0.762,0.98-1.083,1.509c-0.628,1.037-1.12,2.131-1.557,3.248
		c-0.025,0.069-0.065,0.134-0.097,0.202c-0.149-0.014-0.186-0.13-0.217-0.234c-0.056-0.178-0.098-0.358-0.14-0.538
		c-0.195-0.869-0.353-1.741-0.348-2.633c0.004-0.421,0.021-0.844-0.003-1.264c-0.029-0.485,0.025-0.967,0.101-1.439
		c0.117-0.764,0.28-1.524,0.51-2.273c0.459-1.497,1.123-2.896,2.021-4.208c0.673-0.98,1.452-1.877,2.278-2.742
		c0.139-0.146,0.273-0.306,0.475-0.387c0.458,0.321,0.844,0.712,1.251,1.083c1.885,1.724,3.729,3.486,5.563,5.259
		c1.517,1.466,3.113,2.857,4.669,4.286c0.776,0.711,1.56,1.414,2.341,2.119c0.227,0.205,0.231,0.207,0.469,0
		c0.876-0.76,1.688-1.577,2.519-2.375c0.723-0.693,1.497-1.33,2.257-1.984c0.837-0.72,1.634-1.485,2.429-2.247
		c1.748-1.677,3.455-3.39,5.226-5.045c0.104-0.096,0.215-0.183,0.323-0.273c0.007,0.09,0.062,0.158,0.11,0.232
		c0.2,0.295,0.479,0.524,0.71,0.794c0.731,0.864,1.377,1.78,1.909,2.762c0.473,0.869,0.858,1.771,1.149,2.714
		c0.348,1.118,0.549,2.255,0.651,3.407c0.054,0.59,0.009,1.188,0.012,1.782C67.61,35.217,67.588,35.331,67.441,35.389z"/>
	<path fill-rule="evenodd" clip-rule="evenodd" fill="#EEAC2E" d="M74.693,17.538c-0.558-0.783-1.089-1.582-1.688-2.34
		c-1.891-2.393-4.16-4.422-6.757-6.133c-1.452-0.956-2.966-1.813-4.626-2.516c0.283-0.001,0.5,0.092,0.722,0.163
		c1.832,0.589,3.565,1.379,5.263,2.25c2.544,1.307,4.838,2.938,6.993,4.748c2.143,1.801,3.914,3.896,5.482,6.145
		c1.518,2.177,2.725,4.5,3.626,6.962c0.625,1.7,1.079,3.441,1.396,5.214c0.386,2.17,0.523,4.355,0.462,6.551
		c-0.025,0.98-0.179,1.949-0.328,2.917c-0.325,2.109-0.825,4.184-1.543,6.209c-1.295,3.657-3.331,6.917-5.93,9.893
		c-2.551,2.918-5.584,5.309-8.992,7.295c-1.949,1.139-4.058,1.98-6.192,2.76c-1.825,0.666-3.691,1.213-5.629,1.523
		c-0.417,0.068-0.839,0.113-1.257,0.168c-0.091,0.01-0.195,0.031-0.244-0.07c-0.046-0.1,0.019-0.162,0.109-0.205
		c0.412-0.199,0.689-0.541,1.001-0.84c1.406-1.348,2.787-2.721,4.09-4.158c1.187-1.309,2.321-2.658,3.372-4.066
		c0.393-0.523,0.777-1.053,1.133-1.602c0.032-0.051,0.089-0.088,0.134-0.133c0.075,0.111,0.162,0.1,0.268,0.037
		c0.442-0.246,0.896-0.475,1.331-0.732c1.741-1.033,3.366-2.207,4.876-3.518c0.559-0.488,1.09-1.008,1.602-1.543
		c0.693-0.73,1.361-1.477,1.988-2.252c0.675-0.836,1.273-1.722,1.849-2.624c0.38-0.596,0.656-1.239,1.024-1.84
		c0.3-0.495,0.515-1.025,0.752-1.546c0.457-1.013,0.805-2.063,1.138-3.117c0.267-0.838,0.444-1.698,0.592-2.56
		c0.119-0.688,0.215-1.385,0.271-2.085c0.059-0.724,0.093-1.451,0.138-2.174c0.025-0.407-0.048-0.814-0.058-1.217
		c-0.026-0.878-0.119-1.743-0.245-2.61c-0.12-0.83-0.283-1.65-0.485-2.465c-0.474-1.921-1.2-3.756-2.09-5.54
		c-0.255-0.517-0.582-0.998-0.872-1.498c-0.654-1.132-1.454-2.174-2.251-3.218C75.018,17.637,74.897,17.514,74.693,17.538z"/>
	<path fill-rule="evenodd" clip-rule="evenodd" fill="#EEAC2E" d="M34.708,58.139c0.482,0.678,0.953,1.367,1.455,2.035
		c0.555,0.74,1.122,1.473,1.732,2.178c0.755,0.869,1.521,1.734,2.319,2.57c0.802,0.838,1.573,1.707,2.445,2.488
		c0.22,0.195,0.464,0.369,0.678,0.572c0.275,0.262,0.531,0.541,0.799,0.814c0.16,0.162,0.326,0.32,0.533,0.523
		c-0.412,0.053-0.757-0.012-1.096-0.061c-2.233-0.326-4.359-1.008-6.464-1.754c-2.471-0.873-4.84-1.947-7.021-3.348
		c-5.291-3.398-9.474-7.709-12.271-13.145c-1.313-2.543-2.209-5.214-2.769-7.993c-0.509-2.533-0.669-5.087-0.52-7.653
		c0.178-3.043,0.835-6.001,1.946-8.873c1.571-4.057,3.899-7.698,7.009-10.875c1.744-1.779,3.635-3.429,5.798-4.783
		c1.368-0.855,2.829-1.557,4.218-2.374c1.108-0.654,2.342-1.029,3.541-1.486c0.354-0.135,0.693-0.305,1.075-0.371l0.001-0.001
		c-0.87,0.492-1.734,0.996-2.611,1.475c-2.902,1.584-5.347,3.662-7.511,6.046c-0.549,0.604-1.06,1.234-1.541,1.888
		c-0.077,0.104-0.172,0.18-0.271,0.258c-0.185-0.023-0.314,0.074-0.396,0.202c-0.198,0.313-0.5,0.541-0.745,0.816
		c-0.616,0.692-1.188,1.414-1.738,2.151c-0.522,0.698-0.97,1.441-1.413,2.186c-0.729,1.223-1.346,2.49-1.839,3.813
		c-0.519,1.385-0.946,2.793-1.206,4.246c-0.16,0.886-0.328,1.777-0.348,2.668c-0.031,1.346-0.083,2.694,0.047,4.042
		c0.079,0.822,0.171,1.639,0.333,2.45c0.216,1.091,0.494,2.167,0.86,3.223c0.31,0.893,0.671,1.768,1.083,2.626
		c0.576,1.195,1.22,2.358,1.971,3.466c0.673,0.989,1.404,1.937,2.218,2.834c0.563,0.622,1.144,1.225,1.736,1.821
		c0.54,0.545,1.156,1.012,1.749,1.502c0.822,0.676,1.685,1.303,2.582,1.889c0.923,0.602,1.891,1.133,2.866,1.648
		C34.179,57.984,34.408,58.152,34.708,58.139z"/>
	<path fill-rule="evenodd" clip-rule="evenodd" fill="#F0B624" d="M74.693,17.538c0.204-0.023,0.324,0.1,0.424,0.231
		c0.797,1.044,1.597,2.086,2.251,3.218c0.29,0.5,0.617,0.981,0.872,1.498c0.89,1.784,1.616,3.619,2.09,5.54
		c0.202,0.815,0.365,1.635,0.485,2.465c0.126,0.867,0.219,1.732,0.245,2.61c0.01,0.403,0.083,0.81,0.058,1.217
		c-0.045,0.724-0.079,1.45-0.138,2.174c-0.056,0.7-0.151,1.397-0.271,2.085c-0.147,0.862-0.325,1.722-0.592,2.56
		c-0.333,1.054-0.681,2.104-1.138,3.117c-0.237,0.521-0.452,1.052-0.752,1.546c-0.368,0.601-0.645,1.245-1.024,1.84
		c-0.575,0.901-1.174,1.788-1.849,2.624c-0.627,0.775-1.295,1.521-1.988,2.252c-0.512,0.535-1.043,1.055-1.602,1.543
		c-1.51,1.311-3.135,2.484-4.876,3.518c-0.435,0.258-0.889,0.486-1.331,0.732c-0.105,0.063-0.192,0.074-0.268-0.037
		c0.295-0.492,0.586-0.986,0.888-1.475c0.844-1.35,1.538-2.764,2.134-4.223c0.658-1.61,1.139-3.267,1.416-4.972
		c0.097-0.598,0.146-1.203,0.219-1.803c0.162-0.028,0.225-0.151,0.31-0.264c0.652-0.846,1.14-1.781,1.619-2.712
		c0.577-1.123,1.025-2.299,1.344-3.513c0.179-0.692,0.33-1.39,0.449-2.095c0.099-0.573,0.188-1.148,0.205-1.719
		c0.041-1.479,0.07-2.96-0.215-4.427c-0.15-0.775-0.274-1.554-0.522-2.307c-0.087-0.259-0.167-0.523-0.097-0.801
		c0.543,0.656,1.095,1.311,1.562,2.02c0.326,0.497,0.622,1.014,0.961,1.504c0.935,1.359,1.579,2.843,2.166,4.353
		c0.152,0.394,0.378,0.76,0.471,1.176c0.013,0.055,0.055,0.092,0.109,0.083c0.073-0.012,0.094-0.073,0.108-0.137
		c0.128-0.565,0.285-1.125,0.388-1.692c0.254-1.432,0.314-2.88,0.23-4.327c-0.074-1.28-0.251-2.551-0.519-3.814
		c-0.312-1.461-0.709-2.897-1.23-4.3c-0.652-1.758-1.462-3.453-2.468-5.06C74.771,17.694,74.734,17.615,74.693,17.538z"/>
	<path fill-rule="evenodd" clip-rule="evenodd" fill="#F0B624" d="M34.708,58.139c-0.3,0.014-0.53-0.154-0.765-0.281
		c-0.975-0.516-1.943-1.047-2.866-1.648c-0.897-0.586-1.76-1.213-2.582-1.889c-0.593-0.49-1.209-0.957-1.749-1.502
		c-0.592-0.596-1.172-1.199-1.736-1.821c-0.813-0.897-1.544-1.845-2.218-2.834c-0.751-1.107-1.395-2.271-1.971-3.466
		c-0.412-0.858-0.774-1.733-1.083-2.626c-0.366-1.056-0.644-2.132-0.86-3.223c-0.163-0.811-0.255-1.628-0.333-2.45
		c-0.13-1.349-0.079-2.696-0.047-4.042c0.02-0.891,0.188-1.782,0.348-2.668c0.259-1.453,0.687-2.861,1.206-4.246
		c0.493-1.323,1.11-2.59,1.839-3.813c0.442-0.745,0.89-1.488,1.413-2.186c0.551-0.737,1.123-1.459,1.738-2.151
		c0.244-0.275,0.546-0.503,0.745-0.816c0.083-0.127,0.211-0.225,0.396-0.202c-0.311,0.48-0.611,0.967-0.934,1.439
		c-0.345,0.505-0.634,1.039-0.928,1.57c-0.801,1.448-1.451,2.954-1.938,4.519c-0.521,1.67-0.932,3.363-1.102,5.098
		c-0.122,1.244-0.211,2.495-0.163,3.745c0.058,1.459,0.142,2.917,0.548,4.339c0.015,0.054,0,0.127,0.098,0.156
		c0.482-0.965,0.822-1.987,1.328-2.942c0.248,0.022,0.24,0.191,0.236,0.356c-0.021,0.815,0.04,1.624,0.152,2.434
		c0.092,0.672,0.219,1.336,0.377,1.995c0.318,1.327,0.747,2.62,1.344,3.864c0.498,1.04,1.043,2.054,1.699,3.013
		c0.555,0.811,1.141,1.599,1.797,2.343c0.58,0.658,1.172,1.299,1.814,1.904c0.124,0.115,0.255,0.172,0.424,0.154
		c0.3,0.92,0.607,1.838,0.997,2.73c0.7,1.59,1.521,3.121,2.466,4.594C34.514,57.764,34.629,57.943,34.708,58.139z"/>
	<path fill-rule="evenodd" clip-rule="evenodd" fill="#F6C426" d="M30.936,50.26c-0.169,0.018-0.301-0.039-0.424-0.154
		c-0.642-0.605-1.234-1.247-1.814-1.904c-0.656-0.745-1.242-1.532-1.797-2.343c-0.656-0.958-1.201-1.973-1.699-3.013
		c-0.597-1.244-1.026-2.537-1.344-3.864c-0.159-0.659-0.285-1.323-0.377-1.995c-0.112-0.81-0.172-1.619-0.152-2.434
		c0.003-0.165,0.011-0.334-0.236-0.356c0.3-0.782,0.687-1.528,1.105-2.259c1.557-2.716,3.623-5.053,6.065-7.111
		c1.079-0.91,2.192-1.778,3.417-2.516c0.331-0.199,0.673-0.378,1.012-0.568c0.112-0.062,0.231-0.068,0.331,0.008
		c0.345,0.262,0.737,0.473,1,0.818c-0.202,0.081-0.336,0.241-0.475,0.387c-0.826,0.865-1.605,1.762-2.278,2.742
		c-0.899,1.312-1.562,2.711-2.021,4.208c-0.23,0.75-0.393,1.509-0.51,2.273c-0.076,0.472-0.13,0.954-0.101,1.439
		c0.023,0.42,0.007,0.843,0.003,1.264c-0.005,0.892,0.153,1.764,0.348,2.633c0.042,0.18,0.084,0.36,0.14,0.538
		c0.031,0.104,0.068,0.22,0.217,0.234c-0.112,0.404-0.259,0.799-0.415,1.191c-0.162,0.407-0.251,0.833-0.354,1.258
		c-0.436,1.807-0.524,3.637-0.391,5.476C30.284,47.583,30.574,48.929,30.936,50.26z"/>
	<path fill-rule="evenodd" clip-rule="evenodd" fill="#F6C426" d="M73.04,27.963c-0.07,0.277,0.01,0.542,0.097,0.801
		c0.248,0.753,0.372,1.532,0.522,2.307c0.285,1.467,0.256,2.948,0.215,4.427c-0.017,0.57-0.106,1.146-0.205,1.719
		c-0.119,0.705-0.271,1.402-0.449,2.095c-0.318,1.214-0.767,2.391-1.344,3.513c-0.479,0.931-0.967,1.866-1.619,2.712
		c-0.085,0.113-0.147,0.236-0.31,0.264c-0.003-0.544-0.004-1.088-0.008-1.633c-0.008-1.557-0.333-3.067-0.786-4.557
		c-0.426-1.393-0.96-2.747-1.646-4.048c-0.029-0.054-0.044-0.114-0.066-0.172c0.146-0.058,0.169-0.172,0.169-0.306
		c-0.003-0.594,0.042-1.192-0.012-1.782c-0.103-1.152-0.304-2.289-0.651-3.407c-0.291-0.943-0.677-1.845-1.149-2.714
		c-0.532-0.981-1.178-1.897-1.909-2.762c-0.23-0.271-0.51-0.5-0.71-0.794c-0.049-0.075-0.104-0.142-0.11-0.232
		c0.279-0.298,0.594-0.564,0.915-0.82c0.292-0.233,0.595-0.453,0.86-0.716c0.259-0.26,0.271-0.251,0.603-0.08
		c0.845,0.439,1.601,1.006,2.397,1.515c1.343,0.862,2.439,1.974,3.581,3.04C71.986,26.854,72.564,27.364,73.04,27.963z"/>
	<path fill-rule="evenodd" clip-rule="evenodd" fill="#F6C426" d="M45.999,11.567c0.359,0.534,0.527,1.134,0.605,1.747
		c0.227,1.746-0.219,3.339-1.359,4.742c-0.919,1.134-2.17,1.813-3.65,2.061c-2.308,0.386-4.418-0.064-6.227-1.506
		c-0.83-0.663-1.438-1.479-1.722-2.482c0.185-0.012,0.309-0.136,0.446-0.225c0.945-0.609,1.926-1.16,2.945-1.654
		c0.96-0.465,1.956-0.854,2.969-1.211c1.804-0.636,3.656-1.08,5.568-1.306C45.728,11.715,45.89,11.693,45.999,11.567z"/>
	<path fill-rule="evenodd" clip-rule="evenodd" fill="#F0B624" d="M53.771,12.404c-0.009-0.179,0.074-0.333,0.148-0.49
		c1.033-2.18,2.8-3.495,5.343-3.753c2.735-0.279,4.964,0.651,6.461,2.829c1.331,1.936,1.335,3.988,0.236,6.043
		c-0.077,0.145-0.158,0.287-0.32,0.364c-0.852-0.534-1.641-1.152-2.521-1.65c-1.098-0.619-2.213-1.206-3.396-1.666
		c-1.481-0.579-2.997-1.073-4.573-1.39C54.691,12.597,54.22,12.552,53.771,12.404z"/>
	<path fill-rule="evenodd" clip-rule="evenodd" fill="#232422" d="M23.951,75.178c-0.605-0.441-1.239-0.699-1.953-0.789
		c-1.961-0.242-4.087,1.18-4.14,3.303c-0.035,1.463,1.203,2.873,2.797,3.201c1.188,0.244,2.253-0.012,3.192-0.738
		c0.164-0.127,0.252-0.268,0.238-0.477c-0.02-0.295-0.011-0.594-0.001-0.891c0.004-0.162-0.064-0.213-0.231-0.213
		c-0.768,0.008-1.537,0.004-2.305,0.004c-0.306,0-0.608-0.006-0.914,0.004c-0.159,0.002-0.208-0.053-0.193-0.199
		c0.045-0.471,0.084-0.939,0.112-1.408c0.01-0.184,0.129-0.184,0.27-0.184c0.53,0.002,1.06,0.002,1.59,0.002
		c1.099,0,2.198-0.002,3.297,0c0.317,0,0.321,0.004,0.322,0.305c0,1.15-0.003,2.307,0.002,3.457c0,0.17-0.036,0.307-0.16,0.439
		c-1.57,1.674-3.541,2.393-5.871,1.953c-2.327-0.439-3.819-1.826-4.494-3.957c-0.407-1.277-0.223-2.514,0.466-3.66
		c1.191-1.98,3.005-3.018,5.458-2.969c1.123,0.021,2.155,0.355,3.081,0.961c0.25,0.16,0.25,0.164,0.121,0.436
		C24.414,74.223,24.19,74.682,23.951,75.178z"/>
	<path fill-rule="evenodd" clip-rule="evenodd" fill="#232422" d="M74.598,83.219c-2.115-1.822-4.159-3.578-6.221-5.35
		c-0.095,0.115-0.057,0.229-0.057,0.332c-0.004,1.461-0.003,2.924-0.003,4.387c0,0.332,0.041,0.328-0.334,0.328
		c-0.664,0-1.327-0.002-1.987,0.004c-0.163,0-0.255-0.035-0.23-0.205c0.006-0.035,0-0.072,0-0.111c0-3.309,0-6.617,0.002-9.926
		c0-0.061,0.005-0.121,0.013-0.262c2.093,1.801,4.143,3.563,6.194,5.326c0.117-0.094,0.069-0.199,0.069-0.289
		c0.005-1.523,0.001-3.051,0.005-4.574c0-0.449-0.059-0.381,0.429-0.385c0.556-0.004,1.113-0.002,1.67,0
		c0.514,0.004,0.449-0.057,0.45,0.406c0.003,2.055,0,4.115,0,6.172c0,1.227,0,2.453,0,3.68
		C74.598,82.873,74.598,82.998,74.598,83.219z"/>
	<path fill-rule="evenodd" clip-rule="evenodd" fill="#F6C426" d="M53.771,12.404c0.448,0.148,0.92,0.193,1.379,0.287
		c1.576,0.317,3.092,0.812,4.573,1.39c1.183,0.46,2.298,1.047,3.396,1.666c0.88,0.498,1.669,1.116,2.521,1.65
		c-0.099,0.379-0.385,0.646-0.654,0.912c-1.136,1.118-2.519,1.766-4.167,1.938c-2.832,0.294-5.7-1.16-6.853-3.615
		C53.319,15.251,53.266,13.836,53.771,12.404z"/>
	<path fill-rule="evenodd" clip-rule="evenodd" fill="#F0B624" d="M45.999,11.567c-0.109,0.125-0.271,0.148-0.424,0.167
		c-1.912,0.226-3.764,0.669-5.568,1.306c-1.014,0.357-2.009,0.746-2.969,1.211c-1.019,0.494-2,1.045-2.945,1.654
		c-0.137,0.089-0.261,0.213-0.446,0.225c-0.321-0.766-0.352-1.567-0.282-2.37c0.11-1.292,0.615-2.443,1.507-3.436
		c1.113-1.235,2.526-1.966,4.242-2.173c1.71-0.206,3.287,0.135,4.705,1.053c0.659,0.427,1.22,0.96,1.673,1.586
		C45.672,11.042,45.923,11.254,45.999,11.567z"/>
	<path fill-rule="evenodd" clip-rule="evenodd" fill="#232422" d="M79.461,76.713c0.172-0.096,0.209-0.221,0.273-0.324
		c0.76-1.205,1.523-2.406,2.271-3.619c0.13-0.207,0.265-0.293,0.528-0.281c0.542,0.02,1.085,0.004,1.63,0.006
		c0.1,0.002,0.207-0.029,0.321,0.045c-0.021,0.133-0.118,0.234-0.189,0.352c-0.914,1.451-1.825,2.902-2.752,4.344
		c-0.14,0.219-0.139,0.375,0.002,0.594c0.998,1.561,1.981,3.133,2.971,4.699c0.066,0.105,0.129,0.213,0.19,0.314
		c-0.063,0.121-0.168,0.074-0.249,0.074c-0.688,0.002-1.378-0.01-2.065,0.008c-0.235,0.004-0.354-0.076-0.466-0.258
		c-0.543-0.877-1.099-1.75-1.651-2.623c-0.068-0.105-0.137-0.211-0.236-0.367c-0.261,0.453-0.633,0.797-0.587,1.35
		c0.045,0.52,0.01,1.039,0.01,1.561c-0.001,0.363,0.038,0.33-0.37,0.33c-0.596,0.002-1.192,0.002-1.789,0
		c-0.457,0-0.391,0.031-0.392-0.385c-0.003-0.855,0-1.711,0-2.566c0-2.342,0-4.684,0-7.025c0-0.098,0.002-0.199,0-0.299
		c-0.004-0.113,0.061-0.148,0.17-0.146c0.742,0,1.483,0,2.228-0.002c0.121,0,0.156,0.061,0.153,0.162c-0.002,0.15,0,0.299,0,0.449
		C79.461,74.291,79.461,75.479,79.461,76.713z"/>
	<path fill-rule="evenodd" clip-rule="evenodd" fill="#232422" d="M37.627,80.855c0.607-0.393,1.214-0.785,1.821-1.18
		c0.136-0.09,0.188,0.006,0.25,0.082c0.219,0.27,0.468,0.506,0.757,0.707c0.304,0.209,0.64,0.354,1.009,0.41
		c0.506,0.078,0.945-0.051,1.297-0.404c0.304-0.307,0.318-0.639,0.055-0.979c-0.168-0.215-0.401-0.359-0.642-0.49
		c-0.479-0.264-0.967-0.51-1.447-0.771c-0.471-0.256-0.915-0.545-1.322-0.883c-1.56-1.295-1.225-3.65,0.595-4.561
		c0.968-0.484,1.986-0.582,3.04-0.332c0.738,0.176,1.415,0.479,1.982,0.947c0.004,0.072-0.028,0.109-0.064,0.145
		c-0.454,0.436-0.911,0.863-1.357,1.307c-0.13,0.129-0.23,0.154-0.396,0.053c-0.3-0.186-0.629-0.313-0.988-0.369
		c-0.325-0.053-0.637-0.004-0.929,0.123c-0.535,0.23-0.619,0.684-0.207,1.074c0.244,0.232,0.536,0.402,0.833,0.563
		c0.501,0.277,1.012,0.539,1.511,0.818c0.446,0.25,0.855,0.543,1.2,0.91c1.054,1.121,1.068,2.727-0.013,3.82
		c-1.007,1.02-2.253,1.441-3.733,1.146C39.622,82.74,38.297,81.871,37.627,80.855z"/>
	<path fill-rule="evenodd" clip-rule="evenodd" fill="#232422" d="M32.216,72.396c1.559,3.545,3.086,7.014,4.628,10.52
		c-0.898,0-1.744,0-2.59,0.002c-0.129,0-0.183-0.057-0.227-0.162c-0.143-0.33-0.306-0.654-0.443-0.992
		c-0.067-0.164-0.169-0.217-0.354-0.213c-0.901,0.006-1.802,0.006-2.701,0c-0.187-0.004-0.286,0.055-0.351,0.217
		c-0.129,0.326-0.274,0.641-0.415,0.965c-0.039,0.09-0.067,0.184-0.21,0.184c-0.643,0-1.288,0-1.982,0
		C29.118,79.41,30.646,75.949,32.216,72.396z M31.888,77.906c-0.271,0.656-0.563,1.23-0.79,1.848c0.552,0,1.048,0,1.598,0
		C32.426,79.137,32.17,78.551,31.888,77.906z"/>
	<path fill-rule="evenodd" clip-rule="evenodd" fill="#232422" d="M52.676,77.686c0-1.621,0.001-3.244,0-4.865
		c0-0.34-0.025-0.328,0.339-0.328c0.61,0.002,1.219,0,1.828,0.002c0.419,0,0.389-0.051,0.389,0.352
		c0.001,1.633,0.001,3.268,0.001,4.902c0,1.027-0.001,2.055,0,3.082c0.001,0.297,0.003,0.301,0.328,0.301
		c1.033,0.002,2.064,0,3.097,0.002c0.38,0,0.387-0.063,0.355,0.369c-0.026,0.344-0.057,0.689-0.088,1.035
		c-0.034,0.379-0.037,0.379-0.434,0.379c-1.613,0-3.229,0-4.843,0c-0.227,0-0.451,0.004-0.675,0
		c-0.293-0.002-0.297-0.006-0.297-0.291c-0.001-1.471-0.001-2.945-0.001-4.42C52.676,78.033,52.676,77.861,52.676,77.686z"/>
	<path fill-rule="evenodd" clip-rule="evenodd" fill="#232422" d="M63.531,77.738c0,1.586,0,3.168,0,4.754
		c0,0.063-0.009,0.125,0.001,0.186c0.034,0.211-0.084,0.246-0.277,0.242c-0.437-0.01-0.873-0.004-1.309-0.004
		c-0.253,0-0.505-0.006-0.757,0.004c-0.176,0.008-0.235-0.061-0.221-0.219c0.006-0.059,0.001-0.121,0.001-0.184
		c0-3.207-0.001-6.412,0-9.619c0-0.475-0.041-0.4,0.453-0.404c0.595-0.004,1.191-0.002,1.787,0c0.315,0,0.32,0.004,0.32,0.307
		C63.531,74.447,63.531,76.094,63.531,77.738z"/>
	<path fill-rule="evenodd" clip-rule="evenodd" fill="#232422" d="M22.619,89.563c0,0.688,0,1.316,0,1.941
		c0,0.385-0.011,0.77,0.004,1.152c0.007,0.191-0.072,0.236-0.254,0.223c-0.154-0.012-0.316,0.033-0.305-0.215
		c0.017-0.494,0.004-0.99,0.004-1.486c0-0.719-0.001-1.438,0.001-2.154c0-0.262,0.006-0.244,0.282-0.273
		c0.273-0.025,0.43,0.072,0.572,0.287c0.641,0.979,1.36,1.908,2.003,2.912c0-0.088,0.001-0.178,0-0.268
		c-0.005-0.891-0.011-1.783-0.014-2.676c0-0.092-0.053-0.221,0.088-0.254c0.126-0.031,0.266-0.035,0.391,0.006
		c0.092,0.031,0.069,0.127,0.069,0.197c0.001,0.346,0.001,0.693,0.001,1.041c0,0.854,0.003,1.709-0.005,2.564
		c0,0.105,0.092,0.293-0.106,0.301c-0.191,0.014-0.428,0.115-0.578-0.105c-0.028-0.045-0.057-0.086-0.084-0.127
		c-0.659-0.986-1.371-1.941-1.971-2.963C22.706,89.645,22.685,89.631,22.619,89.563z"/>
	<path fill-rule="evenodd" clip-rule="evenodd" fill="#232422" d="M68.876,91.945c0-0.242,0-0.482,0-0.727
		c0-0.742-0.001-1.486,0-2.229c0-0.082-0.039-0.201,0.068-0.232c0.135-0.039,0.292-0.053,0.425,0.014
		c0.099,0.047,0.054,0.154,0.054,0.236c0.003,0.83,0.001,1.662,0.001,2.49c0,0.385-0.01,0.77,0.005,1.152
		c0.007,0.188-0.065,0.225-0.252,0.232c-0.247,0.01-0.403-0.051-0.541-0.266c-0.636-0.986-1.353-1.924-1.943-2.934
		c-0.018-0.029-0.027-0.072-0.123-0.061c0,0.082,0,0.172,0,0.264c0.005,0.916,0.009,1.834,0.011,2.75
		c0,0.08,0.047,0.199-0.067,0.225c-0.14,0.033-0.291,0.033-0.433-0.006c-0.023-0.008-0.039-0.063-0.044-0.096
		c-0.007-0.074-0.004-0.15-0.004-0.223c0-1.152-0.003-2.303,0.004-3.455c0-0.107-0.091-0.289,0.099-0.311
		c0.209-0.023,0.449-0.107,0.625,0.1c0.032,0.039,0.059,0.082,0.087,0.123C67.511,89.977,68.233,90.924,68.876,91.945z"/>
	<path fill-rule="evenodd" clip-rule="evenodd" fill="#232422" d="M76.202,89.555c0,0.969,0,1.871,0,2.771
		c0,0.1,0.001,0.197-0.002,0.299c-0.006,0.256-0.007,0.244-0.291,0.256c-0.216,0.01-0.264-0.07-0.263-0.256
		c0.009-1.201,0.003-2.404,0.007-3.605c0-0.258,0.005-0.248,0.284-0.27c0.248-0.018,0.408,0.043,0.549,0.258
		c0.632,0.975,1.354,1.895,1.928,2.902c0.017,0.025,0.027,0.043,0.066,0.033c0.068-0.051,0.03-0.127,0.03-0.193
		c-0.004-0.902-0.013-1.807-0.017-2.709c-0.002-0.281,0.164-0.385,0.448-0.293c0.056,0.018,0.093,0.045,0.096,0.1
		c0.005,0.074,0.006,0.15,0.006,0.225c0,1.164,0.003,2.328-0.005,3.492c0,0.105,0.092,0.291-0.11,0.301
		c-0.191,0.008-0.429,0.115-0.576-0.115c-0.02-0.031-0.042-0.063-0.063-0.096c-0.655-0.988-1.373-1.939-1.969-2.963
		C76.302,89.664,76.275,89.641,76.202,89.555z"/>
	<path fill-rule="evenodd" clip-rule="evenodd" fill="#232422" d="M85.651,90.707c0.057,0.354,0.017,0.686,0.026,1.018
		c0.006,0.135,0.003,0.273,0.003,0.406c0,0.629,0.001,0.633-0.67,0.73c-0.419,0.066-0.837,0.084-1.261,0.021
		c-0.944-0.143-1.608-0.754-1.746-1.635c-0.223-1.434,0.751-2.506,2.305-2.537c0.347-0.008,0.683,0.029,1.021,0.107
		c0.181,0.045,0.229,0.119,0.17,0.289c-0.054,0.148-0.093,0.234-0.301,0.17c-0.432-0.141-0.879-0.15-1.327-0.053
		c-0.704,0.156-1.173,0.648-1.249,1.32c-0.029,0.26-0.024,0.521,0.041,0.775c0.196,0.744,0.874,1.184,1.762,1.15
		c0.687-0.025,0.691-0.025,0.685-0.67c-0.002-0.207,0.096-0.469-0.045-0.611c-0.142-0.143-0.424-0.049-0.644-0.049
		c-0.177,0-0.226-0.063-0.226-0.217c-0.001-0.15,0.036-0.225,0.219-0.219C84.823,90.715,85.232,90.707,85.651,90.707z"/>
	<path fill-rule="evenodd" clip-rule="evenodd" fill="#232422" d="M32.066,91.725c0,0.26-0.008,0.518,0.004,0.777
		c0.007,0.154-0.064,0.217-0.213,0.258c-0.632,0.166-1.273,0.23-1.919,0.088c-1.089-0.24-1.743-1.203-1.573-2.299
		c0.166-1.063,0.967-1.746,2.154-1.83c0.413-0.029,0.816,0.006,1.217,0.109c0.225,0.059,0.166,0.166,0.128,0.305
		c-0.043,0.16-0.107,0.205-0.276,0.146c-0.275-0.096-0.563-0.125-0.858-0.113c-1.376,0.045-1.884,0.984-1.729,1.961
		c0.14,0.887,0.846,1.391,1.831,1.344c0.671-0.033,0.673-0.033,0.67-0.652c0-0.209,0.07-0.471-0.038-0.617
		c-0.119-0.16-0.419-0.047-0.64-0.063c-0.244-0.018-0.264-0.041-0.256-0.262c0.003-0.102,0.025-0.17,0.15-0.17
		c0.396,0.002,0.793,0.002,1.19,0c0.153,0,0.16,0.092,0.16,0.199C32.065,91.178,32.066,91.451,32.066,91.725z"/>
	<path fill-rule="evenodd" clip-rule="evenodd" fill="#232422" d="M16.541,88.793c0.581-0.094,1.17-0.143,1.761-0.01
		c0.563,0.127,0.916,0.48,0.973,0.955c0.071,0.607-0.182,1.068-0.732,1.318c-0.368,0.17-0.762,0.195-1.162,0.186
		c-0.27-0.006-0.273,0-0.276,0.26c-0.003,0.385-0.017,0.768,0.004,1.152c0.013,0.236-0.127,0.229-0.297,0.223
		c-0.152-0.006-0.315,0.045-0.313-0.205c0.011-1.266,0.008-2.529,0.011-3.793C16.51,88.857,16.524,88.83,16.541,88.793z
		 M17.104,89.986L17.104,89.986c0,0.211,0,0.42,0,0.629c0,0.098,0.028,0.17,0.148,0.178c0.317,0.01,0.634,0.035,0.934-0.092
		c0.336-0.143,0.535-0.461,0.51-0.807c-0.025-0.348-0.23-0.578-0.604-0.693c-0.26-0.078-0.521-0.047-0.784-0.047
		c-0.151,0-0.21,0.064-0.208,0.205C17.107,89.568,17.104,89.775,17.104,89.986z"/>
	<path fill-rule="evenodd" clip-rule="evenodd" fill="#232422" d="M38.005,88.793c0.581-0.094,1.171-0.143,1.761-0.01
		c0.563,0.127,0.916,0.479,0.973,0.955c0.073,0.605-0.184,1.068-0.732,1.318c-0.368,0.17-0.761,0.195-1.164,0.186
		c-0.269-0.006-0.272,0-0.275,0.26c-0.002,0.385-0.017,0.768,0.006,1.152c0.012,0.236-0.129,0.229-0.297,0.223
		c-0.153-0.006-0.317,0.045-0.313-0.205c0.011-1.266,0.008-2.529,0.009-3.793C37.973,88.857,37.989,88.83,38.005,88.793z
		 M38.569,89.979c0,0.209,0,0.42,0,0.629c0,0.092,0.017,0.176,0.141,0.182c0.33,0.018,0.66,0.039,0.97-0.1
		c0.313-0.145,0.504-0.453,0.485-0.785c-0.022-0.348-0.224-0.582-0.599-0.699c-0.246-0.078-0.495-0.049-0.743-0.053
		c-0.181-0.002-0.268,0.055-0.256,0.232C38.578,89.584,38.569,89.781,38.569,89.979z"/>
	<path fill-rule="evenodd" clip-rule="evenodd" fill="#232422" d="M52.172,90.797c0-0.582-0.001-1.164,0.001-1.746
		c0-0.293,0.004-0.295,0.33-0.297c0.621-0.002,1.243,0.008,1.864-0.004c0.196-0.002,0.251,0.063,0.25,0.238
		c0,0.18-0.07,0.232-0.26,0.227c-0.448-0.008-0.898,0.006-1.349-0.006c-0.211-0.004-0.273,0.07-0.264,0.26
		c0.016,0.27,0.013,0.543,0.002,0.816c-0.008,0.158,0.049,0.217,0.225,0.213c0.435-0.008,0.873,0.008,1.308-0.006
		c0.217-0.01,0.226,0.092,0.229,0.246c0.006,0.164-0.058,0.211-0.228,0.207c-0.436-0.01-0.873,0.004-1.309-0.006
		c-0.175-0.004-0.23,0.055-0.226,0.215c0.01,0.346,0.011,0.691-0.002,1.039c-0.006,0.178,0.057,0.238,0.249,0.232
		c0.477-0.01,0.953-0.004,1.429,0c0.3,0,0.313,0.023,0.297,0.293c-0.006,0.105-0.044,0.158-0.16,0.158c-0.741,0-1.481-0.002-2.224,0
		c-0.192,0.002-0.164-0.115-0.164-0.225C52.172,92.033,52.172,91.416,52.172,90.797z"/>
	<path fill-rule="evenodd" clip-rule="evenodd" fill="#232422" d="M46.607,90.838c0-0.607,0.006-1.213-0.003-1.822
		c-0.002-0.16,0.034-0.24,0.23-0.258c0.514-0.053,1.026-0.096,1.537,0.021c0.597,0.133,0.938,0.48,1.003,1.012
		c0.067,0.551-0.217,1.037-0.754,1.273c-0.332,0.145-0.682,0.186-1.044,0.178c-0.392-0.01-0.392-0.002-0.392,0.375
		c0,0.336,0.003,0.668-0.001,1.002c-0.001,0.258-0.005,0.258-0.287,0.258c-0.282,0-0.286,0-0.288-0.258
		C46.606,92.027,46.607,91.434,46.607,90.838z M47.185,89.969c0,0.209,0,0.42,0,0.631c0,0.092,0.011,0.182,0.135,0.189
		c0.355,0.018,0.715,0.049,1.042-0.133c0.337-0.184,0.444-0.471,0.411-0.818c-0.032-0.318-0.225-0.512-0.537-0.621
		c-0.297-0.102-0.601-0.066-0.903-0.055c-0.119,0.006-0.149,0.08-0.149,0.178C47.188,89.551,47.185,89.76,47.185,89.969z"/>
	<path fill-rule="evenodd" clip-rule="evenodd" fill="#232422" d="M57.658,90.801c0-0.58-0.002-1.16,0-1.742
		c0.002-0.303,0.005-0.303,0.279-0.303c0.292-0.002,0.296-0.002,0.297,0.289c0.002,0.979,0,1.953,0,2.93c0,0.086,0.008,0.174,0,0.26
		c-0.012,0.146,0.059,0.191,0.209,0.191c0.476-0.004,0.951-0.004,1.427,0c0.294,0,0.309,0.021,0.291,0.293
		c-0.007,0.1-0.029,0.16-0.156,0.158c-0.728-0.002-1.455-0.004-2.179,0.002c-0.191,0-0.168-0.111-0.168-0.223
		C57.658,92.039,57.658,91.42,57.658,90.801z"/>
	<path fill-rule="evenodd" clip-rule="evenodd" fill="#232422" d="M43.534,90.828c0-0.605-0.002-1.211,0.003-1.82
		c0-0.086-0.06-0.219,0.095-0.242c0.154-0.021,0.32-0.049,0.464,0.029c0.06,0.033,0.036,0.115,0.036,0.172
		c0.001,1.227-0.001,2.451,0.004,3.674c0.001,0.174-0.044,0.242-0.243,0.24c-0.358-0.004-0.36,0.008-0.36-0.346
		C43.533,91.965,43.534,91.398,43.534,90.828z"/>
	<path fill-rule="evenodd" clip-rule="evenodd" fill="#232422" d="M63.563,90.838c0,0.605-0.017,1.215,0.006,1.82
		c0.009,0.246-0.139,0.217-0.298,0.219c-0.165,0.002-0.297,0.018-0.293-0.223c0.015-1.223,0.015-2.451,0-3.676
		c-0.004-0.24,0.129-0.223,0.296-0.225s0.302-0.012,0.294,0.227C63.548,89.6,63.563,90.219,63.563,90.838z"/>
	<path fill-rule="evenodd" clip-rule="evenodd" fill="#232422" d="M73.18,90.826c0,0.596,0.003,1.189,0,1.783
		c-0.001,0.266-0.006,0.266-0.279,0.268c-0.289,0.002-0.295,0.002-0.297-0.246c-0.001-1.203-0.001-2.404,0.003-3.607
		c0-0.088-0.058-0.223,0.077-0.252c0.139-0.029,0.294-0.029,0.433,0.004c0.104,0.025,0.063,0.148,0.063,0.23
		C73.181,89.613,73.18,90.221,73.18,90.826z"/>
	<polygon fill-rule="evenodd" clip-rule="evenodd" fill="#EEAC2E" points="38.115,6.607 38.125,6.597 38.116,6.606 	"/>
	<path fill-rule="evenodd" clip-rule="evenodd" fill="#FFFFFF" d="M31.888,77.906c0.282,0.645,0.539,1.23,0.808,1.848
		c-0.549,0-1.046,0-1.598,0C31.324,79.137,31.616,78.563,31.888,77.906z"/>
	<path fill-rule="evenodd" clip-rule="evenodd" fill="#FFFFFF" d="M17.104,89.986c0-0.211,0.003-0.418-0.003-0.627
		c-0.002-0.141,0.056-0.205,0.208-0.205c0.264,0,0.524-0.031,0.784,0.047c0.374,0.115,0.579,0.346,0.604,0.693
		c0.025,0.346-0.174,0.664-0.51,0.807c-0.3,0.127-0.617,0.102-0.934,0.092c-0.12-0.008-0.148-0.08-0.148-0.178
		C17.104,90.406,17.104,90.197,17.104,89.986L17.104,89.986z"/>
	<path fill-rule="evenodd" clip-rule="evenodd" fill="#FFFFFF" d="M38.569,89.979c0-0.197,0.009-0.395-0.002-0.594
		c-0.011-0.178,0.076-0.234,0.256-0.232c0.249,0.004,0.498-0.025,0.743,0.053c0.375,0.117,0.576,0.352,0.599,0.699
		c0.019,0.332-0.171,0.641-0.485,0.785c-0.311,0.139-0.641,0.117-0.97,0.1c-0.124-0.006-0.141-0.09-0.141-0.182
		C38.569,90.398,38.569,90.188,38.569,89.979z"/>
	<path fill-rule="evenodd" clip-rule="evenodd" fill="#FFFFFF" d="M47.185,89.969c0-0.209,0.003-0.418,0-0.629
		c0-0.098,0.03-0.172,0.149-0.178c0.302-0.012,0.605-0.047,0.903,0.055c0.312,0.109,0.504,0.303,0.537,0.621
		c0.033,0.348-0.074,0.635-0.411,0.818c-0.327,0.182-0.687,0.15-1.042,0.133c-0.124-0.008-0.135-0.098-0.135-0.189
		C47.185,90.389,47.185,90.178,47.185,89.969z"/>
</g>
</svg>
