<?xml version="1.0" encoding="utf-8"?>
<!-- Generator: Adobe Illustrator 16.0.0, SVG Export Plug-In . SVG Version: 6.00 Build 0)  -->
<!DOCTYPE svg PUBLIC "-//W3C//DTD SVG 1.1//EN" "http://www.w3.org/Graphics/SVG/1.1/DTD/svg11.dtd">
<svg version="1.1" id="Layer_1" xmlns="http://www.w3.org/2000/svg" xmlns:xlink="http://www.w3.org/1999/xlink" x="0px" y="0px"
	 width="100px" height="70px" viewBox="0 0 100 70" enable-background="new 0 0 100 70" xml:space="preserve">
<g>
	<path fill-rule="evenodd" clip-rule="evenodd" fill="#FFFFFF" d="M82.572,69.375c-21.876,0-43.752,0-65.628,0
		c0-22.917,0-45.833,0-68.75c21.876,0,43.752,0,65.628,0C82.572,23.542,82.572,46.458,82.572,69.375z M52.386,8.809
		c-0.353,0.998-0.315,1.984,0.136,2.945c0.803,1.71,2.801,2.723,4.773,2.518c1.148-0.119,2.111-0.571,2.902-1.35
		c0.188-0.186,0.388-0.371,0.456-0.635c0.113-0.054,0.17-0.152,0.224-0.253c0.766-1.431,0.763-2.861-0.165-4.21
		c-1.043-1.517-2.596-2.165-4.501-1.97c-1.771,0.18-3.002,1.096-3.722,2.614C52.438,8.577,52.379,8.685,52.386,8.809z M46.971,8.227
		c-0.053-0.218-0.228-0.366-0.354-0.542c-0.315-0.436-0.707-0.807-1.166-1.104c-0.987-0.64-2.086-0.877-3.278-0.734
		c-1.195,0.144-2.18,0.653-2.954,1.514c-0.622,0.691-0.973,1.494-1.05,2.393c-0.049,0.56-0.027,1.117,0.196,1.651
		c0.197,0.699,0.621,1.268,1.199,1.729c1.26,1.005,2.73,1.318,4.338,1.05c1.031-0.172,1.902-0.646,2.543-1.436
		c0.794-0.977,1.105-2.087,0.947-3.304C47.337,9.017,47.221,8.599,46.971,8.227z M36.478,35.182
		c-0.252-0.928-0.454-1.865-0.522-2.82c-0.093-1.281-0.031-2.556,0.272-3.815c0.071-0.296,0.134-0.593,0.246-0.876
		c0.108-0.273,0.211-0.548,0.289-0.83c0.023-0.047,0.049-0.093,0.068-0.141c0.304-0.778,0.647-1.54,1.084-2.263
		c0.224-0.368,0.47-0.721,0.755-1.051c0.079-0.09,0.151-0.115,0.25-0.028c0.106,0.095,0.222,0.182,0.326,0.279
		c0.909,0.858,1.832,1.703,2.754,2.549c1.916,1.758,3.821,3.526,5.733,5.289c0.597,0.551,1.198,1.1,1.832,1.614
		c0.233,0.189,0.235,0.186,0.464-0.023c1.188-1.085,2.377-2.167,3.565-3.253c1.998-1.827,3.996-3.655,5.994-5.482
		c0.389-0.354,0.778-0.708,1.179-1.073c0.242,0.218,0.424,0.456,0.589,0.702c0.192,0.284,0.369,0.575,0.553,0.863
		c0.016,0.041,0.026,0.083,0.047,0.12c0.478,0.907,0.85,1.85,1.146,2.82c0.315,1.038,0.542,2.09,0.547,3.175
		c0.003,0.379,0.004,0.758,0.006,1.137c-0.051,0.419-0.085,0.84-0.152,1.257c-0.193,1.187-0.527,2.341-0.986,3.463
		c-0.415,1.017-0.898,2.001-1.486,2.941c-0.211,0.34-0.413,0.685-0.619,1.027c-0.031,0.031-0.07,0.057-0.093,0.093
		c-0.248,0.382-0.516,0.75-0.789,1.115c-0.731,0.981-1.522,1.922-2.35,2.833c-0.907,1.001-1.869,1.958-2.849,2.896
		c-0.218,0.208-0.41,0.446-0.697,0.585c-0.063,0.03-0.108,0.074-0.076,0.144c0.033,0.07,0.106,0.056,0.17,0.048
		c0.291-0.037,0.585-0.068,0.876-0.115c1.349-0.217,2.649-0.599,3.921-1.063c1.487-0.543,2.956-1.13,4.314-1.922
		c2.374-1.384,4.487-3.049,6.264-5.083c1.811-2.073,3.229-4.344,4.131-6.891c0.5-1.412,0.849-2.856,1.075-4.326
		c0.104-0.674,0.211-1.349,0.229-2.032c0.043-1.529-0.053-3.052-0.322-4.563c-0.221-1.235-0.537-2.448-0.973-3.632
		c-0.628-1.715-1.469-3.333-2.525-4.85c-1.093-1.566-2.327-3.026-3.82-4.281c-1.501-1.261-3.099-2.397-4.871-3.308
		c-1.183-0.607-2.39-1.157-3.667-1.567c-0.153-0.049-0.305-0.114-0.502-0.113c1.156,0.489,2.211,1.086,3.223,1.752
		c1.809,1.192,3.39,2.606,4.707,4.273c0.417,0.528,0.787,1.085,1.176,1.63c0.028,0.054,0.054,0.109,0.087,0.16
		c0.701,1.12,1.265,2.3,1.719,3.525c0.363,0.978,0.641,1.978,0.857,2.996c0.187,0.88,0.31,1.766,0.361,2.657
		c0.059,1.008,0.017,2.017-0.161,3.015c-0.07,0.396-0.181,0.785-0.27,1.179c-0.011,0.045-0.024,0.087-0.075,0.096
		c-0.038,0.006-0.067-0.02-0.076-0.058c-0.064-0.29-0.223-0.545-0.328-0.819c-0.409-1.052-0.857-2.086-1.509-3.033
		c-0.236-0.342-0.442-0.702-0.67-1.048c-0.325-0.494-0.709-0.95-1.088-1.407c-0.331-0.417-0.733-0.772-1.125-1.138
		c-0.795-0.742-1.559-1.517-2.495-2.117c-0.555-0.354-1.081-0.75-1.67-1.055c-0.23-0.12-0.239-0.125-0.42,0.055
		c-0.185,0.184-0.396,0.336-0.599,0.499c-0.225,0.178-0.443,0.363-0.638,0.571c-0.075,0.063-0.153,0.124-0.225,0.19
		c-1.233,1.153-2.423,2.346-3.641,3.515c-0.554,0.531-1.109,1.063-1.692,1.565c-0.529,0.456-1.069,0.899-1.572,1.382
		c-0.578,0.556-1.145,1.125-1.753,1.655c-0.166,0.144-0.169,0.143-0.328,0c-0.544-0.492-1.091-0.981-1.631-1.477
		c-1.084-0.996-2.196-1.964-3.253-2.986c-1.277-1.235-2.561-2.463-3.875-3.664c-0.283-0.258-0.553-0.53-0.871-0.754
		c-0.185-0.241-0.458-0.387-0.697-0.57c-0.07-0.053-0.153-0.049-0.231-0.005c-0.235,0.132-0.475,0.257-0.705,0.396
		c-0.853,0.514-1.628,1.119-2.38,1.752c-1.701,1.434-3.14,3.062-4.225,4.954c-0.292,0.509-0.561,1.029-0.77,1.574
		c-0.353,0.665-0.589,1.377-0.925,2.05c-0.068-0.02-0.058-0.071-0.068-0.109c-0.284-0.991-0.342-2.006-0.382-3.022
		c-0.034-0.871,0.028-1.742,0.113-2.609c0.118-1.208,0.405-2.388,0.768-3.551c0.34-1.09,0.792-2.139,1.351-3.147
		c0.205-0.37,0.407-0.742,0.647-1.094c0.225-0.329,0.434-0.668,0.649-1.003c0.069-0.055,0.136-0.108,0.189-0.18
		c0.335-0.455,0.69-0.895,1.073-1.315c1.508-1.661,3.211-3.108,5.232-4.212c0.612-0.334,1.213-0.685,1.82-1.028l0.006-0.006
		l-0.007,0.007c-0.265,0.046-0.502,0.165-0.749,0.259c-0.834,0.318-1.694,0.58-2.467,1.035c-0.967,0.569-1.985,1.058-2.938,1.654
		c-1.507,0.943-2.825,2.092-4.039,3.332c-2.167,2.212-3.789,4.749-4.883,7.576c-0.773,2-1.232,4.061-1.355,6.181
		c-0.104,1.788,0.007,3.566,0.362,5.332c0.39,1.935,1.015,3.796,1.929,5.568c1.95,3.785,4.863,6.789,8.548,9.156
		c1.52,0.977,3.17,1.724,4.892,2.332c1.466,0.521,2.947,0.994,4.503,1.223c0.236,0.034,0.476,0.079,0.764,0.042
		c-0.146-0.142-0.26-0.252-0.372-0.364c-0.187-0.19-0.365-0.386-0.557-0.568c-0.149-0.142-0.319-0.263-0.472-0.398
		c-0.608-0.544-1.145-1.149-1.704-1.734c-0.555-0.581-1.088-1.184-1.615-1.789c-0.426-0.491-0.82-1.002-1.208-1.518
		c-0.349-0.465-0.677-0.945-1.014-1.417c-0.055-0.137-0.135-0.262-0.215-0.388c-0.658-1.026-1.23-2.093-1.717-3.2
		C36.9,36.462,36.687,35.822,36.478,35.182z M31.612,52.54c0.167-0.346,0.322-0.666,0.476-0.989c0.091-0.189,0.09-0.191-0.083-0.304
		c-0.645-0.422-1.364-0.654-2.146-0.669c-1.709-0.034-2.973,0.688-3.802,2.068c-0.48,0.799-0.607,1.659-0.325,2.55
		c0.471,1.484,1.51,2.45,3.131,2.757c1.623,0.306,2.997-0.194,4.09-1.361c0.086-0.092,0.111-0.188,0.111-0.306
		c-0.004-0.802-0.001-1.606-0.002-2.408c0-0.21-0.003-0.213-0.224-0.213c-0.766-0.001-1.532,0-2.298,0c-0.369,0-0.738,0-1.107-0.001
		c-0.098,0-0.181,0-0.188,0.128c-0.02,0.327-0.046,0.653-0.077,0.98c-0.01,0.103,0.024,0.141,0.134,0.139
		c0.212-0.006,0.424-0.002,0.637-0.002c0.535,0,1.07,0.003,1.605-0.002c0.116,0,0.165,0.034,0.161,0.147
		c-0.007,0.207-0.013,0.414,0.001,0.62c0.01,0.146-0.052,0.244-0.167,0.332c-0.654,0.506-1.396,0.685-2.224,0.514
		c-1.111-0.228-1.973-1.21-1.948-2.229c0.037-1.479,1.518-2.47,2.883-2.3C30.748,52.053,31.189,52.232,31.612,52.54z M66.895,58.142
		c0-0.153,0-0.24,0-0.325c0-0.854,0-1.708,0-2.563c0-1.433,0.001-2.867,0-4.3c-0.001-0.321,0.044-0.28-0.314-0.282
		c-0.388-0.002-0.775-0.003-1.163,0c-0.339,0.002-0.299-0.045-0.299,0.269c-0.002,1.062,0,2.124-0.003,3.186
		c0,0.063,0.033,0.136-0.049,0.201c-1.429-1.229-2.856-2.455-4.315-3.71c-0.005,0.098-0.009,0.141-0.009,0.183
		c-0.001,2.305-0.001,4.609-0.001,6.915c0,0.026,0.004,0.053,0,0.077c-0.017,0.118,0.047,0.144,0.16,0.143
		c0.461-0.004,0.923-0.002,1.385-0.002c0.262,0,0.233,0.003,0.233-0.229c0-1.019-0.001-2.038,0.001-3.056
		c0-0.071-0.026-0.15,0.04-0.23C63.996,55.649,65.42,56.873,66.895,58.142z M70.282,53.609c0-0.859,0-1.688,0-2.515
		c0-0.104-0.002-0.207,0-0.312c0.002-0.071-0.022-0.114-0.107-0.114c-0.518,0.002-1.034,0.002-1.552,0.001
		c-0.076-0.001-0.121,0.024-0.118,0.104c0.002,0.069,0,0.139,0,0.207c0,1.632,0,3.264,0,4.895c0,0.596-0.002,1.191,0,1.788
		c0.001,0.289-0.045,0.269,0.273,0.269c0.415,0.001,0.831,0.001,1.246,0c0.284,0,0.257,0.022,0.258-0.23
		c0-0.363,0.024-0.726-0.007-1.087c-0.032-0.385,0.228-0.625,0.409-0.94c0.069,0.109,0.116,0.182,0.164,0.256
		c0.385,0.608,0.772,1.216,1.15,1.827c0.078,0.127,0.161,0.183,0.324,0.179c0.479-0.011,0.96-0.003,1.439-0.005
		c0.057,0,0.13,0.033,0.173-0.052c-0.042-0.07-0.086-0.146-0.132-0.219c-0.689-1.092-1.375-2.186-2.07-3.273
		c-0.098-0.152-0.099-0.262-0.001-0.414c0.646-1.004,1.28-2.016,1.917-3.026c0.05-0.08,0.117-0.151,0.133-0.245
		c-0.08-0.051-0.155-0.029-0.225-0.03c-0.38-0.002-0.758,0.01-1.136-0.005c-0.184-0.008-0.277,0.052-0.367,0.197
		c-0.521,0.844-1.053,1.682-1.582,2.521C70.428,53.456,70.401,53.543,70.282,53.609z M41.139,56.495
		c0.466,0.708,1.389,1.313,2.265,1.488c1.032,0.206,1.9-0.088,2.601-0.798c0.753-0.762,0.743-1.881,0.009-2.661
		c-0.24-0.256-0.525-0.461-0.835-0.634c-0.348-0.195-0.703-0.378-1.053-0.57c-0.207-0.112-0.411-0.23-0.581-0.393
		c-0.286-0.271-0.228-0.588,0.144-0.748c0.204-0.088,0.421-0.122,0.647-0.086c0.25,0.039,0.479,0.128,0.688,0.258
		c0.116,0.07,0.186,0.052,0.276-0.038c0.311-0.308,0.629-0.606,0.945-0.909c0.025-0.024,0.048-0.051,0.045-0.101
		c-0.396-0.326-0.867-0.537-1.381-0.66c-0.734-0.174-1.443-0.105-2.118,0.231c-1.268,0.634-1.501,2.274-0.414,3.177
		c0.284,0.235,0.593,0.437,0.921,0.615c0.334,0.182,0.674,0.354,1.008,0.537c0.167,0.091,0.329,0.191,0.446,0.342
		c0.184,0.237,0.174,0.468-0.038,0.682c-0.245,0.246-0.551,0.337-0.903,0.282c-0.258-0.04-0.491-0.141-0.703-0.286
		c-0.202-0.141-0.375-0.306-0.528-0.492c-0.044-0.053-0.08-0.12-0.175-0.058C41.985,55.949,41.562,56.223,41.139,56.495z
		 M37.369,50.603c-1.093,2.476-2.157,4.886-3.235,7.329c0.483,0,0.932-0.001,1.381,0c0.099,0,0.119-0.065,0.146-0.129
		c0.097-0.225,0.199-0.444,0.288-0.672c0.045-0.113,0.115-0.153,0.245-0.151c0.626,0.005,1.254,0.005,1.881,0
		c0.129-0.002,0.201,0.034,0.248,0.148c0.096,0.235,0.208,0.461,0.308,0.692c0.031,0.072,0.068,0.112,0.158,0.112
		c0.59-0.002,1.179-0.001,1.805-0.001C39.519,55.489,38.455,53.072,37.369,50.603z M51.622,54.287c0,0.122,0,0.242,0,0.362
		c0,1.026,0,2.054,0.001,3.079c0,0.199,0.003,0.201,0.207,0.203c0.155,0.002,0.313,0,0.47,0c1.124,0,2.25,0,3.374,0
		c0.276,0,0.277,0,0.302-0.265c0.021-0.24,0.043-0.481,0.062-0.722c0.021-0.3,0.017-0.257-0.248-0.257
		c-0.719-0.002-1.438,0-2.157-0.001c-0.227-0.001-0.228-0.003-0.229-0.209c-0.001-0.716,0-1.432,0-2.147c0-1.14,0-2.277-0.001-3.415
		c0-0.28,0.021-0.245-0.271-0.245c-0.425-0.002-0.849,0-1.273-0.002c-0.254,0-0.236-0.007-0.236,0.229
		C51.623,52.027,51.622,53.158,51.622,54.287z M59.185,54.324c0-1.146,0-2.293-0.001-3.439c0-0.212-0.003-0.214-0.223-0.214
		c-0.415-0.002-0.83-0.003-1.245,0c-0.344,0.002-0.315-0.049-0.315,0.281c-0.001,2.234,0,4.468,0,6.701
		c0,0.043,0.004,0.087-0.001,0.129c-0.011,0.109,0.031,0.156,0.154,0.151c0.176-0.007,0.351-0.002,0.526-0.002
		c0.304,0,0.608-0.004,0.912,0.003c0.135,0.002,0.217-0.022,0.193-0.169c-0.007-0.043-0.001-0.086-0.001-0.13
		C59.185,56.531,59.185,55.429,59.185,54.324z M30.684,62.562c0.046,0.048,0.06,0.058,0.068,0.072
		c0.417,0.711,0.915,1.376,1.373,2.063c0.019,0.029,0.04,0.058,0.059,0.088c0.104,0.154,0.27,0.084,0.403,0.075
		c0.138-0.007,0.073-0.137,0.074-0.211c0.005-0.596,0.003-1.191,0.003-1.786c0-0.242,0-0.484,0-0.725
		c0-0.05,0.016-0.116-0.047-0.138c-0.087-0.028-0.185-0.026-0.273-0.005c-0.098,0.024-0.062,0.113-0.062,0.178
		c0.001,0.621,0.006,1.243,0.01,1.863c0,0.063,0,0.126,0,0.188c-0.449-0.7-0.95-1.348-1.396-2.028
		c-0.098-0.15-0.208-0.219-0.398-0.201c-0.192,0.02-0.196,0.008-0.197,0.19c-0.001,0.5,0,1,0,1.502c0,0.345,0.009,0.689-0.003,1.035
		c-0.007,0.173,0.105,0.141,0.213,0.148c0.127,0.011,0.182-0.021,0.177-0.154c-0.011-0.267-0.003-0.535-0.003-0.803
		C30.684,63.478,30.684,63.04,30.684,62.562z M62.908,64.221c-0.448-0.711-0.951-1.371-1.414-2.056
		c-0.02-0.029-0.038-0.059-0.061-0.086c-0.122-0.144-0.29-0.085-0.435-0.068c-0.133,0.014-0.069,0.141-0.069,0.216
		c-0.005,0.803-0.003,1.604-0.003,2.407c0,0.051-0.002,0.104,0.003,0.155c0.003,0.022,0.015,0.062,0.031,0.065
		c0.099,0.028,0.204,0.028,0.301,0.006c0.079-0.019,0.047-0.102,0.047-0.157c-0.001-0.639-0.004-1.278-0.007-1.916
		c0-0.063,0-0.127,0-0.184c0.066-0.008,0.073,0.022,0.085,0.042c0.412,0.704,0.911,1.357,1.354,2.044
		c0.097,0.149,0.205,0.192,0.378,0.185c0.129-0.005,0.18-0.031,0.175-0.161c-0.01-0.267-0.003-0.535-0.003-0.803
		c0-0.578,0.001-1.156-0.001-1.735c0-0.057,0.031-0.132-0.037-0.165c-0.093-0.046-0.202-0.036-0.296-0.009
		c-0.075,0.021-0.048,0.104-0.048,0.161c-0.001,0.518,0,1.035,0,1.554C62.908,63.885,62.908,64.052,62.908,64.221z M68.012,62.556
		c0.051,0.06,0.069,0.076,0.082,0.096c0.415,0.712,0.915,1.376,1.372,2.064c0.015,0.022,0.03,0.044,0.044,0.066
		c0.103,0.16,0.269,0.085,0.401,0.079c0.141-0.006,0.077-0.135,0.077-0.209c0.005-0.812,0.003-1.622,0.003-2.434
		c0-0.051-0.001-0.104-0.004-0.155c-0.002-0.038-0.027-0.058-0.066-0.07c-0.198-0.063-0.313,0.009-0.313,0.204
		c0.003,0.629,0.009,1.259,0.012,1.888c0,0.047,0.026,0.1-0.021,0.135c-0.026,0.007-0.034-0.005-0.046-0.022
		c-0.399-0.702-0.902-1.344-1.343-2.022c-0.098-0.149-0.21-0.191-0.383-0.18c-0.194,0.015-0.198,0.008-0.198,0.188
		c-0.002,0.838,0.002,1.675-0.004,2.512c-0.001,0.13,0.032,0.186,0.183,0.179c0.198-0.009,0.199,0,0.203-0.179
		c0.002-0.07,0.001-0.139,0.001-0.208C68.012,63.859,68.012,63.23,68.012,62.556z M74.595,63.359c-0.292,0-0.577,0.004-0.862-0.002
		c-0.127-0.004-0.153,0.047-0.152,0.152c0,0.107,0.034,0.151,0.157,0.151c0.153,0,0.35-0.065,0.448,0.033
		c0.098,0.1,0.03,0.281,0.031,0.426c0.005,0.45,0.002,0.45-0.477,0.468c-0.618,0.022-1.091-0.283-1.228-0.802
		c-0.046-0.177-0.049-0.359-0.028-0.54c0.053-0.469,0.38-0.812,0.87-0.92c0.313-0.068,0.624-0.062,0.925,0.036
		c0.145,0.046,0.172-0.015,0.209-0.118c0.042-0.118,0.008-0.17-0.118-0.201c-0.235-0.055-0.47-0.08-0.711-0.075
		c-1.082,0.021-1.761,0.769-1.605,1.768c0.096,0.613,0.559,1.04,1.216,1.139c0.296,0.044,0.587,0.031,0.879-0.014
		c0.467-0.069,0.466-0.072,0.466-0.51c0-0.093,0.003-0.189-0.001-0.283C74.606,63.837,74.634,63.604,74.595,63.359z M37.265,64.067
		c0-0.19-0.001-0.38,0-0.57c0-0.074-0.004-0.138-0.11-0.138c-0.277,0.001-0.553,0.001-0.83,0c-0.087,0-0.103,0.047-0.105,0.117
		c-0.006,0.154,0.009,0.17,0.179,0.183c0.153,0.011,0.362-0.068,0.445,0.044c0.075,0.102,0.026,0.284,0.027,0.43
		c0.001,0.432,0,0.432-0.468,0.454c-0.685,0.033-1.177-0.318-1.274-0.936c-0.108-0.681,0.245-1.334,1.205-1.366
		c0.204-0.008,0.406,0.013,0.598,0.079c0.118,0.04,0.162,0.009,0.192-0.102c0.026-0.098,0.067-0.172-0.089-0.213
		c-0.279-0.072-0.561-0.097-0.848-0.076c-0.827,0.058-1.386,0.534-1.501,1.274c-0.118,0.764,0.337,1.435,1.096,1.603
		c0.45,0.099,0.896,0.054,1.337-0.063c0.104-0.028,0.153-0.071,0.147-0.179C37.259,64.429,37.265,64.248,37.265,64.067z
		 M26.449,62.024c-0.011,0.027-0.021,0.045-0.021,0.061c-0.002,0.881,0,1.761-0.007,2.643c-0.001,0.174,0.112,0.139,0.218,0.143
		c0.118,0.004,0.216,0.01,0.207-0.155c-0.014-0.268-0.005-0.535-0.003-0.803c0.001-0.181,0.004-0.186,0.192-0.181
		c0.279,0.007,0.553-0.012,0.809-0.129c0.383-0.174,0.56-0.496,0.51-0.919c-0.04-0.331-0.285-0.577-0.678-0.665
		C27.265,61.926,26.854,61.96,26.449,62.024z M41.402,62.024c-0.011,0.027-0.022,0.045-0.022,0.061
		c-0.001,0.881,0.001,1.761-0.007,2.643c-0.001,0.174,0.112,0.139,0.218,0.143c0.117,0.004,0.216,0.01,0.208-0.155
		c-0.015-0.268-0.006-0.535-0.004-0.803c0.002-0.181,0.004-0.186,0.192-0.181c0.28,0.007,0.554-0.012,0.81-0.129
		c0.382-0.174,0.56-0.497,0.509-0.919c-0.039-0.332-0.284-0.577-0.677-0.665C42.218,61.926,41.807,61.96,41.402,62.024z
		 M51.271,63.422c0,0.431,0,0.861,0,1.292c0,0.076-0.02,0.157,0.114,0.156c0.517-0.002,1.032,0,1.549,0
		c0.081,0,0.107-0.036,0.111-0.11c0.012-0.188,0.002-0.204-0.206-0.204c-0.332-0.002-0.664-0.006-0.996,0.001
		c-0.134,0.003-0.177-0.038-0.173-0.162c0.009-0.242,0.008-0.483,0.001-0.724c-0.004-0.112,0.035-0.152,0.157-0.15
		c0.304,0.007,0.608-0.002,0.912,0.004c0.118,0.003,0.162-0.03,0.158-0.145c-0.003-0.107-0.009-0.177-0.16-0.171
		c-0.303,0.01-0.608-0.001-0.911,0.004c-0.122,0.003-0.161-0.038-0.156-0.148c0.008-0.189,0.01-0.381-0.001-0.568
		c-0.007-0.133,0.036-0.185,0.184-0.181c0.313,0.008,0.627-0.002,0.939,0.004c0.132,0.004,0.181-0.032,0.181-0.158
		c0.001-0.122-0.037-0.168-0.174-0.166c-0.433,0.008-0.866,0.002-1.299,0.003c-0.227,0.001-0.229,0.003-0.229,0.207
		C51.271,62.61,51.271,63.016,51.271,63.422z M47.395,63.449c0,0.415-0.001,0.829,0,1.242c0,0.179,0.004,0.179,0.2,0.179
		c0.197,0,0.199,0,0.201-0.179c0.002-0.232,0-0.465,0.001-0.698c0-0.264,0-0.269,0.273-0.262c0.253,0.006,0.497-0.023,0.727-0.124
		c0.375-0.164,0.573-0.503,0.525-0.888c-0.044-0.37-0.283-0.612-0.698-0.705c-0.356-0.08-0.713-0.051-1.072-0.015
		c-0.136,0.014-0.162,0.068-0.16,0.181C47.398,62.604,47.395,63.027,47.395,63.449z M55.094,63.424c0,0.432,0,0.862,0,1.293
		c0,0.077-0.017,0.154,0.116,0.154c0.505-0.004,1.012-0.002,1.519-0.001c0.088,0.001,0.104-0.041,0.108-0.11
		c0.013-0.188,0.002-0.204-0.203-0.204c-0.331-0.002-0.662-0.003-0.993,0c-0.105,0.001-0.154-0.031-0.146-0.134
		c0.005-0.06,0-0.12,0-0.181c0-0.68,0.001-1.359,0-2.041c-0.001-0.202-0.004-0.202-0.207-0.201c-0.191,0-0.193,0-0.194,0.212
		C55.092,62.616,55.094,63.021,55.094,63.424z M45.253,63.443c0,0.396,0,0.792,0,1.189c0,0.246,0.001,0.237,0.251,0.24
		c0.137,0.001,0.17-0.046,0.169-0.167c-0.004-0.853-0.002-1.705-0.003-2.56c0-0.04,0.017-0.097-0.025-0.119
		c-0.101-0.055-0.216-0.035-0.323-0.021c-0.109,0.016-0.067,0.108-0.067,0.168C45.252,62.599,45.253,63.021,45.253,63.443z
		 M59.206,63.45c0-0.432-0.01-0.863,0.004-1.295c0.005-0.165-0.088-0.158-0.205-0.157c-0.116,0.001-0.208-0.011-0.206,0.156
		c0.011,0.854,0.011,1.709,0,2.562c-0.002,0.167,0.089,0.155,0.204,0.154c0.111-0.001,0.214,0.02,0.208-0.152
		C59.195,64.296,59.206,63.872,59.206,63.45z M65.906,63.442c0-0.423,0.001-0.846-0.001-1.269c0-0.058,0.028-0.144-0.043-0.16
		c-0.097-0.023-0.205-0.024-0.302-0.004c-0.094,0.021-0.054,0.114-0.054,0.177c-0.003,0.838-0.003,1.675-0.002,2.512
		c0.001,0.173,0.005,0.173,0.207,0.172c0.19-0.001,0.193-0.001,0.194-0.187C65.908,64.271,65.906,63.856,65.906,63.442z"/>
	<path fill-rule="evenodd" clip-rule="evenodd" fill="#F9CF27" d="M61.908,24.822c-0.184-0.288-0.36-0.579-0.553-0.863
		c-0.165-0.246-0.347-0.484-0.589-0.702c-0.4,0.365-0.79,0.719-1.179,1.073c-1.998,1.828-3.996,3.656-5.994,5.482
		c-1.188,1.085-2.377,2.168-3.565,3.253c-0.229,0.209-0.23,0.212-0.464,0.023c-0.634-0.514-1.235-1.063-1.832-1.614
		c-1.912-1.763-3.817-3.53-5.733-5.289c-0.922-0.846-1.845-1.69-2.754-2.549c-0.104-0.098-0.22-0.184-0.326-0.279
		c-0.098-0.087-0.171-0.062-0.25,0.028c-0.285,0.331-0.531,0.683-0.755,1.051c-0.438,0.723-0.78,1.485-1.084,2.263
		c-0.019,0.048-0.045,0.094-0.068,0.141c-0.105-0.01-0.129-0.091-0.152-0.163c-0.039-0.124-0.068-0.25-0.097-0.375
		c-0.136-0.605-0.246-1.213-0.242-1.834c0.002-0.293,0.014-0.588-0.003-0.88c-0.02-0.338,0.019-0.674,0.07-1.002
		c0.083-0.533,0.195-1.062,0.355-1.584c0.321-1.042,0.783-2.018,1.409-2.931c0.468-0.683,1.011-1.308,1.586-1.91
		c0.097-0.102,0.19-0.213,0.332-0.27c0.318,0.224,0.588,0.496,0.871,0.754c1.313,1.201,2.598,2.429,3.875,3.664
		c1.057,1.021,2.169,1.99,3.253,2.986c0.54,0.495,1.086,0.985,1.631,1.477c0.158,0.143,0.162,0.144,0.328,0
		c0.609-0.529,1.175-1.099,1.753-1.655c0.503-0.483,1.043-0.926,1.572-1.382c0.583-0.502,1.139-1.035,1.692-1.565
		c1.218-1.168,2.407-2.362,3.641-3.515c0.071-0.067,0.149-0.127,0.225-0.19c0.005,0.063,0.043,0.11,0.077,0.162
		c0.139,0.205,0.334,0.365,0.494,0.553c0.51,0.602,0.96,1.24,1.33,1.924c0.329,0.605,0.599,1.234,0.801,1.891
		c0.242,0.779,0.382,1.571,0.454,2.374c0.037,0.411,0.006,0.828,0.008,1.242C62.026,24.702,62.011,24.781,61.908,24.822z"/>
	<path fill-rule="evenodd" clip-rule="evenodd" fill="#EEAC2E" d="M66.961,12.386c-0.389-0.545-0.759-1.103-1.176-1.63
		c-1.317-1.667-2.898-3.081-4.707-4.273c-1.012-0.666-2.066-1.263-3.223-1.752c0.197-0.001,0.349,0.064,0.502,0.113
		c1.277,0.41,2.484,0.96,3.667,1.567c1.772,0.911,3.37,2.046,4.871,3.308c1.493,1.254,2.728,2.714,3.82,4.281
		c1.057,1.517,1.897,3.135,2.525,4.85c0.436,1.185,0.752,2.397,0.973,3.632c0.27,1.512,0.365,3.034,0.322,4.563
		c-0.018,0.683-0.125,1.358-0.229,2.032c-0.227,1.47-0.575,2.915-1.075,4.326c-0.902,2.547-2.32,4.818-4.131,6.891
		c-1.776,2.034-3.89,3.699-6.264,5.083c-1.358,0.792-2.827,1.379-4.314,1.922c-1.271,0.464-2.572,0.846-3.921,1.063
		c-0.291,0.047-0.585,0.078-0.876,0.115c-0.063,0.008-0.137,0.022-0.17-0.048c-0.032-0.069,0.013-0.113,0.076-0.144
		c0.287-0.139,0.479-0.377,0.697-0.585c0.979-0.938,1.941-1.896,2.849-2.896c0.827-0.911,1.618-1.852,2.35-2.833
		c0.273-0.365,0.541-0.733,0.789-1.115c0.022-0.036,0.062-0.062,0.093-0.093c0.053,0.077,0.113,0.068,0.188,0.026
		c0.308-0.172,0.624-0.331,0.927-0.511c1.213-0.72,2.345-1.537,3.396-2.451c0.39-0.34,0.76-0.701,1.116-1.075
		c0.482-0.508,0.948-1.027,1.385-1.568c0.471-0.582,0.888-1.2,1.288-1.827c0.265-0.415,0.457-0.863,0.713-1.282
		c0.21-0.345,0.359-0.714,0.524-1.078c0.318-0.706,0.561-1.438,0.792-2.171c0.187-0.584,0.311-1.184,0.413-1.784
		c0.083-0.479,0.149-0.965,0.188-1.453c0.041-0.505,0.064-1.011,0.096-1.515c0.018-0.283-0.033-0.567-0.04-0.848
		c-0.019-0.611-0.083-1.214-0.171-1.818c-0.084-0.579-0.197-1.149-0.338-1.718c-0.33-1.338-0.837-2.617-1.456-3.859
		c-0.178-0.36-0.405-0.695-0.607-1.043c-0.456-0.789-1.014-1.515-1.568-2.242C67.187,12.455,67.103,12.369,66.961,12.386z"/>
	<path fill-rule="evenodd" clip-rule="evenodd" fill="#EEAC2E" d="M39.105,40.671c0.337,0.472,0.665,0.952,1.014,1.417
		c0.387,0.516,0.782,1.026,1.208,1.518c0.526,0.605,1.06,1.208,1.615,1.789c0.559,0.585,1.096,1.19,1.704,1.734
		c0.153,0.136,0.323,0.257,0.472,0.398c0.192,0.183,0.371,0.378,0.557,0.568c0.111,0.112,0.226,0.223,0.372,0.364
		c-0.288,0.037-0.528-0.008-0.764-0.042c-1.556-0.229-3.037-0.702-4.503-1.223c-1.722-0.608-3.373-1.355-4.892-2.332
		c-3.685-2.367-6.599-5.371-8.548-9.156c-0.914-1.772-1.539-3.633-1.929-5.568c-0.354-1.765-0.466-3.544-0.362-5.332
		c0.124-2.12,0.582-4.181,1.355-6.181c1.094-2.827,2.716-5.363,4.883-7.576c1.214-1.24,2.532-2.389,4.039-3.332
		c0.953-0.596,1.971-1.084,2.938-1.654c0.772-0.455,1.632-0.717,2.467-1.035c0.247-0.094,0.484-0.212,0.749-0.259l0.001-0.001
		c-0.606,0.343-1.208,0.694-1.82,1.028c-2.021,1.104-3.724,2.551-5.232,4.212c-0.382,0.42-0.737,0.86-1.073,1.315
		c-0.053,0.072-0.12,0.125-0.189,0.18c-0.128-0.016-0.219,0.052-0.276,0.141c-0.138,0.218-0.348,0.377-0.518,0.568
		c-0.429,0.482-0.828,0.985-1.211,1.499c-0.364,0.487-0.675,1.004-0.985,1.523c-0.508,0.852-0.937,1.735-1.28,2.656
		c-0.361,0.965-0.66,1.946-0.841,2.958c-0.11,0.617-0.228,1.238-0.242,1.859c-0.021,0.938-0.058,1.876,0.033,2.816
		c0.055,0.573,0.12,1.142,0.232,1.707c0.151,0.76,0.345,1.51,0.599,2.245c0.216,0.623,0.468,1.232,0.755,1.83
		c0.401,0.833,0.849,1.643,1.374,2.415c0.469,0.689,0.978,1.35,1.544,1.975c0.393,0.433,0.798,0.854,1.21,1.269
		c0.375,0.379,0.805,0.705,1.219,1.046c0.572,0.472,1.173,0.908,1.799,1.316c0.642,0.418,1.317,0.788,1.996,1.148
		C38.737,40.563,38.896,40.68,39.105,40.671z"/>
	<path fill-rule="evenodd" clip-rule="evenodd" fill="#F0B624" d="M66.961,12.386c0.142-0.017,0.226,0.069,0.295,0.161
		c0.555,0.727,1.112,1.454,1.568,2.242c0.202,0.348,0.43,0.683,0.607,1.043c0.619,1.243,1.126,2.521,1.456,3.859
		c0.141,0.568,0.254,1.139,0.338,1.718c0.088,0.604,0.152,1.207,0.171,1.818c0.007,0.281,0.058,0.564,0.04,0.848
		c-0.031,0.504-0.055,1.01-0.096,1.515c-0.039,0.488-0.105,0.973-0.188,1.453c-0.103,0.6-0.227,1.199-0.413,1.784
		c-0.231,0.734-0.474,1.466-0.792,2.171c-0.165,0.363-0.314,0.732-0.524,1.078c-0.256,0.418-0.448,0.867-0.713,1.282
		c-0.4,0.627-0.817,1.245-1.288,1.827c-0.437,0.541-0.902,1.061-1.385,1.568c-0.356,0.374-0.727,0.735-1.116,1.075
		c-1.052,0.914-2.184,1.731-3.396,2.451c-0.303,0.18-0.619,0.339-0.927,0.511c-0.074,0.042-0.135,0.051-0.188-0.026
		c0.206-0.343,0.408-0.688,0.619-1.027c0.588-0.94,1.071-1.925,1.486-2.941c0.459-1.122,0.793-2.276,0.986-3.463
		c0.067-0.417,0.102-0.838,0.152-1.257c0.113-0.019,0.156-0.105,0.216-0.183c0.454-0.589,0.794-1.241,1.128-1.89
		c0.402-0.782,0.715-1.602,0.936-2.447c0.125-0.482,0.23-0.968,0.313-1.459c0.068-0.399,0.132-0.8,0.143-1.197
		c0.028-1.03,0.05-2.062-0.149-3.084c-0.104-0.54-0.191-1.082-0.364-1.607c-0.061-0.18-0.116-0.364-0.067-0.558
		c0.379,0.457,0.763,0.913,1.088,1.407c0.228,0.346,0.434,0.706,0.67,1.048c0.651,0.947,1.1,1.981,1.509,3.033
		c0.105,0.274,0.264,0.53,0.328,0.819c0.009,0.038,0.038,0.064,0.076,0.058c0.051-0.008,0.064-0.051,0.075-0.096
		c0.089-0.394,0.199-0.783,0.27-1.179c0.178-0.998,0.22-2.007,0.161-3.015c-0.052-0.892-0.175-1.777-0.361-2.657
		c-0.217-1.018-0.494-2.018-0.857-2.996c-0.454-1.225-1.018-2.405-1.719-3.525C67.015,12.495,66.989,12.439,66.961,12.386z"/>
	<path fill-rule="evenodd" clip-rule="evenodd" fill="#F0B624" d="M39.105,40.671c-0.208,0.009-0.368-0.108-0.532-0.196
		c-0.679-0.36-1.354-0.73-1.996-1.148c-0.625-0.408-1.227-0.845-1.799-1.316c-0.414-0.341-0.843-0.667-1.219-1.046
		c-0.412-0.415-0.817-0.836-1.21-1.269c-0.566-0.625-1.075-1.285-1.544-1.975c-0.524-0.772-0.972-1.581-1.374-2.415
		c-0.287-0.598-0.539-1.207-0.755-1.83c-0.254-0.735-0.448-1.485-0.599-2.245c-0.113-0.565-0.178-1.134-0.232-1.707
		c-0.09-0.939-0.054-1.878-0.033-2.816c0.014-0.621,0.131-1.242,0.242-1.859c0.181-1.012,0.479-1.993,0.841-2.958
		c0.344-0.921,0.772-1.804,1.28-2.656c0.31-0.519,0.621-1.036,0.985-1.523c0.384-0.513,0.782-1.016,1.211-1.499
		c0.17-0.191,0.38-0.351,0.518-0.568c0.057-0.089,0.147-0.157,0.276-0.141c-0.216,0.334-0.425,0.674-0.649,1.003
		c-0.24,0.352-0.442,0.724-0.647,1.094c-0.559,1.009-1.011,2.058-1.351,3.147c-0.362,1.163-0.649,2.343-0.768,3.551
		c-0.085,0.867-0.147,1.738-0.113,2.609c0.041,1.016,0.099,2.032,0.382,3.022c0.01,0.038,0,0.089,0.068,0.109
		c0.336-0.673,0.572-1.385,0.925-2.05c0.172,0.015,0.167,0.133,0.165,0.249c-0.014,0.568,0.028,1.131,0.106,1.695
		c0.064,0.468,0.152,0.931,0.263,1.39c0.222,0.925,0.521,1.825,0.937,2.692c0.347,0.724,0.726,1.431,1.183,2.098
		c0.387,0.565,0.796,1.114,1.252,1.633c0.404,0.458,0.817,0.905,1.264,1.327c0.086,0.08,0.177,0.119,0.295,0.107
		c0.209,0.641,0.422,1.28,0.695,1.901c0.487,1.107,1.059,2.174,1.717,3.2C38.97,40.409,39.05,40.534,39.105,40.671z"/>
	<path fill-rule="evenodd" clip-rule="evenodd" fill="#F6C426" d="M36.478,35.182c-0.119,0.012-0.209-0.027-0.295-0.107
		c-0.447-0.422-0.86-0.87-1.264-1.327c-0.457-0.519-0.866-1.067-1.252-1.633c-0.457-0.667-0.836-1.374-1.183-2.098
		c-0.416-0.867-0.715-1.767-0.937-2.692c-0.11-0.459-0.198-0.922-0.263-1.39c-0.078-0.564-0.12-1.127-0.106-1.695
		c0.003-0.115,0.008-0.233-0.165-0.249c0.209-0.545,0.479-1.064,0.77-1.574c1.085-1.892,2.524-3.52,4.225-4.954
		c0.752-0.634,1.528-1.239,2.38-1.752c0.23-0.139,0.47-0.264,0.705-0.396c0.079-0.043,0.162-0.048,0.231,0.005
		c0.239,0.183,0.513,0.329,0.697,0.57c-0.142,0.056-0.235,0.168-0.332,0.27c-0.576,0.602-1.118,1.228-1.586,1.91
		c-0.626,0.914-1.088,1.889-1.409,2.931c-0.16,0.522-0.273,1.051-0.355,1.584c-0.052,0.329-0.09,0.665-0.07,1.002
		c0.017,0.292,0.005,0.587,0.003,0.88c-0.004,0.621,0.106,1.229,0.242,1.834c0.029,0.125,0.059,0.251,0.097,0.375
		c0.022,0.072,0.047,0.153,0.152,0.163c-0.078,0.282-0.181,0.557-0.289,0.83c-0.112,0.284-0.175,0.581-0.246,0.876
		c-0.303,1.259-0.365,2.534-0.272,3.815C36.024,33.316,36.226,34.254,36.478,35.182z"/>
	<path fill-rule="evenodd" clip-rule="evenodd" fill="#F6C426" d="M65.809,19.648c-0.049,0.193,0.007,0.377,0.067,0.558
		c0.173,0.525,0.26,1.067,0.364,1.607c0.199,1.022,0.178,2.054,0.149,3.084c-0.011,0.397-0.074,0.798-0.143,1.197
		c-0.083,0.491-0.188,0.977-0.313,1.459c-0.221,0.846-0.533,1.666-0.936,2.447c-0.334,0.648-0.674,1.3-1.128,1.89
		c-0.06,0.078-0.103,0.165-0.216,0.183c-0.002-0.378-0.003-0.757-0.006-1.137c-0.005-1.085-0.231-2.137-0.547-3.175
		c-0.297-0.97-0.669-1.914-1.146-2.82c-0.021-0.038-0.031-0.08-0.047-0.12c0.103-0.041,0.118-0.12,0.118-0.213
		c-0.002-0.414,0.029-0.831-0.008-1.242c-0.072-0.803-0.212-1.595-0.454-2.374c-0.202-0.657-0.472-1.286-0.801-1.891
		c-0.37-0.684-0.82-1.322-1.33-1.924c-0.16-0.188-0.355-0.348-0.494-0.553c-0.034-0.052-0.072-0.099-0.077-0.162
		c0.194-0.208,0.413-0.393,0.638-0.571c0.203-0.163,0.414-0.315,0.599-0.499c0.181-0.181,0.189-0.175,0.42-0.055
		c0.589,0.306,1.115,0.701,1.67,1.055c0.937,0.6,1.7,1.375,2.495,2.117C65.075,18.876,65.478,19.231,65.809,19.648z"/>
	<path fill-rule="evenodd" clip-rule="evenodd" fill="#F6C426" d="M46.971,8.227c0.25,0.372,0.367,0.79,0.422,1.217
		c0.158,1.216-0.153,2.327-0.947,3.304c-0.641,0.79-1.512,1.264-2.543,1.436c-1.608,0.269-3.078-0.044-4.338-1.05
		c-0.578-0.461-1.001-1.03-1.199-1.729c0.128-0.008,0.214-0.095,0.31-0.156c0.658-0.424,1.343-0.809,2.052-1.152
		c0.669-0.324,1.363-0.595,2.068-0.844c1.256-0.443,2.547-0.752,3.879-0.91C46.782,8.33,46.894,8.314,46.971,8.227z"/>
	<path fill-rule="evenodd" clip-rule="evenodd" fill="#F0B624" d="M52.386,8.809c-0.007-0.125,0.052-0.232,0.104-0.341
		c0.72-1.519,1.95-2.434,3.722-2.614c1.905-0.194,3.458,0.454,4.501,1.97c0.928,1.349,0.931,2.779,0.165,4.21
		c-0.054,0.101-0.11,0.2-0.224,0.253c-0.593-0.372-1.143-0.803-1.756-1.149c-0.765-0.431-1.541-0.84-2.365-1.161
		C55.5,9.574,54.444,9.23,53.347,9.009C53.026,8.944,52.697,8.912,52.386,8.809z"/>
	<path fill-rule="evenodd" clip-rule="evenodd" fill="#232422" d="M31.612,52.54c-0.423-0.308-0.864-0.487-1.361-0.549
		c-1.366-0.17-2.847,0.82-2.883,2.3c-0.025,1.02,0.837,2.002,1.948,2.229c0.828,0.171,1.57-0.008,2.224-0.514
		c0.114-0.088,0.176-0.186,0.167-0.332c-0.014-0.206-0.009-0.413-0.001-0.62c0.003-0.113-0.045-0.147-0.161-0.147
		c-0.535,0.005-1.07,0.002-1.605,0.002c-0.212,0-0.424-0.004-0.637,0.002c-0.11,0.002-0.144-0.036-0.134-0.139
		c0.031-0.327,0.058-0.653,0.077-0.98c0.007-0.128,0.09-0.128,0.188-0.128c0.369,0.001,0.738,0.001,1.107,0.001
		c0.766,0,1.532-0.001,2.298,0c0.221,0,0.223,0.003,0.224,0.213c0.001,0.802-0.001,1.606,0.002,2.408
		c0,0.118-0.025,0.214-0.111,0.306c-1.094,1.167-2.468,1.667-4.09,1.361c-1.621-0.307-2.66-1.272-3.131-2.757
		c-0.283-0.891-0.155-1.751,0.325-2.55c0.83-1.38,2.093-2.103,3.802-2.068c0.782,0.015,1.502,0.247,2.146,0.669
		c0.174,0.112,0.174,0.114,0.083,0.304C31.934,51.874,31.778,52.194,31.612,52.54z"/>
	<path fill-rule="evenodd" clip-rule="evenodd" fill="#232422" d="M66.895,58.142c-1.475-1.269-2.898-2.492-4.334-3.726
		c-0.066,0.08-0.04,0.159-0.04,0.23c-0.002,1.018-0.001,2.037-0.001,3.056c0,0.232,0.028,0.229-0.233,0.229
		c-0.462,0-0.924-0.002-1.385,0.002c-0.113,0.001-0.177-0.024-0.16-0.143c0.004-0.024,0-0.051,0-0.077c0-2.306,0-4.61,0.001-6.915
		c0-0.042,0.004-0.085,0.009-0.183c1.459,1.255,2.887,2.481,4.315,3.71c0.082-0.065,0.049-0.139,0.049-0.201
		c0.003-1.062,0.001-2.124,0.003-3.186c0-0.313-0.04-0.267,0.299-0.269c0.388-0.003,0.775-0.002,1.163,0
		c0.358,0.002,0.313-0.039,0.314,0.282c0.001,1.433,0,2.867,0,4.3c0,0.855,0,1.709,0,2.563
		C66.895,57.901,66.895,57.988,66.895,58.142z"/>
	<path fill-rule="evenodd" clip-rule="evenodd" fill="#F6C426" d="M52.386,8.809c0.312,0.103,0.641,0.135,0.961,0.2
		c1.098,0.221,2.153,0.565,3.186,0.968c0.824,0.321,1.601,0.729,2.365,1.161c0.613,0.347,1.163,0.777,1.756,1.149
		c-0.068,0.264-0.268,0.45-0.456,0.635c-0.791,0.779-1.754,1.23-2.902,1.35c-1.973,0.205-3.971-0.808-4.773-2.518
		C52.07,10.793,52.033,9.807,52.386,8.809z"/>
	<path fill-rule="evenodd" clip-rule="evenodd" fill="#F0B624" d="M46.971,8.227c-0.077,0.087-0.188,0.103-0.296,0.116
		c-1.332,0.157-2.623,0.466-3.879,0.91c-0.706,0.249-1.399,0.52-2.068,0.844c-0.709,0.344-1.394,0.728-2.052,1.152
		c-0.096,0.062-0.182,0.148-0.31,0.156c-0.224-0.534-0.245-1.091-0.196-1.651c0.078-0.899,0.428-1.702,1.05-2.393
		c0.774-0.861,1.759-1.37,2.954-1.514c1.192-0.143,2.291,0.094,3.278,0.734c0.458,0.297,0.85,0.668,1.166,1.104
		C46.743,7.86,46.918,8.008,46.971,8.227z"/>
	<path fill-rule="evenodd" clip-rule="evenodd" fill="#232422" d="M70.282,53.609c0.119-0.066,0.146-0.153,0.19-0.226
		c0.529-0.839,1.062-1.677,1.582-2.521c0.09-0.146,0.184-0.205,0.367-0.197c0.378,0.015,0.756,0.003,1.136,0.005
		c0.069,0.001,0.145-0.021,0.225,0.03c-0.016,0.094-0.083,0.165-0.133,0.245c-0.637,1.011-1.271,2.022-1.917,3.026
		c-0.098,0.152-0.097,0.262,0.001,0.414c0.695,1.088,1.381,2.182,2.07,3.273c0.046,0.073,0.09,0.148,0.132,0.219
		c-0.043,0.085-0.116,0.052-0.173,0.052c-0.479,0.002-0.96-0.006-1.439,0.005c-0.163,0.004-0.246-0.052-0.324-0.179
		c-0.378-0.611-0.766-1.219-1.15-1.827c-0.048-0.074-0.095-0.146-0.164-0.256c-0.182,0.315-0.441,0.556-0.409,0.94
		c0.031,0.361,0.007,0.724,0.007,1.087c-0.001,0.253,0.026,0.23-0.258,0.23c-0.415,0.001-0.831,0.001-1.246,0
		c-0.318,0-0.272,0.021-0.273-0.269c-0.002-0.597,0-1.192,0-1.788c0-1.631,0-3.263,0-4.895c0-0.068,0.002-0.138,0-0.207
		c-0.003-0.079,0.042-0.104,0.118-0.104c0.518,0.001,1.034,0.001,1.552-0.001c0.085,0,0.109,0.043,0.107,0.114
		c-0.002,0.104,0,0.207,0,0.312C70.282,51.922,70.282,52.75,70.282,53.609z"/>
	<path fill-rule="evenodd" clip-rule="evenodd" fill="#232422" d="M41.139,56.495c0.422-0.272,0.846-0.546,1.268-0.821
		c0.095-0.063,0.131,0.005,0.175,0.058c0.153,0.187,0.326,0.352,0.528,0.492c0.211,0.146,0.445,0.246,0.703,0.286
		c0.353,0.055,0.659-0.036,0.903-0.282c0.211-0.214,0.221-0.444,0.038-0.682c-0.117-0.15-0.279-0.251-0.446-0.342
		c-0.334-0.183-0.674-0.355-1.008-0.537c-0.328-0.179-0.637-0.38-0.921-0.615c-1.087-0.902-0.854-2.543,0.414-3.177
		c0.675-0.337,1.384-0.405,2.118-0.231c0.514,0.123,0.986,0.334,1.381,0.66c0.003,0.05-0.02,0.076-0.045,0.101
		c-0.316,0.303-0.634,0.602-0.945,0.909c-0.091,0.09-0.16,0.108-0.276,0.038c-0.209-0.13-0.438-0.219-0.688-0.258
		c-0.226-0.036-0.444-0.002-0.647,0.086c-0.372,0.16-0.43,0.477-0.144,0.748c0.17,0.162,0.374,0.28,0.581,0.393
		c0.35,0.192,0.705,0.375,1.053,0.57c0.31,0.173,0.596,0.378,0.835,0.634c0.734,0.78,0.745,1.899-0.009,2.661
		c-0.701,0.71-1.569,1.004-2.601,0.798C42.528,57.809,41.605,57.203,41.139,56.495z"/>
	<path fill-rule="evenodd" clip-rule="evenodd" fill="#232422" d="M37.369,50.603c1.086,2.47,2.15,4.887,3.225,7.329
		c-0.625,0-1.215-0.001-1.805,0.001c-0.09,0-0.127-0.04-0.158-0.112c-0.1-0.231-0.212-0.457-0.308-0.692
		c-0.047-0.114-0.119-0.15-0.248-0.148c-0.627,0.005-1.255,0.005-1.881,0c-0.13-0.002-0.2,0.038-0.245,0.151
		c-0.089,0.228-0.191,0.447-0.288,0.672c-0.028,0.063-0.048,0.129-0.146,0.129c-0.449-0.001-0.898,0-1.381,0
		C35.211,55.488,36.276,53.078,37.369,50.603z M37.14,54.44c-0.189,0.458-0.392,0.857-0.55,1.287c0.384,0,0.73,0,1.113,0
		C37.516,55.299,37.337,54.89,37.14,54.44z"/>
	<path fill-rule="evenodd" clip-rule="evenodd" fill="#232422" d="M51.622,54.287c0-1.129,0.001-2.26,0-3.39
		c0-0.235-0.018-0.229,0.236-0.229c0.425,0.002,0.849,0,1.273,0.002c0.292,0,0.271-0.035,0.271,0.245
		c0.001,1.138,0.001,2.275,0.001,3.415c0,0.716-0.001,1.432,0,2.147c0.001,0.206,0.002,0.208,0.229,0.209
		c0.72,0.001,1.438-0.001,2.157,0.001c0.265,0,0.27-0.043,0.248,0.257c-0.019,0.24-0.04,0.481-0.062,0.722
		c-0.024,0.265-0.025,0.265-0.302,0.265c-1.124,0-2.25,0-3.374,0c-0.157,0-0.314,0.002-0.47,0c-0.204-0.002-0.207-0.004-0.207-0.203
		c-0.001-1.025-0.001-2.053-0.001-3.079C51.622,54.529,51.622,54.409,51.622,54.287z"/>
	<path fill-rule="evenodd" clip-rule="evenodd" fill="#232422" d="M59.185,54.324c0,1.104,0,2.207,0,3.312
		c0,0.044-0.006,0.087,0.001,0.13c0.023,0.146-0.059,0.171-0.193,0.169c-0.304-0.007-0.608-0.003-0.912-0.003
		c-0.176,0-0.351-0.005-0.526,0.002c-0.123,0.005-0.165-0.042-0.154-0.151c0.005-0.042,0.001-0.086,0.001-0.129
		c0-2.233-0.001-4.467,0-6.701c0-0.33-0.028-0.279,0.315-0.281c0.415-0.003,0.83-0.002,1.245,0c0.22,0,0.223,0.002,0.223,0.214
		C59.185,52.031,59.185,53.178,59.185,54.324z"/>
	<path fill-rule="evenodd" clip-rule="evenodd" fill="#232422" d="M30.684,62.562c0,0.479,0,0.916,0,1.353
		c0,0.268-0.008,0.536,0.003,0.803c0.005,0.134-0.05,0.165-0.177,0.154c-0.108-0.008-0.22,0.024-0.213-0.148
		c0.013-0.346,0.003-0.69,0.003-1.035c0-0.502-0.001-1.002,0-1.502c0-0.183,0.005-0.171,0.197-0.19
		c0.19-0.018,0.3,0.051,0.398,0.201c0.446,0.681,0.947,1.328,1.396,2.028c0-0.062,0-0.125,0-0.188
		c-0.004-0.62-0.009-1.242-0.01-1.863c0-0.064-0.037-0.153,0.062-0.178c0.088-0.021,0.186-0.023,0.273,0.005
		c0.063,0.021,0.047,0.088,0.047,0.138c0.001,0.24,0,0.482,0,0.725c0,0.595,0.002,1.19-0.003,1.786
		c-0.001,0.074,0.063,0.204-0.074,0.211c-0.133,0.009-0.298,0.079-0.403-0.075c-0.02-0.03-0.04-0.059-0.059-0.088
		c-0.458-0.688-0.955-1.353-1.373-2.063C30.744,62.619,30.729,62.609,30.684,62.562z"/>
	<path fill-rule="evenodd" clip-rule="evenodd" fill="#232422" d="M62.908,64.221c0-0.169,0-0.336,0-0.505
		c0-0.519-0.001-1.036,0-1.554c0-0.057-0.027-0.14,0.048-0.161c0.094-0.027,0.203-0.037,0.296,0.009
		c0.068,0.033,0.037,0.108,0.037,0.165c0.002,0.579,0.001,1.157,0.001,1.735c0,0.268-0.007,0.536,0.003,0.803
		c0.005,0.13-0.046,0.156-0.175,0.161c-0.173,0.008-0.281-0.035-0.378-0.185c-0.442-0.687-0.941-1.34-1.354-2.044
		c-0.012-0.02-0.019-0.05-0.085-0.042c0,0.057,0,0.12,0,0.184c0.003,0.638,0.006,1.277,0.007,1.916c0,0.056,0.032,0.139-0.047,0.157
		c-0.097,0.022-0.202,0.022-0.301-0.006c-0.017-0.004-0.028-0.043-0.031-0.065c-0.005-0.052-0.003-0.104-0.003-0.155
		c0-0.803-0.002-1.604,0.003-2.407c0-0.075-0.063-0.202,0.069-0.216c0.145-0.017,0.313-0.075,0.435,0.068
		c0.022,0.027,0.041,0.057,0.061,0.086C61.957,62.85,62.46,63.51,62.908,64.221z"/>
	<path fill-rule="evenodd" clip-rule="evenodd" fill="#232422" d="M68.012,62.556c0,0.675,0,1.304,0,1.931
		c0,0.069,0.001,0.138-0.001,0.208c-0.004,0.179-0.005,0.17-0.203,0.179c-0.15,0.007-0.184-0.049-0.183-0.179
		c0.006-0.837,0.002-1.674,0.004-2.512c0-0.18,0.004-0.173,0.198-0.188c0.173-0.012,0.285,0.03,0.383,0.18
		c0.44,0.679,0.943,1.32,1.343,2.022c0.012,0.018,0.02,0.029,0.046,0.022c0.048-0.035,0.021-0.088,0.021-0.135
		c-0.003-0.629-0.009-1.259-0.012-1.888c-0.001-0.195,0.114-0.268,0.313-0.204c0.039,0.013,0.064,0.032,0.066,0.07
		c0.003,0.052,0.004,0.104,0.004,0.155c0,0.812,0.002,1.622-0.003,2.434c0,0.074,0.063,0.203-0.077,0.209
		c-0.133,0.006-0.299,0.081-0.401-0.079c-0.014-0.022-0.029-0.044-0.044-0.066c-0.457-0.688-0.957-1.353-1.372-2.064
		C68.081,62.632,68.063,62.615,68.012,62.556z"/>
	<path fill-rule="evenodd" clip-rule="evenodd" fill="#232422" d="M74.595,63.359c0.039,0.245,0.012,0.478,0.019,0.708
		c0.004,0.094,0.001,0.19,0.001,0.283c0,0.438,0.001,0.44-0.466,0.51c-0.292,0.045-0.583,0.058-0.879,0.014
		c-0.657-0.099-1.12-0.525-1.216-1.139c-0.155-0.999,0.523-1.746,1.605-1.768c0.241-0.005,0.476,0.021,0.711,0.075
		c0.126,0.031,0.16,0.083,0.118,0.201c-0.037,0.104-0.064,0.164-0.209,0.118c-0.301-0.098-0.612-0.104-0.925-0.036
		c-0.49,0.108-0.817,0.451-0.87,0.92c-0.021,0.181-0.018,0.363,0.028,0.54c0.137,0.519,0.609,0.824,1.228,0.802
		c0.479-0.018,0.481-0.018,0.477-0.468c-0.001-0.145,0.066-0.326-0.031-0.426c-0.099-0.099-0.295-0.033-0.448-0.033
		c-0.123,0-0.157-0.044-0.157-0.151c-0.001-0.105,0.025-0.156,0.152-0.152C74.018,63.363,74.303,63.359,74.595,63.359z"/>
	<path fill-rule="evenodd" clip-rule="evenodd" fill="#232422" d="M37.265,64.067c0,0.181-0.006,0.361,0.002,0.542
		c0.005,0.107-0.044,0.15-0.147,0.179c-0.441,0.116-0.887,0.161-1.337,0.063c-0.758-0.168-1.213-0.839-1.096-1.603
		c0.115-0.74,0.674-1.217,1.501-1.274c0.287-0.021,0.568,0.004,0.848,0.076c0.156,0.041,0.115,0.115,0.089,0.213
		c-0.03,0.11-0.074,0.142-0.192,0.102c-0.192-0.066-0.394-0.087-0.598-0.079c-0.96,0.032-1.313,0.686-1.205,1.366
		c0.098,0.617,0.59,0.969,1.274,0.936c0.468-0.022,0.469-0.022,0.468-0.454c-0.001-0.146,0.048-0.328-0.027-0.43
		c-0.083-0.112-0.292-0.033-0.445-0.044c-0.17-0.013-0.185-0.028-0.179-0.183c0.002-0.07,0.018-0.117,0.105-0.117
		c0.276,0.001,0.553,0.001,0.83,0c0.106,0,0.111,0.063,0.11,0.138C37.264,63.688,37.265,63.877,37.265,64.067z"/>
	<path fill-rule="evenodd" clip-rule="evenodd" fill="#232422" d="M26.449,62.024c0.405-0.064,0.816-0.099,1.227-0.006
		c0.393,0.088,0.638,0.334,0.678,0.665c0.05,0.423-0.127,0.745-0.51,0.919c-0.256,0.117-0.53,0.136-0.809,0.129
		c-0.188-0.005-0.191,0-0.192,0.181c-0.002,0.268-0.011,0.535,0.003,0.803c0.009,0.165-0.089,0.159-0.207,0.155
		c-0.106-0.004-0.219,0.031-0.218-0.143c0.008-0.882,0.005-1.762,0.007-2.643C26.427,62.069,26.438,62.052,26.449,62.024z
		 M26.841,62.856L26.841,62.856c0,0.147,0.001,0.293,0,0.438c0,0.068,0.019,0.119,0.104,0.124c0.22,0.008,0.441,0.025,0.649-0.063
		c0.234-0.1,0.374-0.32,0.356-0.562c-0.018-0.242-0.16-0.403-0.421-0.483c-0.18-0.055-0.363-0.032-0.546-0.032
		c-0.105,0-0.147,0.044-0.144,0.143C26.844,62.565,26.841,62.71,26.841,62.856z"/>
	<path fill-rule="evenodd" clip-rule="evenodd" fill="#232422" d="M41.402,62.024c0.405-0.064,0.816-0.099,1.227-0.006
		c0.393,0.088,0.638,0.333,0.677,0.665c0.051,0.422-0.127,0.745-0.509,0.919c-0.256,0.117-0.53,0.136-0.81,0.129
		c-0.188-0.005-0.19,0-0.192,0.181c-0.002,0.268-0.011,0.535,0.004,0.803c0.009,0.165-0.09,0.159-0.208,0.155
		c-0.106-0.004-0.22,0.031-0.218-0.143c0.008-0.882,0.005-1.762,0.007-2.643C41.38,62.069,41.391,62.052,41.402,62.024z
		 M41.795,62.851c0,0.146,0,0.293,0,0.438c0,0.064,0.011,0.122,0.098,0.127c0.229,0.012,0.459,0.027,0.675-0.069
		c0.219-0.101,0.352-0.316,0.337-0.548c-0.015-0.242-0.156-0.405-0.417-0.487c-0.17-0.054-0.344-0.033-0.518-0.036
		c-0.125-0.002-0.187,0.038-0.179,0.163C41.801,62.576,41.795,62.714,41.795,62.851z"/>
	<path fill-rule="evenodd" clip-rule="evenodd" fill="#232422" d="M51.271,63.422c0-0.406-0.001-0.812,0.001-1.217
		c0-0.204,0.003-0.206,0.229-0.207c0.433-0.001,0.866,0.005,1.299-0.003c0.137-0.002,0.175,0.044,0.174,0.166
		c0,0.126-0.049,0.162-0.181,0.158c-0.313-0.006-0.626,0.004-0.939-0.004c-0.147-0.004-0.19,0.048-0.184,0.181
		c0.011,0.188,0.009,0.379,0.001,0.568c-0.005,0.11,0.034,0.151,0.156,0.148c0.303-0.005,0.608,0.006,0.911-0.004
		c0.151-0.006,0.157,0.063,0.16,0.171c0.004,0.114-0.04,0.147-0.158,0.145c-0.304-0.006-0.608,0.003-0.912-0.004
		c-0.122-0.002-0.161,0.038-0.157,0.15c0.007,0.24,0.008,0.481-0.001,0.724c-0.004,0.124,0.039,0.165,0.173,0.162
		c0.332-0.007,0.664-0.003,0.996-0.001c0.208,0,0.218,0.017,0.206,0.204c-0.004,0.074-0.03,0.11-0.111,0.11
		c-0.517,0-1.032-0.002-1.549,0c-0.134,0.001-0.114-0.08-0.114-0.156C51.271,64.283,51.271,63.853,51.271,63.422z"/>
	<path fill-rule="evenodd" clip-rule="evenodd" fill="#232422" d="M47.395,63.449c0-0.422,0.003-0.845-0.002-1.269
		c-0.002-0.112,0.023-0.167,0.16-0.181c0.359-0.036,0.716-0.065,1.072,0.015c0.416,0.093,0.654,0.335,0.698,0.705
		c0.047,0.385-0.15,0.724-0.525,0.888c-0.23,0.101-0.474,0.13-0.727,0.124c-0.272-0.007-0.272-0.002-0.273,0.262
		c0,0.233,0.001,0.466-0.001,0.698c-0.001,0.179-0.004,0.179-0.201,0.179c-0.196,0-0.199,0-0.2-0.179
		C47.394,64.278,47.395,63.864,47.395,63.449z M47.797,62.845c0,0.146,0,0.292,0,0.438c0,0.064,0.007,0.127,0.094,0.132
		c0.248,0.013,0.498,0.034,0.726-0.091c0.235-0.129,0.31-0.329,0.287-0.57c-0.022-0.223-0.156-0.357-0.375-0.434
		c-0.206-0.07-0.417-0.047-0.628-0.038c-0.083,0.004-0.104,0.056-0.104,0.124C47.798,62.553,47.797,62.699,47.797,62.845z"/>
	<path fill-rule="evenodd" clip-rule="evenodd" fill="#232422" d="M55.094,63.424c0-0.403-0.002-0.808,0-1.213
		c0.001-0.212,0.003-0.212,0.194-0.212c0.203-0.001,0.206-0.001,0.207,0.201c0.001,0.682,0,1.361,0,2.041
		c0,0.061,0.005,0.121,0,0.181c-0.009,0.103,0.04,0.135,0.146,0.134c0.331-0.003,0.662-0.002,0.993,0
		c0.205,0,0.216,0.016,0.203,0.204c-0.005,0.069-0.021,0.111-0.108,0.11c-0.507-0.001-1.014-0.003-1.519,0.001
		c-0.133,0-0.116-0.077-0.116-0.154C55.094,64.286,55.094,63.855,55.094,63.424z"/>
	<path fill-rule="evenodd" clip-rule="evenodd" fill="#232422" d="M45.253,63.443c0-0.422-0.001-0.845,0.002-1.269
		c0-0.06-0.042-0.152,0.067-0.168c0.107-0.015,0.222-0.034,0.323,0.021c0.042,0.022,0.025,0.079,0.025,0.119
		c0.001,0.854-0.001,1.707,0.003,2.56c0.001,0.121-0.032,0.168-0.169,0.167c-0.25-0.003-0.251,0.006-0.251-0.24
		C45.253,64.235,45.253,63.84,45.253,63.443z"/>
	<path fill-rule="evenodd" clip-rule="evenodd" fill="#232422" d="M59.206,63.45c0,0.422-0.011,0.846,0.005,1.268
		c0.006,0.172-0.097,0.151-0.208,0.152c-0.115,0.001-0.206,0.013-0.204-0.154c0.011-0.853,0.011-1.708,0-2.562
		c-0.002-0.167,0.09-0.155,0.206-0.156c0.117-0.001,0.21-0.008,0.205,0.157C59.196,62.587,59.206,63.019,59.206,63.45z"/>
	<path fill-rule="evenodd" clip-rule="evenodd" fill="#232422" d="M65.906,63.442c0,0.414,0.002,0.828,0,1.241
		c-0.001,0.186-0.004,0.186-0.194,0.187c-0.202,0.001-0.206,0.001-0.207-0.172c-0.001-0.837-0.001-1.674,0.002-2.512
		c0-0.063-0.04-0.156,0.054-0.177c0.097-0.021,0.205-0.02,0.302,0.004c0.071,0.017,0.043,0.103,0.043,0.16
		C65.907,62.597,65.906,63.02,65.906,63.442z"/>
	<polygon fill-rule="evenodd" clip-rule="evenodd" fill="#EEAC2E" points="41.479,4.771 41.485,4.764 41.479,4.77 	"/>
	<path fill-rule="evenodd" clip-rule="evenodd" fill="#FFFFFF" d="M37.14,54.44c0.197,0.449,0.376,0.858,0.563,1.287
		c-0.383,0-0.729,0-1.113,0C36.749,55.298,36.951,54.898,37.14,54.44z"/>
	<path fill-rule="evenodd" clip-rule="evenodd" fill="#FFFFFF" d="M26.841,62.856c0-0.146,0.003-0.291-0.001-0.437
		c-0.003-0.099,0.039-0.143,0.144-0.143c0.183,0,0.366-0.022,0.546,0.032c0.261,0.08,0.404,0.241,0.421,0.483
		c0.018,0.241-0.122,0.462-0.356,0.562c-0.208,0.089-0.429,0.071-0.649,0.063c-0.085-0.005-0.104-0.056-0.104-0.124
		C26.842,63.149,26.842,63.004,26.841,62.856L26.841,62.856z"/>
	<path fill-rule="evenodd" clip-rule="evenodd" fill="#FFFFFF" d="M41.795,62.851c0-0.137,0.006-0.274-0.002-0.412
		c-0.008-0.125,0.053-0.165,0.179-0.163c0.173,0.003,0.347-0.018,0.518,0.036c0.26,0.082,0.401,0.245,0.417,0.487
		c0.014,0.231-0.118,0.447-0.337,0.548c-0.216,0.097-0.446,0.081-0.675,0.069c-0.087-0.005-0.098-0.063-0.098-0.127
		C41.795,63.144,41.795,62.997,41.795,62.851z"/>
	<path fill-rule="evenodd" clip-rule="evenodd" fill="#FFFFFF" d="M47.797,62.845c0-0.146,0.001-0.292,0-0.438
		c-0.001-0.068,0.02-0.12,0.104-0.124c0.211-0.009,0.422-0.032,0.628,0.038c0.218,0.076,0.353,0.211,0.375,0.434
		c0.023,0.241-0.051,0.441-0.287,0.57c-0.228,0.125-0.478,0.104-0.726,0.091c-0.086-0.005-0.094-0.067-0.094-0.132
		C47.797,63.137,47.797,62.99,47.797,62.845z"/>
</g>
</svg>
