<?xml version="1.0" encoding="utf-8"?>
<!-- Generator: Adobe Illustrator 16.0.0, SVG Export Plug-In . SVG Version: 6.00 Build 0)  -->
<!DOCTYPE svg PUBLIC "-//W3C//DTD SVG 1.1//EN" "http://www.w3.org/Graphics/SVG/1.1/DTD/svg11.dtd">
<svg version="1.1" id="Layer_1" xmlns="http://www.w3.org/2000/svg" xmlns:xlink="http://www.w3.org/1999/xlink" x="0px" y="0px"
	 width="60px" height="56px" viewBox="0 0 60 56" enable-background="new 0 0 60 56" xml:space="preserve">
<g>
	<path fill="#FFFFFF" d="M53.026,52.754c-15.781,0-31.562,0-47.343,0c0-16.813,0-33.626,0-50.439c15.781,0,31.562,0,47.343,0
		C53.026,19.128,53.026,35.94,53.026,52.754z M31.25,8.319c-0.254,0.732-0.227,1.456,0.098,2.161
		c0.58,1.254,2.021,1.998,3.444,1.848c0.828-0.088,1.522-0.419,2.094-0.991c0.135-0.137,0.279-0.272,0.328-0.466
		c0.081-0.04,0.123-0.112,0.162-0.186c0.553-1.05,0.551-2.1-0.119-3.089c-0.752-1.113-1.872-1.588-3.247-1.445
		c-1.277,0.132-2.166,0.804-2.685,1.917C31.287,8.148,31.246,8.228,31.25,8.319z M27.345,7.892c-0.039-0.16-0.165-0.269-0.255-0.397
		c-0.228-0.32-0.51-0.592-0.841-0.81c-0.712-0.469-1.504-0.643-2.365-0.539c-0.862,0.106-1.572,0.479-2.131,1.111
		c-0.448,0.507-0.702,1.096-0.758,1.755c-0.035,0.411-0.019,0.82,0.142,1.211c0.142,0.513,0.447,0.93,0.865,1.269
		c0.909,0.738,1.969,0.967,3.129,0.771c0.744-0.126,1.373-0.474,1.834-1.054c0.573-0.716,0.797-1.531,0.683-2.424
		C27.608,8.472,27.525,8.165,27.345,7.892z M19.775,27.667c-0.182-0.68-0.328-1.368-0.377-2.069
		c-0.067-0.938-0.022-1.874,0.196-2.798c0.051-0.217,0.097-0.435,0.178-0.643c0.078-0.2,0.152-0.402,0.208-0.609
		c0.017-0.034,0.035-0.067,0.049-0.103c0.219-0.571,0.467-1.13,0.782-1.661c0.162-0.271,0.339-0.529,0.545-0.771
		c0.057-0.066,0.109-0.083,0.18-0.021c0.077,0.07,0.16,0.134,0.235,0.205c0.656,0.63,1.322,1.25,1.987,1.87
		c1.382,1.29,2.756,2.587,4.135,3.88c0.431,0.404,0.864,0.808,1.322,1.185c0.168,0.138,0.169,0.137,0.335-0.017
		c0.857-0.797,1.715-1.591,2.57-2.387c1.442-1.34,2.884-2.681,4.324-4.022c0.281-0.26,0.563-0.519,0.852-0.787
		c0.175,0.161,0.306,0.334,0.425,0.515c0.138,0.208,0.266,0.422,0.398,0.633c0.012,0.03,0.02,0.061,0.034,0.088
		c0.345,0.665,0.614,1.357,0.826,2.069c0.228,0.761,0.392,1.533,0.395,2.329c0.003,0.278,0.003,0.556,0.005,0.835
		c-0.037,0.307-0.062,0.617-0.109,0.921c-0.139,0.872-0.38,1.718-0.711,2.541c-0.3,0.747-0.648,1.469-1.072,2.158
		c-0.152,0.25-0.298,0.503-0.446,0.754c-0.023,0.023-0.051,0.041-0.068,0.067c-0.179,0.281-0.371,0.55-0.568,0.818
		c-0.527,0.721-1.098,1.409-1.695,2.079c-0.654,0.733-1.349,1.436-2.055,2.125c-0.157,0.152-0.297,0.326-0.503,0.429
		c-0.046,0.021-0.079,0.054-0.055,0.105c0.022,0.052,0.075,0.041,0.122,0.034c0.211-0.027,0.422-0.049,0.632-0.084
		c0.974-0.159,1.911-0.438,2.829-0.779c1.072-0.399,2.132-0.829,3.111-1.41c1.713-1.015,3.237-2.237,4.52-3.729
		c1.306-1.521,2.329-3.187,2.979-5.056c0.361-1.035,0.612-2.095,0.775-3.173c0.075-0.495,0.152-0.99,0.165-1.491
		c0.031-1.122-0.038-2.239-0.232-3.347c-0.158-0.906-0.387-1.796-0.701-2.665c-0.453-1.258-1.061-2.445-1.822-3.558
		c-0.788-1.149-1.679-2.22-2.755-3.141c-1.084-0.925-2.236-1.759-3.514-2.427c-0.854-0.445-1.725-0.849-2.646-1.15
		c-0.109-0.036-0.22-0.083-0.362-0.083c0.834,0.359,1.596,0.796,2.326,1.285c1.305,0.875,2.445,1.913,3.396,3.135
		c0.301,0.388,0.567,0.796,0.848,1.196c0.021,0.04,0.039,0.08,0.063,0.118c0.507,0.822,0.913,1.688,1.24,2.586
		c0.262,0.718,0.463,1.451,0.618,2.198c0.136,0.646,0.225,1.295,0.262,1.95c0.042,0.74,0.012,1.48-0.116,2.212
		c-0.051,0.29-0.131,0.576-0.196,0.865c-0.007,0.033-0.017,0.064-0.053,0.07c-0.028,0.004-0.049-0.014-0.056-0.042
		c-0.046-0.213-0.16-0.4-0.236-0.602c-0.296-0.771-0.618-1.53-1.089-2.225c-0.17-0.251-0.318-0.515-0.483-0.768
		c-0.234-0.363-0.512-0.698-0.785-1.033c-0.238-0.306-0.528-0.566-0.812-0.835c-0.573-0.544-1.124-1.112-1.799-1.553
		c-0.4-0.26-0.781-0.55-1.205-0.774c-0.166-0.088-0.172-0.091-0.303,0.041c-0.133,0.135-0.285,0.246-0.432,0.366
		c-0.162,0.13-0.32,0.266-0.461,0.419c-0.055,0.046-0.11,0.091-0.162,0.139c-0.89,0.846-1.748,1.721-2.627,2.579
		c-0.4,0.39-0.801,0.78-1.22,1.148c-0.382,0.334-0.772,0.659-1.134,1.014c-0.418,0.408-0.827,0.825-1.266,1.215
		c-0.119,0.105-0.121,0.104-0.236,0c-0.393-0.361-0.787-0.72-1.177-1.084c-0.782-0.73-1.584-1.441-2.346-2.19
		c-0.921-0.906-1.848-1.807-2.795-2.688c-0.205-0.19-0.399-0.389-0.629-0.553c-0.133-0.177-0.33-0.284-0.502-0.418
		c-0.051-0.039-0.111-0.036-0.167-0.004c-0.17,0.097-0.343,0.189-0.508,0.291c-0.616,0.377-1.175,0.821-1.717,1.285
		c-1.227,1.053-2.265,2.248-3.048,3.635c-0.21,0.373-0.405,0.754-0.556,1.155c-0.254,0.488-0.425,1.01-0.667,1.504
		c-0.049-0.014-0.042-0.052-0.049-0.08c-0.205-0.727-0.247-1.472-0.276-2.217c-0.024-0.639,0.021-1.278,0.082-1.915
		c0.085-0.886,0.292-1.752,0.554-2.605c0.245-0.8,0.571-1.57,0.975-2.309c0.148-0.272,0.293-0.545,0.466-0.803
		c0.163-0.241,0.313-0.49,0.468-0.736c0.05-0.04,0.098-0.079,0.137-0.132c0.241-0.333,0.498-0.656,0.774-0.965
		c1.088-1.219,2.316-2.28,3.774-3.09c0.441-0.245,0.875-0.502,1.313-0.754l0.005-0.004l-0.006,0.005
		c-0.191,0.034-0.362,0.121-0.54,0.19c-0.602,0.233-1.222,0.425-1.779,0.759c-0.698,0.417-1.432,0.776-2.12,1.214
		c-1.087,0.692-2.038,1.535-2.914,2.444c-1.563,1.623-2.733,3.484-3.522,5.558c-0.558,1.467-0.889,2.98-0.978,4.535
		c-0.075,1.313,0.006,2.617,0.262,3.911c0.281,1.42,0.732,2.786,1.391,4.086c1.407,2.776,3.508,4.98,6.167,6.717
		c1.097,0.717,2.287,1.266,3.529,1.711c1.057,0.383,2.125,0.73,3.248,0.897c0.17,0.025,0.343,0.059,0.551,0.031
		c-0.105-0.104-0.187-0.185-0.268-0.268c-0.135-0.139-0.263-0.282-0.401-0.417c-0.107-0.104-0.23-0.192-0.341-0.291
		c-0.438-0.399-0.826-0.844-1.229-1.272c-0.4-0.427-0.785-0.868-1.165-1.313c-0.308-0.359-0.592-0.735-0.872-1.113
		c-0.252-0.341-0.489-0.694-0.731-1.041c-0.04-0.1-0.097-0.191-0.155-0.283c-0.475-0.754-0.888-1.536-1.239-2.349
		C20.08,28.607,19.926,28.138,19.775,27.667z M16.265,40.403c0.121-0.255,0.233-0.489,0.343-0.727
		c0.066-0.139,0.065-0.141-0.06-0.222c-0.465-0.311-0.984-0.48-1.548-0.491c-1.233-0.024-2.145,0.504-2.743,1.517
		c-0.346,0.586-0.438,1.217-0.235,1.87c0.34,1.089,1.09,1.798,2.259,2.023c1.171,0.226,2.162-0.143,2.951-0.999
		c0.062-0.067,0.08-0.138,0.08-0.224c-0.002-0.588,0-1.179-0.001-1.767c0-0.154-0.002-0.156-0.162-0.156
		c-0.552-0.001-1.104,0-1.657,0c-0.267,0-0.533,0-0.799-0.001c-0.071,0-0.13,0-0.135,0.095c-0.015,0.239-0.033,0.479-0.056,0.718
		c-0.007,0.076,0.017,0.104,0.096,0.104c0.153-0.007,0.307-0.002,0.46-0.002c0.386,0,0.771,0.002,1.158-0.001
		c0.084,0,0.119,0.024,0.116,0.107c-0.005,0.151-0.009,0.303,0.001,0.454c0.007,0.107-0.038,0.179-0.121,0.243
		c-0.472,0.371-1.007,0.503-1.604,0.377c-0.801-0.166-1.423-0.887-1.405-1.635c0.026-1.085,1.095-1.813,2.08-1.687
		C15.642,40.045,15.959,40.177,16.265,40.403z M41.717,44.513c0-0.111,0-0.176,0-0.239c0-0.626,0-1.252,0-1.88
		c0-1.052,0.001-2.104,0-3.153c0-0.237,0.032-0.207-0.227-0.208c-0.279-0.002-0.559-0.002-0.839,0
		c-0.244,0.001-0.216-0.033-0.216,0.197c-0.001,0.779,0,1.559-0.002,2.338c0,0.046,0.023,0.1-0.035,0.146
		c-1.03-0.901-2.061-1.801-3.112-2.721c-0.004,0.071-0.007,0.103-0.007,0.134c-0.001,1.69-0.001,3.381-0.001,5.073
		c0,0.019,0.003,0.039,0,0.056c-0.013,0.088,0.034,0.107,0.115,0.105c0.333-0.003,0.666-0.001,1-0.001
		c0.188,0,0.167,0.003,0.167-0.168c0-0.748,0-1.495,0.001-2.242c0-0.053-0.018-0.109,0.029-0.168
		C39.626,42.683,40.653,43.582,41.717,44.513z M44.161,41.187c0-0.63,0-1.237,0-1.845c0-0.076-0.002-0.152,0-0.229
		c0.001-0.053-0.017-0.084-0.078-0.084c-0.373,0.001-0.746,0.001-1.119,0.001c-0.055-0.001-0.087,0.018-0.085,0.076
		c0.001,0.05,0,0.102,0,0.152c0,1.196,0,2.394,0,3.591c0,0.437-0.002,0.874,0,1.313c0.001,0.212-0.032,0.196,0.196,0.196
		c0.3,0.002,0.6,0.002,0.898,0c0.206,0,0.187,0.017,0.188-0.168c0-0.267,0.018-0.533-0.005-0.798
		c-0.024-0.282,0.164-0.458,0.294-0.689c0.05,0.08,0.084,0.134,0.118,0.188c0.278,0.446,0.558,0.892,0.83,1.34
		c0.057,0.094,0.116,0.135,0.233,0.133c0.346-0.01,0.693-0.003,1.039-0.005c0.04,0,0.093,0.024,0.124-0.037
		c-0.03-0.052-0.063-0.107-0.096-0.161c-0.496-0.803-0.992-1.604-1.492-2.401c-0.071-0.111-0.072-0.191-0.002-0.304
		c0.467-0.736,0.924-1.479,1.384-2.22c0.036-0.059,0.085-0.111,0.096-0.181c-0.058-0.037-0.111-0.021-0.162-0.021
		c-0.274-0.001-0.547,0.007-0.819-0.004c-0.133-0.006-0.2,0.039-0.266,0.145c-0.375,0.619-0.759,1.233-1.141,1.851
		C44.266,41.076,44.246,41.139,44.161,41.187z M23.137,43.306c0.336,0.518,1.002,0.962,1.634,1.09
		c0.745,0.151,1.371-0.064,1.876-0.585c0.543-0.559,0.536-1.379,0.007-1.953c-0.173-0.188-0.379-0.338-0.602-0.464
		c-0.251-0.144-0.508-0.278-0.76-0.418c-0.149-0.082-0.296-0.17-0.419-0.288c-0.207-0.2-0.165-0.432,0.104-0.549
		c0.148-0.064,0.304-0.091,0.467-0.063c0.18,0.028,0.346,0.093,0.496,0.189c0.084,0.052,0.134,0.037,0.199-0.028
		c0.224-0.226,0.454-0.444,0.682-0.667c0.018-0.018,0.035-0.037,0.032-0.074c-0.285-0.239-0.625-0.395-0.996-0.484
		c-0.529-0.128-1.041-0.076-1.528,0.17c-0.915,0.465-1.083,1.668-0.298,2.33c0.205,0.174,0.428,0.321,0.664,0.452
		c0.241,0.133,0.486,0.259,0.727,0.394c0.121,0.067,0.237,0.141,0.322,0.251c0.133,0.175,0.125,0.344-0.027,0.5
		c-0.177,0.181-0.397,0.247-0.651,0.208c-0.186-0.03-0.354-0.104-0.507-0.211c-0.146-0.104-0.271-0.224-0.38-0.361
		c-0.032-0.038-0.058-0.087-0.127-0.041C23.748,42.903,23.442,43.104,23.137,43.306z M20.418,38.981
		c-0.789,1.817-1.556,3.586-2.334,5.377c0.349,0,0.672,0,0.997,0c0.072,0,0.085-0.047,0.105-0.095
		c0.07-0.165,0.144-0.325,0.208-0.493c0.032-0.083,0.083-0.111,0.177-0.11c0.452,0.003,0.904,0.003,1.357,0
		c0.093-0.001,0.145,0.024,0.179,0.109c0.069,0.172,0.15,0.338,0.222,0.507c0.022,0.053,0.049,0.082,0.114,0.082
		c0.425-0.002,0.85,0,1.302,0C21.969,42.567,21.201,40.793,20.418,38.981z M30.699,41.685c0,0.09,0,0.178,0,0.266
		c0,0.753,0,1.507,0.002,2.259c0,0.146,0.002,0.147,0.148,0.149c0.111,0.002,0.226,0,0.339,0c0.812,0,1.623,0,2.435,0
		c0.199,0,0.199,0,0.219-0.195c0.014-0.176,0.03-0.353,0.043-0.53c0.016-0.219,0.012-0.188-0.178-0.188
		c-0.52-0.001-1.039,0-1.557-0.001c-0.164,0-0.165-0.002-0.165-0.153c-0.001-0.524,0-1.051,0-1.575c0-0.837,0-1.671-0.001-2.505
		c0-0.206,0.016-0.181-0.195-0.181c-0.307-0.001-0.612,0-0.918-0.001c-0.184,0-0.17-0.005-0.17,0.167
		C30.701,40.026,30.699,40.856,30.699,41.685z M36.156,41.711c0-0.84,0-1.682-0.002-2.522c0-0.155-0.002-0.156-0.16-0.156
		c-0.3-0.002-0.6-0.003-0.898,0c-0.248,0.001-0.229-0.036-0.229,0.206c0,1.638,0,3.277,0,4.915c0,0.031,0.004,0.064,0,0.096
		c-0.008,0.079,0.023,0.114,0.111,0.111c0.128-0.007,0.253-0.002,0.379-0.002c0.221,0,0.439-0.003,0.658,0.002
		c0.098,0.001,0.157-0.017,0.141-0.124c-0.006-0.031-0.002-0.063-0.002-0.096C36.156,43.331,36.156,42.522,36.156,41.711z
		 M15.595,47.756c0.033,0.034,0.043,0.043,0.049,0.053c0.301,0.522,0.661,1.009,0.991,1.514c0.014,0.021,0.029,0.043,0.043,0.064
		c0.075,0.112,0.195,0.062,0.291,0.054c0.1-0.004,0.053-0.1,0.054-0.154c0.003-0.437,0.002-0.872,0.002-1.31
		c0-0.178,0-0.355,0-0.531c0-0.037,0.011-0.086-0.034-0.103c-0.063-0.02-0.134-0.018-0.197-0.003
		c-0.071,0.018-0.044,0.082-0.044,0.131c0,0.455,0.004,0.911,0.007,1.366c0,0.047,0,0.093,0,0.139
		c-0.324-0.515-0.686-0.989-1.007-1.489c-0.071-0.109-0.15-0.161-0.287-0.146c-0.139,0.015-0.142,0.006-0.143,0.14
		c0,0.366,0,0.733,0,1.102c0,0.254,0.007,0.506-0.002,0.76c-0.005,0.126,0.076,0.104,0.154,0.108
		c0.091,0.008,0.131-0.016,0.127-0.113c-0.008-0.196-0.002-0.392-0.002-0.589C15.595,48.428,15.595,48.106,15.595,47.756z
		 M38.841,48.973c-0.323-0.521-0.686-1.006-1.02-1.508c-0.015-0.021-0.027-0.044-0.044-0.063c-0.088-0.105-0.21-0.063-0.314-0.05
		c-0.096,0.011-0.049,0.104-0.049,0.157c-0.005,0.59-0.003,1.179-0.003,1.768c0,0.037-0.002,0.076,0.003,0.112
		c0.001,0.017,0.01,0.047,0.021,0.048c0.071,0.021,0.147,0.021,0.218,0.004c0.057-0.013,0.034-0.074,0.034-0.114
		c-0.001-0.469-0.003-0.937-0.006-1.405c0-0.046,0-0.093,0-0.135c0.048-0.006,0.053,0.016,0.062,0.03
		c0.297,0.518,0.657,0.996,0.978,1.5c0.069,0.109,0.147,0.141,0.271,0.136c0.093-0.004,0.13-0.022,0.126-0.119
		c-0.007-0.195-0.001-0.392-0.001-0.589c0-0.424,0.001-0.848-0.001-1.272c0-0.041,0.022-0.098-0.027-0.122
		c-0.066-0.032-0.146-0.024-0.213-0.005c-0.054,0.015-0.035,0.076-0.035,0.117c-0.001,0.38,0,0.76,0,1.141
		C38.841,48.726,38.841,48.85,38.841,48.973z M42.522,47.752c0.037,0.044,0.05,0.055,0.06,0.069c0.299,0.523,0.66,1.009,0.989,1.515
		c0.011,0.017,0.022,0.031,0.032,0.049c0.074,0.116,0.194,0.063,0.289,0.058c0.102-0.005,0.057-0.099,0.057-0.153
		c0.003-0.596,0.001-1.19,0.001-1.785c0-0.037,0-0.076-0.003-0.115c-0.001-0.026-0.019-0.041-0.048-0.05
		c-0.143-0.048-0.226,0.006-0.226,0.149c0.003,0.461,0.007,0.924,0.01,1.385c0,0.035,0.019,0.073-0.015,0.1
		c-0.02,0.004-0.026-0.004-0.034-0.016c-0.288-0.516-0.651-0.987-0.969-1.485c-0.071-0.108-0.151-0.14-0.276-0.132
		c-0.141,0.012-0.144,0.006-0.144,0.138c-0.001,0.615,0.002,1.229-0.003,1.843c0,0.096,0.024,0.138,0.133,0.132
		c0.143-0.005,0.144,0,0.146-0.132c0.002-0.05,0-0.102,0-0.151C42.522,48.707,42.522,48.246,42.522,47.752z M47.272,48.341
		c-0.212,0-0.417,0.003-0.623-0.002c-0.091-0.003-0.109,0.034-0.108,0.112c0,0.078,0.023,0.11,0.113,0.11
		c0.109,0,0.252-0.048,0.322,0.023c0.071,0.073,0.021,0.207,0.022,0.313c0.005,0.33,0.002,0.33-0.344,0.345
		c-0.446,0.015-0.787-0.208-0.886-0.589c-0.033-0.131-0.036-0.264-0.021-0.396c0.038-0.346,0.273-0.597,0.627-0.676
		c0.227-0.05,0.451-0.046,0.668,0.026c0.104,0.034,0.124-0.012,0.151-0.086c0.029-0.088,0.006-0.125-0.086-0.148
		c-0.17-0.041-0.339-0.059-0.513-0.056c-0.78,0.017-1.27,0.565-1.157,1.297c0.069,0.45,0.402,0.764,0.876,0.837
		c0.214,0.032,0.425,0.021,0.635-0.012c0.337-0.05,0.336-0.052,0.336-0.374c0-0.066,0.002-0.137-0.001-0.207
		C47.279,48.691,47.3,48.52,47.272,48.341z M20.343,48.859c0-0.14-0.001-0.278,0-0.418c0-0.054-0.003-0.101-0.08-0.101
		c-0.199,0-0.398,0-0.598,0c-0.063,0-0.075,0.034-0.076,0.086c-0.004,0.112,0.007,0.124,0.129,0.135
		c0.11,0.007,0.261-0.051,0.321,0.031c0.054,0.074,0.019,0.208,0.02,0.315c0.001,0.316,0,0.316-0.338,0.334
		c-0.494,0.024-0.849-0.234-0.919-0.688c-0.078-0.498,0.177-0.979,0.869-1.001c0.147-0.006,0.293,0.01,0.432,0.057
		c0.085,0.03,0.117,0.007,0.139-0.074c0.019-0.071,0.048-0.126-0.064-0.156c-0.202-0.054-0.405-0.07-0.612-0.056
		c-0.596,0.043-1,0.393-1.083,0.936c-0.085,0.561,0.243,1.052,0.791,1.175c0.324,0.073,0.646,0.04,0.964-0.045
		c0.075-0.021,0.11-0.053,0.106-0.132C20.338,49.125,20.343,48.993,20.343,48.859z M12.541,47.36
		c-0.008,0.021-0.015,0.033-0.015,0.046c-0.002,0.646,0,1.291-0.005,1.938c0,0.128,0.081,0.103,0.158,0.104
		c0.084,0.003,0.156,0.008,0.149-0.113c-0.01-0.196-0.003-0.392-0.002-0.589c0-0.133,0.003-0.138,0.139-0.133
		c0.201,0.004,0.398-0.009,0.583-0.095c0.276-0.127,0.404-0.364,0.368-0.675c-0.029-0.242-0.206-0.423-0.489-0.487
		C13.129,47.289,12.833,47.314,12.541,47.36z M23.327,47.36c-0.008,0.021-0.016,0.033-0.016,0.046c0,0.646,0.001,1.291-0.005,1.938
		c0,0.128,0.081,0.103,0.157,0.104c0.084,0.003,0.156,0.008,0.15-0.113c-0.01-0.196-0.004-0.392-0.002-0.589
		c0.001-0.133,0.002-0.138,0.138-0.133c0.202,0.004,0.4-0.009,0.584-0.095c0.275-0.127,0.404-0.365,0.367-0.675
		c-0.028-0.243-0.205-0.423-0.488-0.487C23.916,47.289,23.62,47.314,23.327,47.36z M30.447,48.386c0,0.317,0,0.632,0,0.949
		c0,0.056-0.016,0.114,0.081,0.114c0.374-0.001,0.745,0,1.117,0c0.06,0,0.078-0.026,0.08-0.082c0.009-0.137,0.001-0.148-0.148-0.148
		c-0.239-0.001-0.479-0.004-0.718,0c-0.098,0.003-0.128-0.027-0.125-0.118c0.006-0.179,0.005-0.354,0-0.53
		c-0.002-0.084,0.025-0.112,0.114-0.111c0.22,0.005,0.438-0.001,0.657,0.004c0.086,0.001,0.117-0.021,0.115-0.106
		c-0.004-0.079-0.008-0.131-0.116-0.126c-0.219,0.007-0.438,0-0.657,0.003c-0.088,0.003-0.116-0.027-0.113-0.109
		c0.006-0.138,0.008-0.279,0-0.415c-0.006-0.098,0.025-0.137,0.133-0.134c0.226,0.006,0.451-0.001,0.678,0.003
		c0.095,0.003,0.131-0.023,0.131-0.116c0-0.088-0.027-0.123-0.127-0.122c-0.313,0.006-0.625,0.002-0.937,0.003
		c-0.164,0-0.165,0.002-0.165,0.152C30.447,47.79,30.447,48.088,30.447,48.386z M27.65,48.406c0,0.306-0.001,0.607,0,0.911
		c0,0.132,0.003,0.132,0.144,0.132c0.142,0,0.144,0,0.145-0.132c0.001-0.17,0-0.341,0.001-0.512c0-0.194,0-0.197,0.197-0.193
		c0.183,0.005,0.358-0.015,0.524-0.09c0.271-0.12,0.414-0.369,0.379-0.652c-0.032-0.271-0.205-0.448-0.504-0.518
		c-0.257-0.059-0.514-0.037-0.774-0.01c-0.098,0.01-0.117,0.049-0.115,0.132C27.652,47.786,27.65,48.097,27.65,48.406z
		 M33.203,48.388c0,0.317,0,0.633,0,0.948c0,0.058-0.012,0.113,0.084,0.113c0.365-0.002,0.731-0.001,1.097,0
		c0.063,0,0.075-0.029,0.077-0.082c0.01-0.137,0.002-0.148-0.146-0.148c-0.238-0.001-0.477-0.003-0.717,0
		c-0.074,0-0.11-0.022-0.104-0.099c0.004-0.044,0-0.088,0-0.132c0-0.5,0-0.997,0-1.497c-0.001-0.149-0.004-0.149-0.15-0.148
		c-0.137,0-0.139,0-0.141,0.155C33.203,47.796,33.203,48.093,33.203,48.388z M26.105,48.402c0,0.291,0,0.58,0,0.872
		c0,0.181,0.001,0.174,0.181,0.177c0.099,0,0.123-0.035,0.122-0.123c-0.002-0.626-0.001-1.251-0.002-1.879
		c0-0.028,0.013-0.07-0.018-0.087c-0.073-0.041-0.156-0.024-0.233-0.015c-0.079,0.012-0.048,0.078-0.048,0.123
		C26.104,47.783,26.105,48.093,26.105,48.402z M36.17,48.407c0-0.317-0.008-0.633,0.004-0.95c0.004-0.121-0.063-0.115-0.148-0.115
		c-0.084,0.001-0.15-0.009-0.148,0.115c0.008,0.625,0.008,1.253,0,1.879c-0.002,0.122,0.064,0.113,0.147,0.113
		c0.08-0.001,0.153,0.015,0.149-0.111C36.162,49.028,36.17,48.718,36.17,48.407z M41.004,48.4c0-0.309,0.001-0.62-0.001-0.93
		c0-0.043,0.021-0.106-0.031-0.118c-0.069-0.017-0.147-0.017-0.217-0.003c-0.068,0.015-0.04,0.084-0.04,0.13
		c-0.002,0.614-0.002,1.229-0.001,1.844c0,0.126,0.003,0.126,0.149,0.126c0.137-0.001,0.14-0.001,0.14-0.137
		C41.006,49.01,41.004,48.705,41.004,48.4z"/>
	<path fill="#F9CF27" d="M38.12,20.067c-0.133-0.211-0.261-0.425-0.398-0.633c-0.12-0.181-0.251-0.355-0.427-0.515
		c-0.287,0.268-0.568,0.528-0.85,0.788c-1.441,1.341-2.883,2.682-4.324,4.022c-0.857,0.795-1.715,1.59-2.572,2.386
		c-0.164,0.153-0.165,0.156-0.334,0.017c-0.457-0.376-0.891-0.779-1.322-1.183c-1.379-1.294-2.753-2.591-4.135-3.88
		c-0.665-0.621-1.331-1.24-1.986-1.871c-0.075-0.072-0.159-0.135-0.236-0.204c-0.07-0.065-0.123-0.046-0.18,0.02
		c-0.206,0.243-0.383,0.501-0.544,0.771c-0.316,0.531-0.563,1.09-0.782,1.661c-0.014,0.035-0.033,0.069-0.049,0.104
		c-0.076-0.007-0.093-0.067-0.11-0.12c-0.028-0.091-0.049-0.184-0.069-0.276c-0.099-0.443-0.178-0.889-0.175-1.345
		c0.001-0.215,0.01-0.431-0.002-0.646c-0.014-0.248,0.014-0.494,0.05-0.735c0.06-0.392,0.141-0.78,0.256-1.162
		c0.232-0.765,0.565-1.481,1.017-2.151c0.337-0.5,0.729-0.959,1.144-1.401c0.07-0.075,0.137-0.156,0.24-0.198
		c0.229,0.165,0.424,0.364,0.628,0.553c0.947,0.881,1.874,1.782,2.795,2.688c0.763,0.75,1.564,1.46,2.347,2.191
		c0.39,0.363,0.783,0.722,1.177,1.083c0.113,0.105,0.117,0.106,0.236,0c0.439-0.388,0.848-0.806,1.264-1.214
		c0.364-0.355,0.752-0.679,1.135-1.015c0.421-0.369,0.821-0.759,1.221-1.148c0.879-0.857,1.736-1.733,2.627-2.579
		c0.051-0.048,0.107-0.093,0.162-0.139c0.004,0.046,0.031,0.081,0.055,0.119c0.102,0.15,0.241,0.268,0.357,0.406
		c0.367,0.441,0.692,0.91,0.959,1.412c0.237,0.444,0.433,0.905,0.577,1.387c0.175,0.571,0.276,1.153,0.328,1.742
		c0.027,0.301,0.005,0.608,0.006,0.912C38.204,19.979,38.194,20.037,38.12,20.067z"/>
	<path fill="#EEAC2E" d="M41.765,10.943c-0.28-0.4-0.547-0.809-0.848-1.196c-0.95-1.223-2.092-2.26-3.396-3.135
		c-0.73-0.488-1.491-0.926-2.325-1.285c0.142-0.001,0.251,0.047,0.362,0.083c0.92,0.301,1.791,0.705,2.645,1.15
		c1.278,0.668,2.432,1.501,3.514,2.427c1.078,0.92,1.969,1.992,2.756,3.141c0.762,1.113,1.368,2.3,1.822,3.558
		c0.314,0.87,0.542,1.759,0.701,2.665c0.194,1.109,0.264,2.226,0.232,3.347c-0.013,0.501-0.09,0.996-0.165,1.491
		c-0.164,1.078-0.415,2.138-0.776,3.173c-0.649,1.87-1.673,3.535-2.979,5.056c-1.281,1.492-2.807,2.715-4.519,3.729
		c-0.979,0.581-2.039,1.011-3.112,1.41c-0.917,0.341-1.854,0.62-2.827,0.779c-0.211,0.035-0.424,0.057-0.633,0.084
		c-0.046,0.007-0.099,0.018-0.123-0.034c-0.023-0.052,0.01-0.083,0.055-0.105c0.207-0.103,0.346-0.276,0.504-0.429
		c0.705-0.689,1.4-1.392,2.055-2.125c0.597-0.67,1.167-1.358,1.695-2.079c0.197-0.269,0.391-0.537,0.569-0.818
		c0.016-0.026,0.044-0.044,0.066-0.067c0.039,0.056,0.081,0.051,0.137,0.019c0.221-0.126,0.449-0.242,0.667-0.375
		c0.876-0.528,1.692-1.127,2.45-1.798c0.282-0.25,0.549-0.514,0.806-0.789c0.348-0.373,0.684-0.754,0.999-1.151
		c0.341-0.426,0.64-0.88,0.93-1.339c0.191-0.306,0.329-0.633,0.514-0.94c0.151-0.253,0.26-0.524,0.377-0.791
		c0.23-0.519,0.406-1.055,0.573-1.593c0.134-0.428,0.224-0.868,0.296-1.309c0.062-0.352,0.108-0.708,0.137-1.066
		c0.029-0.371,0.046-0.742,0.07-1.111c0.012-0.208-0.024-0.417-0.03-0.622c-0.013-0.449-0.06-0.891-0.123-1.334
		c-0.06-0.425-0.142-0.843-0.243-1.261c-0.237-0.981-0.604-1.92-1.051-2.831c-0.128-0.264-0.292-0.51-0.438-0.765
		c-0.329-0.579-0.732-1.112-1.131-1.645C41.928,10.994,41.867,10.931,41.765,10.943z"/>
	<path fill="#EEAC2E" d="M21.67,31.695c0.243,0.346,0.48,0.697,0.732,1.039c0.279,0.378,0.563,0.754,0.872,1.113
		c0.379,0.444,0.765,0.887,1.165,1.313c0.403,0.43,0.791,0.874,1.229,1.272c0.11,0.101,0.233,0.189,0.341,0.292
		c0.139,0.135,0.268,0.276,0.402,0.417c0.08,0.082,0.163,0.164,0.268,0.267c-0.208,0.027-0.38-0.005-0.551-0.029
		c-1.123-0.17-2.191-0.517-3.249-0.898c-1.242-0.446-2.433-0.994-3.529-1.712c-2.658-1.734-4.76-3.938-6.167-6.716
		c-0.66-1.301-1.11-2.666-1.392-4.085c-0.255-1.295-0.336-2.601-0.261-3.912c0.089-1.556,0.42-3.068,0.978-4.535
		c0.789-2.074,1.959-3.935,3.522-5.559c0.876-0.909,1.827-1.752,2.914-2.444c0.687-0.438,1.421-0.795,2.119-1.213
		c0.557-0.334,1.177-0.526,1.779-0.76c0.178-0.068,0.35-0.155,0.541-0.189l0-0.001c-0.437,0.251-0.871,0.509-1.313,0.754
		c-1.458,0.81-2.687,1.872-3.774,3.09c-0.276,0.309-0.532,0.631-0.774,0.965c-0.038,0.053-0.087,0.092-0.137,0.132
		c-0.092-0.012-0.157,0.039-0.199,0.104c-0.1,0.16-0.251,0.276-0.374,0.417c-0.31,0.354-0.598,0.723-0.874,1.1
		c-0.263,0.358-0.487,0.737-0.71,1.118c-0.366,0.625-0.676,1.272-0.923,1.949c-0.26,0.708-0.476,1.427-0.606,2.169
		c-0.08,0.453-0.165,0.909-0.175,1.364c-0.015,0.688-0.042,1.377,0.024,2.067c0.039,0.419,0.086,0.837,0.167,1.252
		c0.109,0.557,0.249,1.108,0.432,1.647c0.156,0.457,0.337,0.904,0.544,1.342c0.29,0.612,0.613,1.207,0.992,1.773
		c0.338,0.505,0.705,0.99,1.113,1.448c0.284,0.318,0.576,0.627,0.873,0.932c0.271,0.278,0.581,0.518,0.879,0.767
		c0.413,0.347,0.846,0.667,1.298,0.966c0.463,0.307,0.95,0.578,1.439,0.842C21.404,31.615,21.519,31.701,21.67,31.695z"/>
	<path fill="#F0B624" d="M41.765,10.943c0.103-0.012,0.163,0.051,0.213,0.118c0.4,0.534,0.803,1.067,1.132,1.646
		c0.145,0.255,0.31,0.501,0.438,0.765c0.446,0.912,0.813,1.85,1.05,2.832c0.102,0.417,0.184,0.836,0.243,1.261
		c0.063,0.443,0.111,0.885,0.125,1.333c0.004,0.207,0.041,0.414,0.028,0.623c-0.023,0.37-0.04,0.741-0.069,1.111
		c-0.028,0.358-0.076,0.713-0.136,1.066c-0.074,0.44-0.164,0.879-0.298,1.309c-0.167,0.538-0.342,1.075-0.571,1.592
		c-0.118,0.267-0.227,0.538-0.379,0.791c-0.184,0.307-0.322,0.636-0.514,0.94c-0.288,0.459-0.589,0.915-0.93,1.341
		c-0.315,0.397-0.65,0.778-0.998,1.15c-0.257,0.274-0.524,0.539-0.806,0.788c-0.759,0.671-1.575,1.27-2.449,1.799
		c-0.219,0.132-0.447,0.25-0.669,0.375c-0.054,0.031-0.098,0.038-0.136-0.02c0.148-0.251,0.295-0.504,0.447-0.754
		c0.424-0.689,0.771-1.411,1.072-2.157c0.33-0.823,0.571-1.67,0.71-2.54c0.049-0.306,0.074-0.615,0.109-0.923
		c0.082-0.014,0.113-0.077,0.156-0.135c0.328-0.431,0.572-0.91,0.814-1.386c0.289-0.574,0.515-1.175,0.676-1.794
		c0.09-0.354,0.164-0.711,0.225-1.07c0.05-0.293,0.095-0.587,0.104-0.878c0.02-0.756,0.036-1.513-0.107-2.263
		c-0.075-0.397-0.139-0.794-0.263-1.179c-0.045-0.132-0.084-0.267-0.049-0.409c0.273,0.334,0.551,0.67,0.784,1.033
		c0.165,0.253,0.313,0.517,0.484,0.768c0.469,0.695,0.794,1.454,1.089,2.225c0.076,0.201,0.189,0.389,0.236,0.601
		c0.007,0.028,0.027,0.047,0.055,0.042c0.037-0.006,0.046-0.037,0.054-0.07c0.065-0.29,0.144-0.575,0.195-0.865
		c0.128-0.732,0.158-1.472,0.116-2.212c-0.038-0.655-0.127-1.304-0.261-1.95c-0.156-0.747-0.356-1.48-0.618-2.198
		c-0.327-0.898-0.734-1.764-1.24-2.586C41.805,11.023,41.784,10.982,41.765,10.943z"/>
	<path fill="#F0B624" d="M21.67,31.695c-0.15,0.006-0.266-0.08-0.383-0.146c-0.49-0.264-0.977-0.534-1.44-0.84
		c-0.451-0.3-0.885-0.621-1.298-0.967c-0.299-0.25-0.608-0.489-0.879-0.768c-0.297-0.304-0.589-0.613-0.873-0.932
		c-0.408-0.458-0.775-0.941-1.113-1.448c-0.378-0.566-0.702-1.16-0.992-1.771c-0.207-0.438-0.389-0.885-0.544-1.342
		c-0.184-0.54-0.323-1.09-0.432-1.648c-0.082-0.414-0.128-0.831-0.167-1.252c-0.065-0.689-0.04-1.377-0.024-2.066
		c0.01-0.456,0.094-0.911,0.174-1.364c0.13-0.743,0.346-1.462,0.607-2.17c0.248-0.675,0.557-1.323,0.923-1.949
		c0.224-0.381,0.448-0.76,0.711-1.117c0.277-0.376,0.564-0.746,0.874-1.1c0.123-0.14,0.274-0.258,0.374-0.417
		c0.041-0.065,0.106-0.115,0.199-0.104c-0.156,0.245-0.307,0.495-0.468,0.736c-0.173,0.258-0.319,0.531-0.467,0.803
		c-0.403,0.74-0.729,1.51-0.975,2.309c-0.261,0.854-0.468,1.719-0.554,2.605c-0.061,0.636-0.106,1.275-0.081,1.914
		c0.03,0.746,0.071,1.491,0.275,2.217c0.007,0.028,0,0.066,0.049,0.08c0.242-0.494,0.413-1.016,0.668-1.504
		c0.124,0.011,0.12,0.098,0.118,0.183c-0.01,0.417,0.021,0.83,0.077,1.244c0.046,0.343,0.109,0.683,0.189,1.02
		c0.16,0.679,0.375,1.34,0.676,1.976c0.25,0.531,0.524,1.048,0.854,1.538c0.279,0.414,0.574,0.817,0.903,1.198
		c0.291,0.336,0.589,0.664,0.912,0.975c0.062,0.057,0.127,0.086,0.212,0.077c0.15,0.47,0.304,0.94,0.501,1.396
		c0.351,0.811,0.764,1.595,1.239,2.347C21.573,31.503,21.63,31.595,21.67,31.695z"/>
	<path fill="#F6C426" d="M19.775,27.667c-0.086,0.008-0.151-0.02-0.213-0.077c-0.323-0.311-0.621-0.64-0.912-0.975
		c-0.33-0.381-0.625-0.783-0.903-1.198c-0.329-0.489-0.603-1.007-0.854-1.54c-0.3-0.636-0.516-1.296-0.676-1.975
		c-0.079-0.336-0.143-0.677-0.189-1.02c-0.056-0.414-0.087-0.827-0.076-1.243c0.002-0.085,0.005-0.172-0.119-0.183
		c0.15-0.4,0.345-0.781,0.555-1.155c0.783-1.388,1.821-2.583,3.048-3.635c0.542-0.464,1.103-0.908,1.717-1.285
		c0.166-0.102,0.339-0.194,0.508-0.291c0.057-0.031,0.117-0.035,0.167,0.004c0.172,0.134,0.37,0.241,0.502,0.418
		c-0.103,0.041-0.169,0.123-0.24,0.198c-0.416,0.441-0.807,0.901-1.144,1.401c-0.452,0.67-0.785,1.386-1.017,2.15
		c-0.115,0.383-0.197,0.771-0.256,1.162c-0.038,0.242-0.065,0.488-0.05,0.735c0.012,0.215,0.003,0.431,0.002,0.646
		c-0.003,0.456,0.076,0.901,0.174,1.346c0.021,0.091,0.043,0.184,0.07,0.275c0.016,0.053,0.034,0.112,0.11,0.12
		c-0.057,0.207-0.131,0.409-0.208,0.609c-0.081,0.209-0.127,0.427-0.178,0.643c-0.219,0.923-0.263,1.859-0.196,2.798
		C19.448,26.299,19.593,26.987,19.775,27.667z"/>
	<path fill="#F6C426" d="M40.934,16.271c-0.035,0.142,0.006,0.277,0.049,0.41c0.124,0.385,0.188,0.783,0.263,1.178
		c0.144,0.75,0.128,1.508,0.107,2.263c-0.009,0.292-0.054,0.586-0.104,0.878c-0.061,0.36-0.135,0.716-0.225,1.07
		c-0.161,0.62-0.386,1.222-0.676,1.796c-0.242,0.475-0.486,0.954-0.814,1.386c-0.043,0.058-0.074,0.121-0.156,0.135
		c-0.001-0.278-0.001-0.555-0.004-0.835c-0.003-0.795-0.167-1.567-0.395-2.329c-0.214-0.712-0.482-1.404-0.827-2.069
		c-0.015-0.029-0.021-0.059-0.033-0.089c0.074-0.03,0.085-0.087,0.085-0.156c-0.001-0.304,0.021-0.609-0.006-0.911
		c-0.052-0.589-0.153-1.17-0.328-1.742c-0.145-0.482-0.34-0.944-0.577-1.388c-0.267-0.501-0.592-0.97-0.959-1.412
		c-0.116-0.138-0.256-0.255-0.357-0.406c-0.023-0.038-0.051-0.073-0.055-0.119c0.14-0.153,0.297-0.289,0.46-0.419
		c0.146-0.12,0.299-0.231,0.432-0.366c0.132-0.133,0.137-0.129,0.303-0.041c0.426,0.224,0.805,0.514,1.205,0.774
		c0.677,0.44,1.227,1.009,1.801,1.553C40.404,15.705,40.695,15.965,40.934,16.271z"/>
	<path fill="#F6C426" d="M27.345,7.892c0.18,0.273,0.265,0.58,0.304,0.893c0.114,0.893-0.11,1.708-0.684,2.424
		c-0.462,0.58-1.09,0.928-1.834,1.054c-1.16,0.197-2.22-0.033-3.129-0.771c-0.417-0.338-0.722-0.755-0.865-1.269
		c0.092-0.006,0.154-0.069,0.224-0.114c0.475-0.312,0.969-0.594,1.48-0.846c0.483-0.238,0.983-0.437,1.492-0.619
		c0.906-0.325,1.837-0.552,2.798-0.668C27.208,7.968,27.289,7.956,27.345,7.892z"/>
	<path fill="#F0B624" d="M31.25,8.319c-0.004-0.092,0.037-0.17,0.076-0.25c0.52-1.114,1.406-1.786,2.684-1.917
		c1.375-0.142,2.496,0.333,3.248,1.445c0.669,0.989,0.672,2.039,0.119,3.089c-0.039,0.074-0.08,0.146-0.162,0.186
		c-0.428-0.273-0.824-0.589-1.267-0.843c-0.552-0.316-1.111-0.617-1.706-0.852c-0.744-0.296-1.508-0.548-2.298-0.71
		C31.712,8.417,31.476,8.395,31.25,8.319z"/>
	<path fill="#232422" d="M16.265,40.403c-0.305-0.227-0.623-0.358-0.982-0.402c-0.985-0.126-2.054,0.6-2.079,1.687
		c-0.019,0.748,0.604,1.469,1.405,1.635c0.597,0.126,1.132-0.006,1.604-0.377c0.082-0.064,0.127-0.136,0.121-0.243
		c-0.01-0.151-0.006-0.303,0-0.454c0.001-0.083-0.033-0.107-0.117-0.107c-0.386,0.003-0.771,0.001-1.158,0.001
		c-0.153,0-0.306-0.005-0.459,0.002c-0.08,0.001-0.104-0.027-0.097-0.104c0.022-0.239,0.042-0.479,0.056-0.718
		c0.005-0.095,0.065-0.095,0.136-0.095c0.266,0.001,0.532,0.001,0.798,0.001c0.553,0,1.105-0.001,1.658,0
		c0.16,0,0.161,0.002,0.162,0.156c0,0.588,0,1.179,0.001,1.767c0,0.086-0.018,0.156-0.08,0.224c-0.79,0.856-1.78,1.225-2.95,0.999
		c-1.169-0.226-1.919-0.933-2.259-2.023c-0.204-0.653-0.112-1.284,0.234-1.87c0.599-1.013,1.51-1.543,2.743-1.517
		c0.564,0.011,1.083,0.181,1.548,0.491c0.126,0.081,0.126,0.083,0.06,0.222C16.498,39.914,16.384,40.148,16.265,40.403z"/>
	<path fill="#232422" d="M41.717,44.513c-1.063-0.931-2.09-1.828-3.126-2.733c-0.047,0.059-0.029,0.117-0.029,0.169
		c-0.001,0.747-0.001,1.494-0.001,2.242c0,0.17,0.021,0.168-0.167,0.168c-0.334,0-0.667-0.002-1,0.002
		c-0.081,0-0.128-0.018-0.115-0.105c0.003-0.019,0-0.038,0-0.058c0-1.69,0-3.381,0.001-5.072c0-0.031,0.003-0.063,0.007-0.135
		c1.052,0.921,2.082,1.82,3.112,2.723c0.059-0.049,0.035-0.103,0.035-0.147c0.002-0.779,0.001-1.559,0.002-2.338
		c0-0.229-0.028-0.195,0.216-0.197c0.28-0.003,0.56-0.001,0.839,0c0.259,0.002,0.227-0.028,0.227,0.207c0.001,1.052,0,2.103,0,3.155
		c0,0.626,0,1.253,0,1.88C41.717,44.336,41.717,44.399,41.717,44.513z"/>
	<path fill="#F6C426" d="M31.25,8.319c0.227,0.076,0.463,0.099,0.694,0.146c0.792,0.162,1.554,0.415,2.298,0.71
		c0.595,0.235,1.154,0.535,1.706,0.852c0.442,0.254,0.839,0.57,1.267,0.843c-0.049,0.193-0.193,0.33-0.329,0.466
		c-0.57,0.572-1.266,0.902-2.093,0.991c-1.424,0.15-2.865-0.593-3.443-1.848C31.023,9.774,30.996,9.051,31.25,8.319z"/>
	<path fill="#F0B624" d="M27.345,7.892c-0.056,0.064-0.136,0.076-0.214,0.085c-0.961,0.116-1.892,0.342-2.798,0.668
		c-0.509,0.183-1.009,0.381-1.492,0.619c-0.511,0.252-1.005,0.534-1.48,0.846c-0.069,0.045-0.131,0.108-0.224,0.114
		c-0.162-0.391-0.177-0.8-0.142-1.211c0.056-0.659,0.309-1.249,0.758-1.755c0.558-0.632,1.269-1.005,2.13-1.111
		c0.86-0.104,1.653,0.069,2.365,0.539c0.33,0.218,0.613,0.49,0.841,0.81C27.18,7.623,27.306,7.731,27.345,7.892z"/>
	<path fill="#232422" d="M44.161,41.187c0.085-0.048,0.104-0.11,0.137-0.166c0.381-0.614,0.767-1.229,1.142-1.85
		c0.064-0.106,0.133-0.148,0.265-0.144c0.271,0.01,0.545,0.002,0.818,0.003c0.051,0.002,0.104-0.016,0.163,0.023
		c-0.012,0.068-0.06,0.12-0.097,0.179c-0.459,0.742-0.916,1.483-1.382,2.22c-0.071,0.112-0.071,0.192,0,0.304
		c0.501,0.798,0.996,1.601,1.493,2.402c0.034,0.053,0.064,0.108,0.096,0.16c-0.031,0.063-0.085,0.038-0.125,0.038
		c-0.346,0.002-0.692-0.004-1.038,0.004c-0.117,0.003-0.177-0.038-0.233-0.131c-0.272-0.448-0.553-0.895-0.829-1.342
		c-0.035-0.054-0.069-0.105-0.118-0.188c-0.132,0.231-0.319,0.408-0.296,0.689c0.022,0.266,0.006,0.531,0.006,0.798
		c-0.001,0.187,0.018,0.169-0.187,0.169c-0.301,0-0.601,0-0.898,0c-0.23,0-0.197,0.017-0.197-0.197c-0.002-0.438,0-0.874,0-1.312
		c0-1.196,0-2.395,0-3.592c0-0.049,0.001-0.101,0-0.152c-0.003-0.057,0.03-0.076,0.084-0.076c0.375,0.002,0.747,0.002,1.12,0
		c0.062,0,0.078,0.032,0.078,0.083c-0.002,0.076,0,0.152,0,0.229C44.161,39.949,44.161,40.557,44.161,41.187z"/>
	<path fill="#232422" d="M23.137,43.306c0.305-0.201,0.61-0.402,0.915-0.604c0.068-0.046,0.095,0.004,0.126,0.042
		c0.11,0.139,0.235,0.259,0.38,0.361c0.152,0.107,0.321,0.181,0.507,0.21c0.255,0.039,0.476-0.026,0.651-0.207
		c0.152-0.157,0.16-0.325,0.027-0.5c-0.084-0.11-0.201-0.185-0.322-0.25c-0.241-0.135-0.486-0.262-0.727-0.395
		c-0.237-0.132-0.459-0.279-0.665-0.451c-0.784-0.662-0.616-1.865,0.299-2.332c0.487-0.246,0.999-0.296,1.528-0.168
		c0.371,0.09,0.711,0.244,0.996,0.483c0.002,0.036-0.014,0.056-0.032,0.073c-0.228,0.224-0.458,0.442-0.682,0.668
		c-0.066,0.065-0.115,0.079-0.199,0.027c-0.151-0.095-0.316-0.161-0.497-0.189c-0.163-0.025-0.32-0.001-0.467,0.063
		c-0.268,0.117-0.31,0.351-0.104,0.549c0.123,0.118,0.27,0.206,0.419,0.288c0.252,0.142,0.509,0.274,0.76,0.418
		c0.224,0.127,0.43,0.278,0.603,0.466c0.529,0.572,0.537,1.393-0.007,1.951c-0.505,0.521-1.131,0.736-1.876,0.587
		C24.139,44.268,23.474,43.823,23.137,43.306z"/>
	<path fill="#232422" d="M20.418,38.981c0.783,1.813,1.551,3.586,2.326,5.377c-0.451,0-0.876,0-1.302,0.002
		c-0.065,0-0.092-0.031-0.114-0.084c-0.072-0.169-0.153-0.334-0.222-0.507c-0.034-0.083-0.086-0.11-0.179-0.109
		c-0.453,0.005-0.905,0.005-1.357,0c-0.094-0.001-0.145,0.029-0.177,0.112c-0.064,0.166-0.138,0.327-0.208,0.493
		c-0.02,0.046-0.035,0.095-0.105,0.095c-0.324-0.002-0.648,0-0.997,0C18.861,42.565,19.629,40.798,20.418,38.981z M20.253,41.796
		c-0.137,0.337-0.283,0.629-0.397,0.944c0.277,0,0.526,0,0.803,0C20.524,42.427,20.395,42.127,20.253,41.796z"/>
	<path fill="#232422" d="M30.699,41.685c0-0.828,0.002-1.658,0-2.488c0-0.172-0.013-0.167,0.17-0.167
		c0.308,0.001,0.613,0,0.919,0.001c0.211,0,0.196-0.025,0.196,0.181c0,0.834,0,1.668,0,2.505c0,0.525,0,1.051,0,1.575
		c0.001,0.151,0.001,0.153,0.166,0.153c0.518,0.001,1.037,0,1.555,0.001c0.191,0,0.195-0.031,0.18,0.188
		c-0.014,0.177-0.029,0.354-0.045,0.53c-0.018,0.195-0.018,0.195-0.219,0.195c-0.811,0-1.622,0-2.434,0
		c-0.112,0-0.227,0.002-0.338,0c-0.147-0.002-0.15-0.003-0.15-0.149c0-0.752,0-1.506,0-2.259
		C30.699,41.862,30.699,41.774,30.699,41.685z"/>
	<path fill="#232422" d="M36.156,41.711c0,0.811,0,1.62,0,2.431c0,0.031-0.005,0.063,0,0.095c0.017,0.107-0.043,0.127-0.14,0.125
		c-0.218-0.006-0.438-0.003-0.657-0.003c-0.128,0-0.253-0.003-0.381,0.002c-0.088,0.003-0.117-0.031-0.111-0.111
		c0.005-0.03,0.002-0.063,0.002-0.094c0-1.639-0.002-3.277,0-4.917c0-0.242-0.021-0.205,0.227-0.206c0.3-0.002,0.6-0.002,0.898,0
		c0.158,0,0.162,0.001,0.162,0.157C36.156,40.029,36.156,40.871,36.156,41.711z"/>
	<path fill="#232422" d="M15.595,47.756c0,0.351,0,0.672,0,0.993c0,0.196-0.006,0.393,0.002,0.589
		c0.003,0.098-0.036,0.12-0.128,0.113c-0.078-0.006-0.159,0.017-0.154-0.109c0.01-0.253,0.002-0.505,0.002-0.759
		c0-0.369-0.001-0.735,0-1.102c0-0.136,0.004-0.127,0.142-0.14c0.137-0.015,0.217,0.037,0.287,0.147
		c0.322,0.498,0.683,0.974,1.007,1.487c0-0.046,0-0.091,0-0.138c-0.002-0.456-0.006-0.911-0.007-1.367
		c0-0.047-0.027-0.112,0.044-0.13c0.064-0.017,0.134-0.017,0.197,0.003c0.045,0.016,0.034,0.064,0.034,0.102
		c0,0.177,0,0.354,0,0.531c0,0.438,0.001,0.873-0.002,1.311c0,0.054,0.045,0.149-0.054,0.154c-0.096,0.007-0.214,0.059-0.291-0.054
		c-0.014-0.022-0.029-0.044-0.042-0.065c-0.331-0.504-0.689-0.992-0.99-1.513C15.639,47.797,15.628,47.79,15.595,47.756z"/>
	<path fill="#232422" d="M38.841,48.973c0-0.123,0-0.247,0-0.37c0-0.381-0.001-0.761,0-1.141c0-0.041-0.019-0.103,0.035-0.117
		c0.067-0.02,0.146-0.027,0.213,0.005c0.05,0.024,0.027,0.081,0.027,0.122c0.002,0.425,0.001,0.849,0.001,1.272
		c0,0.197-0.006,0.394,0.001,0.589c0.004,0.097-0.033,0.115-0.126,0.119c-0.124,0.006-0.202-0.025-0.271-0.136
		c-0.32-0.504-0.68-0.982-0.978-1.5c-0.009-0.015-0.014-0.036-0.062-0.03c0,0.042,0,0.087,0,0.135
		c0.003,0.469,0.005,0.937,0.006,1.405c0,0.041,0.022,0.102-0.034,0.114c-0.07,0.018-0.146,0.018-0.218-0.004
		c-0.012-0.003-0.021-0.031-0.021-0.048c-0.005-0.038-0.003-0.075-0.003-0.112c0-0.589-0.002-1.178,0.003-1.768
		c0-0.054-0.046-0.146,0.049-0.157c0.104-0.013,0.227-0.056,0.314,0.05c0.016,0.02,0.029,0.042,0.044,0.063
		C38.155,47.967,38.518,48.451,38.841,48.973z"/>
	<path fill="#232422" d="M42.522,47.752c0,0.494,0,0.955,0,1.415c0,0.052,0.002,0.103,0,0.153c-0.003,0.132-0.004,0.125-0.146,0.132
		c-0.108,0.005-0.133-0.036-0.133-0.132c0.005-0.615,0.002-1.228,0.003-1.843c0-0.132,0.003-0.128,0.144-0.138
		c0.125-0.01,0.205,0.022,0.276,0.132c0.317,0.498,0.68,0.97,0.969,1.483c0.008,0.014,0.015,0.021,0.034,0.016
		c0.033-0.025,0.015-0.064,0.015-0.099c-0.003-0.462-0.007-0.923-0.01-1.386c0-0.142,0.083-0.196,0.226-0.148
		c0.029,0.01,0.047,0.022,0.048,0.051c0.003,0.039,0.003,0.076,0.003,0.113c0,0.597,0.002,1.191-0.001,1.786
		c0,0.054,0.045,0.148-0.057,0.152c-0.096,0.007-0.216,0.061-0.289-0.057c-0.01-0.017-0.021-0.033-0.032-0.049
		c-0.329-0.505-0.69-0.993-0.989-1.515C42.572,47.807,42.56,47.794,42.522,47.752z"/>
	<path fill="#232422" d="M47.272,48.341c0.027,0.179,0.009,0.351,0.013,0.519c0.003,0.07,0.001,0.141,0.001,0.207
		c0,0.322,0.001,0.324-0.336,0.374c-0.21,0.033-0.421,0.044-0.635,0.012c-0.474-0.073-0.807-0.386-0.876-0.837
		c-0.112-0.731,0.377-1.279,1.157-1.297c0.174-0.003,0.343,0.017,0.513,0.056c0.092,0.023,0.115,0.061,0.086,0.148
		c-0.027,0.076-0.047,0.12-0.151,0.086c-0.217-0.072-0.441-0.076-0.668-0.026c-0.354,0.079-0.589,0.33-0.627,0.676
		c-0.016,0.132-0.013,0.265,0.021,0.396c0.099,0.381,0.439,0.604,0.886,0.589c0.346-0.015,0.347-0.015,0.344-0.345
		c-0.001-0.105,0.048-0.239-0.022-0.313c-0.071-0.072-0.213-0.023-0.322-0.023c-0.09,0-0.113-0.032-0.113-0.11
		c-0.001-0.078,0.018-0.115,0.108-0.112C46.855,48.344,47.061,48.341,47.272,48.341z"/>
	<path fill="#232422" d="M20.343,48.859c0,0.134-0.005,0.266,0.001,0.397c0.003,0.079-0.032,0.11-0.106,0.132
		c-0.318,0.085-0.64,0.118-0.964,0.047c-0.547-0.123-0.875-0.616-0.791-1.177c0.083-0.543,0.486-0.893,1.083-0.934
		c0.207-0.017,0.41,0.002,0.612,0.056c0.112,0.029,0.083,0.084,0.064,0.155c-0.021,0.08-0.054,0.104-0.138,0.075
		c-0.138-0.049-0.285-0.064-0.432-0.058c-0.692,0.023-0.947,0.503-0.869,1.002c0.07,0.452,0.426,0.711,0.919,0.687
		c0.338-0.017,0.338-0.017,0.338-0.333c-0.001-0.107,0.034-0.24-0.02-0.314c-0.06-0.084-0.211-0.024-0.321-0.033
		c-0.123-0.011-0.133-0.021-0.129-0.135c0.001-0.051,0.013-0.086,0.076-0.086c0.199,0.001,0.398,0.001,0.599,0
		c0.077,0,0.08,0.047,0.079,0.101C20.342,48.581,20.343,48.72,20.343,48.859z"/>
	<path fill="#232422" d="M12.541,47.36c0.292-0.046,0.589-0.071,0.885-0.004c0.284,0.064,0.46,0.245,0.489,0.488
		c0.036,0.31-0.092,0.546-0.368,0.673c-0.185,0.087-0.382,0.101-0.583,0.095c-0.136-0.003-0.138,0-0.139,0.134
		c-0.001,0.196-0.008,0.393,0.002,0.589c0.007,0.122-0.064,0.117-0.149,0.114c-0.077-0.002-0.158,0.022-0.158-0.105
		c0.006-0.646,0.003-1.293,0.005-1.938C12.524,47.394,12.532,47.382,12.541,47.36z M12.823,47.971L12.823,47.971
		c0,0.109,0,0.215,0,0.322c0,0.049,0.014,0.088,0.075,0.09c0.159,0.007,0.318,0.02,0.468-0.045c0.169-0.073,0.27-0.235,0.257-0.413
		c-0.013-0.178-0.116-0.295-0.304-0.354c-0.13-0.041-0.262-0.024-0.394-0.024c-0.075,0-0.106,0.032-0.104,0.105
		C12.825,47.758,12.823,47.865,12.823,47.971z"/>
	<path fill="#232422" d="M23.327,47.36c0.292-0.046,0.588-0.071,0.885-0.004c0.283,0.064,0.46,0.245,0.488,0.488
		c0.037,0.31-0.092,0.546-0.367,0.673c-0.185,0.087-0.382,0.101-0.584,0.095c-0.136-0.003-0.137,0-0.138,0.134
		c-0.001,0.196-0.008,0.393,0.002,0.589c0.007,0.122-0.065,0.117-0.15,0.114c-0.077-0.002-0.159,0.022-0.157-0.105
		c0.006-0.646,0.003-1.293,0.005-1.938C23.311,47.394,23.319,47.382,23.327,47.36z M23.611,47.968c0,0.107,0,0.215,0,0.321
		c0,0.047,0.008,0.09,0.07,0.093c0.166,0.009,0.332,0.021,0.487-0.05c0.158-0.074,0.254-0.232,0.243-0.403
		c-0.01-0.177-0.112-0.296-0.301-0.356c-0.123-0.04-0.248-0.024-0.374-0.027c-0.09-0.001-0.135,0.029-0.129,0.12
		C23.615,47.766,23.611,47.867,23.611,47.968z"/>
	<path fill="#232422" d="M30.447,48.386c0-0.298-0.002-0.596,0-0.892c0-0.149,0.002-0.151,0.165-0.152
		c0.312,0,0.624,0.004,0.937-0.002c0.1-0.001,0.127,0.032,0.127,0.122c0,0.092-0.036,0.119-0.131,0.115
		c-0.227-0.005-0.452,0.004-0.678-0.003c-0.106-0.003-0.137,0.035-0.133,0.133c0.008,0.138,0.006,0.278,0,0.417
		c-0.003,0.08,0.025,0.11,0.113,0.109c0.219-0.005,0.438,0.004,0.657-0.003c0.108-0.005,0.112,0.045,0.116,0.124
		c0.002,0.085-0.029,0.108-0.115,0.106c-0.22-0.005-0.438,0.003-0.657-0.003c-0.089-0.002-0.116,0.028-0.114,0.11
		c0.005,0.176,0.006,0.353,0,0.532c-0.003,0.09,0.027,0.12,0.125,0.118c0.239-0.006,0.479-0.003,0.718-0.001
		c0.149,0,0.157,0.013,0.148,0.149c-0.002,0.056-0.021,0.081-0.08,0.081c-0.372,0-0.743-0.001-1.117,0
		c-0.097,0.001-0.081-0.06-0.081-0.115C30.447,49.018,30.447,48.703,30.447,48.386z"/>
	<path fill="#232422" d="M27.65,48.406c0-0.31,0.002-0.62-0.001-0.932c-0.001-0.081,0.017-0.122,0.116-0.132
		c0.259-0.027,0.516-0.049,0.773,0.01c0.3,0.069,0.472,0.247,0.503,0.518c0.034,0.283-0.108,0.532-0.378,0.652
		c-0.166,0.075-0.342,0.095-0.524,0.09c-0.196-0.004-0.196-0.001-0.197,0.193c0,0.171,0.001,0.342,0,0.512
		c-0.001,0.132-0.003,0.132-0.145,0.132c-0.141,0-0.144,0-0.145-0.132C27.649,49.014,27.65,48.712,27.65,48.406z M27.94,47.963
		c0,0.107,0,0.215,0,0.322c0,0.047,0.005,0.093,0.068,0.097c0.179,0.009,0.359,0.024,0.524-0.067
		c0.169-0.095,0.223-0.24,0.207-0.418c-0.016-0.163-0.112-0.263-0.271-0.318c-0.148-0.052-0.301-0.034-0.453-0.027
		c-0.06,0.003-0.075,0.04-0.075,0.09C27.941,47.748,27.94,47.855,27.94,47.963z"/>
	<path fill="#232422" d="M33.203,48.388c0-0.295,0-0.592,0-0.89c0.002-0.155,0.004-0.155,0.141-0.155
		c0.146-0.001,0.149-0.001,0.15,0.148c0,0.5,0,0.997,0,1.497c0,0.044,0.004,0.088,0,0.132c-0.007,0.076,0.028,0.099,0.104,0.099
		c0.24-0.003,0.479-0.001,0.717,0c0.148,0,0.156,0.012,0.146,0.148c-0.003,0.053-0.014,0.082-0.077,0.082
		c-0.365-0.001-0.731-0.002-1.097,0c-0.096,0-0.084-0.056-0.084-0.113C33.203,49.021,33.203,48.705,33.203,48.388z"/>
	<path fill="#232422" d="M26.105,48.402c0-0.31,0-0.62,0.001-0.932c0-0.043-0.03-0.111,0.048-0.123
		c0.078-0.01,0.161-0.024,0.233,0.016c0.03,0.016,0.018,0.058,0.018,0.087c0,0.627,0,1.253,0.002,1.879
		c0.001,0.089-0.022,0.123-0.122,0.122c-0.18-0.002-0.181,0.004-0.181-0.177C26.105,48.982,26.105,48.693,26.105,48.402z"/>
	<path fill="#232422" d="M36.17,48.407c0,0.311-0.008,0.621,0.004,0.931c0.004,0.126-0.069,0.11-0.149,0.111
		c-0.083,0-0.149,0.009-0.147-0.113c0.008-0.626,0.008-1.254,0-1.879c-0.002-0.124,0.064-0.114,0.148-0.115
		c0.085,0,0.152-0.006,0.148,0.115C36.162,47.774,36.17,48.092,36.17,48.407z"/>
	<path fill="#232422" d="M41.004,48.4c0,0.305,0.002,0.607,0,0.912c-0.001,0.136-0.003,0.136-0.141,0.137
		c-0.146,0-0.148,0-0.149-0.126c0-0.614,0-1.229,0.002-1.844c0-0.046-0.029-0.115,0.039-0.13c0.07-0.015,0.147-0.014,0.219,0.003
		c0.051,0.012,0.03,0.076,0.03,0.118C41.005,47.782,41.004,48.092,41.004,48.4z"/>
	<polygon fill="#EEAC2E" points="23.383,5.356 23.387,5.352 23.383,5.355 	"/>
	<path fill="#FFFFFF" d="M20.253,41.796c0.142,0.33,0.271,0.631,0.406,0.944c-0.276,0-0.526,0-0.803,0
		C19.971,42.427,20.116,42.133,20.253,41.796z"/>
	<path fill="#FFFFFF" d="M12.823,47.971c0-0.105,0.002-0.213-0.001-0.319c-0.002-0.073,0.028-0.106,0.104-0.106
		c0.132,0,0.264-0.016,0.394,0.024c0.188,0.059,0.292,0.176,0.304,0.354c0.013,0.178-0.088,0.339-0.257,0.412
		c-0.15,0.064-0.31,0.052-0.468,0.046c-0.062-0.003-0.075-0.041-0.075-0.09C12.824,48.186,12.824,48.08,12.823,47.971L12.823,47.971
		z"/>
	<path fill="#FFFFFF" d="M23.611,47.968c0-0.101,0.004-0.2-0.001-0.303c-0.006-0.091,0.038-0.121,0.129-0.12
		c0.125,0.003,0.25-0.013,0.374,0.027c0.188,0.061,0.289,0.18,0.301,0.356c0.01,0.17-0.085,0.329-0.243,0.403
		c-0.156,0.07-0.322,0.059-0.487,0.05c-0.063-0.003-0.07-0.046-0.07-0.093C23.611,48.183,23.611,48.075,23.611,47.968z"/>
	<path fill="#FFFFFF" d="M27.94,47.963c0-0.107,0-0.215,0-0.32c-0.001-0.051,0.014-0.089,0.075-0.092
		c0.152-0.007,0.304-0.022,0.453,0.027c0.157,0.056,0.254,0.156,0.271,0.319c0.017,0.177-0.037,0.322-0.207,0.419
		c-0.165,0.091-0.345,0.076-0.524,0.065c-0.062-0.003-0.068-0.048-0.068-0.097C27.94,48.178,27.94,48.069,27.94,47.963z"/>
</g>
</svg>
