<?xml version="1.0" encoding="utf-8"?>
<!-- Generator: Adobe Illustrator 16.0.0, SVG Export Plug-In . SVG Version: 6.00 Build 0)  -->
<!DOCTYPE svg PUBLIC "-//W3C//DTD SVG 1.1//EN" "http://www.w3.org/Graphics/SVG/1.1/DTD/svg11.dtd">
<svg version="1.1" id="Layer_1" xmlns="http://www.w3.org/2000/svg" xmlns:xlink="http://www.w3.org/1999/xlink" x="0px" y="0px"
	 width="147px" height="75px" viewBox="0 0 147 75" enable-background="new 0 0 147 75" xml:space="preserve">
<g>
	<path fill-rule="evenodd" clip-rule="evenodd" fill="#FFFFFF" d="M33.25,77c0-26.002,0-52.001,0-78c31.5,0,63.001,0,94.5,0
		c0,25.999,0,51.998,0,78C96.251,77,64.75,77,33.25,77z M99.113,64.42c-0.391,0.068-57.812,0.058-58.062-0.004
		c-0.072-0.752-0.037-54.305,0.037-54.539c0.871-0.064,57.747-0.031,58.037,0.04c0,5.154,0,10.316,0,15.504c0.492,0,0.955,0,1.434,0
		c0-5.574,0-11.131,0-16.687c-20.241,0-40.46,0-60.677,0c-0.073,0.694-0.04,56.901,0.032,57.13c20.21,0,40.419,0,60.646,0
		c0-6.238,0-12.459,0-18.683c-0.486,0-0.951,0-1.445,0C99.113,52.946,99.113,58.687,99.113,64.42z M80.214,34.421
		c0.015,0.001,0.026,0.001,0.043,0.001c-0.036,1.616-0.072,3.234-0.11,4.852c-0.001,0.074-0.002,0.148-0.012,0.223
		c-0.032,0.209-0.083,0.26-0.31,0.27c-0.218,0.01-0.436,0.004-0.653,0.004c-0.662,0-0.733,0.064-0.732,0.674
		c0.004,0.556,0.087,0.628,0.684,0.617c0.79-0.013,1.582-0.035,2.373-0.03c1.296,0.002,2.595,0.03,3.892,0.028
		c1.045-0.004,2.069-0.126,3.075-0.433c1.157-0.354,2.133-0.923,2.89-1.815c0.473-0.558,0.863-1.159,1.13-1.826
		c0.479-1.201,0.578-2.441,0.425-3.703c-0.238-1.956-1.265-3.463-3.065-4.481c-0.816-0.463-1.724-0.731-2.678-0.863
		c-1.037-0.145-2.08-0.136-3.125-0.135c-1.63,0.001-3.26,0-4.888,0c-0.093,0-0.184-0.005-0.275,0.002
		c-0.236,0.02-0.358,0.128-0.37,0.343c-0.012,0.193-0.014,0.386,0.004,0.578c0.019,0.252,0.149,0.359,0.424,0.365
		c0.275,0.007,0.55-0.001,0.826,0.003c0.331,0.004,0.386,0.05,0.401,0.346c0.021,0.385,0.048,0.771,0.05,1.156
		C80.217,31.871,80.214,33.146,80.214,34.421z M113.853,29.101c-0.546,0.749-1.053,1.449-1.563,2.146
		c-1.102,1.5-2.207,2.998-3.31,4.498c-0.816,1.113-1.633,2.224-2.446,3.338c-0.237,0.328-0.471,0.658-0.688,0.999
		c-0.077,0.125-0.118,0.279-0.13,0.426c-0.024,0.312,0.118,0.454,0.447,0.485c0.159,0.016,0.32,0.016,0.482,0.016
		c1.938,0.011,3.879,0.015,5.815,0.032c1.321,0.01,2.638,0.043,3.951,0.188c0.364,0.041,0.578-0.075,0.729-0.407
		c0.455-0.995,0.899-1.99,1.344-2.988c0.063-0.142,0.08-0.29-0.033-0.426c-0.303-0.37-0.806-0.38-1.147-0.043
		c-0.595,0.591-1.217,1.165-1.802,1.765c-0.418,0.432-0.928,0.59-1.536,0.584c-1.249-0.01-2.501-0.002-3.751-0.004
		c-0.074,0-0.148-0.008-0.255-0.014c0.038-0.072,0.055-0.109,0.08-0.143c0.714-0.979,1.433-1.961,2.152-2.939
		c0.599-0.813,1.2-1.622,1.794-2.435c1.023-1.395,2.043-2.79,3.067-4.185c0.337-0.459,0.684-0.912,1.015-1.375
		c0.26-0.366,0.069-0.776-0.394-0.851c-0.135-0.022-0.276-0.011-0.412-0.006c-0.539,0.017-1.078,0.05-1.617,0.053
		c-1.799,0.01-3.603,0.018-5.403,0.009c-0.675-0.003-1.35-0.06-2.026-0.083c-0.354-0.013-0.524,0.095-0.631,0.384
		c-0.27,0.739-0.535,1.479-0.805,2.219c-0.104,0.294-0.216,0.587-0.311,0.884c-0.092,0.296-0.044,0.397,0.223,0.565
		c0.039,0.023,0.073,0.051,0.114,0.074c0.313,0.197,0.482,0.165,0.731-0.107c0.661-0.726,1.322-1.451,1.996-2.166
		c0.315-0.333,0.71-0.521,1.212-0.514c0.94,0.014,1.881,0.004,2.821,0.004C113.646,29.084,113.723,29.093,113.853,29.101z
		 M100.108,36.838c-0.06-0.147-0.087-0.217-0.113-0.289c-0.242-0.69-0.483-1.381-0.72-2.074c-0.446-1.304-0.897-2.607-1.328-3.915
		c-0.118-0.356-0.187-0.727-0.254-1.095c-0.045-0.239-0.008-0.272,0.249-0.333c0.109-0.025,0.225-0.034,0.339-0.037
		c0.218-0.005,0.437,0.003,0.654-0.002c0.287-0.008,0.417-0.119,0.442-0.388c0.014-0.182,0.012-0.365,0.001-0.546
		c-0.017-0.211-0.146-0.33-0.368-0.352c-0.104-0.01-0.208-0.004-0.311-0.004c-1.389,0.005-2.777,0.013-4.166,0.016
		c-0.471,0.001-0.94-0.015-1.411-0.016c-0.351,0-0.468,0.111-0.483,0.442c-0.001,0.085,0,0.172,0,0.257
		c0.008,0.507,0.098,0.589,0.646,0.592c0.486,0.001,0.612,0.086,0.778,0.521c0.133,0.353,0.262,0.707,0.397,1.059
		c0.525,1.358,1.037,2.721,1.581,4.072c0.807,2.012,1.636,4.017,2.46,6.023c0.119,0.289,0.277,0.557,0.663,0.572
		c0.396,0.014,0.594-0.231,0.751-0.521c0.006-0.012,0.01-0.021,0.017-0.03c0.238-0.521,0.485-1.039,0.72-1.563
		c0.601-1.341,1.196-2.685,1.788-4.03c0.5-1.126,0.978-2.261,1.485-3.384c0.295-0.648,0.627-1.284,0.954-1.919
		c0.292-0.569,0.763-0.869,1.46-0.798c0.013,0.001,0.023,0,0.035,0c0.289-0.013,0.414-0.121,0.434-0.394
		c0.009-0.139,0.003-0.278,0.001-0.418c-0.006-0.389-0.116-0.482-0.54-0.481c-1.308,0.004-2.615,0.006-3.923,0.008
		c-0.173,0-0.345-0.012-0.518-0.005c-0.217,0.01-0.351,0.112-0.368,0.309c-0.019,0.213-0.021,0.43,0.004,0.641
		c0.027,0.242,0.149,0.33,0.414,0.338c0.159,0.005,0.319-0.005,0.48,0.002c0.381,0.017,0.537,0.156,0.476,0.508
		c-0.067,0.376-0.173,0.752-0.313,1.112c-0.626,1.643-1.267,3.281-1.906,4.919C100.469,36.013,100.3,36.387,100.108,36.838z
		 M115.065,45.018c-0.113-0.186-0.229-0.34-0.305-0.509c-0.146-0.338-0.27-0.684-0.403-1.025c-0.063-0.161-0.126-0.323-0.2-0.478
		c-0.09-0.179-0.249-0.187-0.358-0.015c-0.076,0.12-0.138,0.245-0.192,0.374c-0.173,0.422-0.335,0.845-0.511,1.264
		c-0.141,0.341-0.263,0.375-0.631,0.164c0-0.479,0-0.972,0-1.465c-0.002-0.104,0.025-0.187,0.147-0.223
		c0.048-0.016,0.088-0.056,0.139-0.091c-0.259-0.102-0.773-0.103-1.055-0.004c0.052,0.036,0.088,0.079,0.136,0.091
		c0.124,0.034,0.146,0.117,0.146,0.223c-0.001,0.491,0,0.985,0,1.477c-0.098,0.063-0.185,0.118-0.34,0.219c0.681,0,1.275,0,1.946,0
		c-0.136-0.093-0.21-0.145-0.288-0.202c0.069-0.169,0.132-0.323,0.192-0.468c0.248,0,0.464,0,0.682,0
		c0.07,0.169,0.134,0.324,0.194,0.478c-0.09,0.059-0.159,0.103-0.294,0.19C114.46,45.018,114.769,45.018,115.065,45.018z
		 M82.252,42.992c0.09,0.109,0.229,0.2,0.232,0.296c0.023,0.511,0.014,1.025,0.014,1.517c-0.11,0.068-0.191,0.118-0.29,0.181
		c0.379,0.086,0.837,0.076,1.048-0.023c-0.092-0.055-0.176-0.103-0.243-0.14c0-0.262,0-0.504,0-0.742c0.289,0,0.548,0,0.842,0
		c0,0.22,0.01,0.421-0.005,0.622c-0.006,0.062-0.072,0.12-0.121,0.173c-0.035,0.042-0.086,0.07-0.183,0.146
		c0.402,0.025,0.73,0.039,1.134-0.015c-0.153-0.091-0.242-0.146-0.333-0.201c0-0.497,0.001-0.978,0-1.46
		c-0.002-0.114,0.011-0.211,0.156-0.246c0.043-0.012,0.074-0.06,0.163-0.134c-0.398-0.037-0.728-0.035-1.083,0.02
		c0.401,0.208,0.262,0.523,0.254,0.831c-0.286,0-0.553,0-0.853,0c0.033-0.306-0.144-0.631,0.289-0.811
		C82.957,42.915,82.502,42.918,82.252,42.992z M98.098,43.88c-0.121,0.125-0.289,0.23-0.354,0.374
		c-0.219,0.473,0.189,0.919,0.751,0.818c0.205-0.035,0.396-0.145,0.617-0.228c0.244,0.286,0.572,0.201,0.905,0.142
		c-0.22-0.138-0.464-0.238-0.603-0.516c0.17-0.195,0.347-0.404,0.519-0.605c-0.278-0.08-0.725-0.07-0.759,0.034
		c0.071,0.046,0.145,0.09,0.237,0.149c-0.052,0.096-0.101,0.183-0.158,0.289c-0.104-0.089-0.173-0.159-0.254-0.216
		c-0.081-0.06-0.171-0.104-0.296-0.174c0.184-0.103,0.275-0.146,0.359-0.203c0.211-0.145,0.258-0.487,0.095-0.656
		c-0.294-0.304-0.991-0.253-1.205,0.103c-0.059,0.099-0.061,0.248-0.033,0.364C97.946,43.675,98.039,43.779,98.098,43.88z
		 M78.663,44.165c0.169-0.063,0.213,0.057,0.27,0.143c0.12,0.182,0.229,0.37,0.355,0.549c0.048,0.068,0.119,0.153,0.193,0.167
		c0.217,0.034,0.438,0.028,0.666-0.028c-0.472-0.185-0.575-0.621-0.838-0.956c0.067-0.045,0.123-0.081,0.177-0.121
		c0.207-0.141,0.277-0.342,0.232-0.565c-0.048-0.228-0.231-0.332-0.462-0.372c-0.091-0.016-0.181-0.036-0.272-0.038
		c-0.31-0.006-0.617-0.006-0.928,0c-0.055,0.002-0.107,0.036-0.19,0.063c0.114,0.12,0.304,0.117,0.296,0.311
		c-0.015,0.499-0.005,1.004-0.005,1.483c-0.111,0.073-0.192,0.127-0.275,0.182c0.362,0.048,0.695,0.09,1.094,0.02
		c-0.146-0.09-0.234-0.143-0.313-0.192C78.663,44.58,78.663,44.37,78.663,44.165z M107.224,44c0,0.041-0.002,0.083,0.002,0.127
		c0.045,0.597,0.432,0.949,1.054,0.961c0.603,0.009,1.015-0.319,1.084-0.895c0.025-0.188,0.021-0.387-0.021-0.571
		c-0.121-0.549-0.809-0.883-1.361-0.68C107.446,43.138,107.221,43.451,107.224,44z M88.294,43.016c0.37,0.101,0.293,0.364,0.298,0.6
		c0.002,0.246,0.001,0.491,0,0.736c0,0.128,0.026,0.268-0.018,0.381c-0.037,0.103-0.156,0.179-0.258,0.285c0.656,0,1.286,0,1.918,0
		c0-0.195,0-0.369,0-0.558c-0.275,0.027-0.164,0.304-0.329,0.374c-0.261,0-0.52,0-0.786,0c0-0.265,0-0.512,0-0.761
		c0.156,0,0.279,0,0.37,0c0.141,0.062,0.089,0.259,0.271,0.242c0.072-0.343,0.061-0.573-0.075-0.83
		c-0.072,0.366-0.287,0.414-0.573,0.316c0-0.212,0-0.411,0-0.626c0.129-0.008,0.24-0.016,0.353-0.016
		c0.124,0,0.247,0.008,0.313,0.012c0.157,0.112,0.082,0.355,0.334,0.309c0-0.181,0-0.347,0-0.508
		C89.637,42.904,88.553,42.925,88.294,43.016z M118.81,44.832c-0.26,0-0.529,0-0.815,0c0-0.259,0-0.498,0-0.754
		c0.152,0,0.286,0,0.414,0c0.07,0.091,0.136,0.176,0.223,0.288c0.12-0.37,0.102-0.658-0.045-0.826
		c-0.055,0.095-0.109,0.185-0.165,0.283c-0.138,0-0.271,0-0.425,0c0-0.223,0-0.428,0-0.64c0.26,0,0.493,0,0.68,0
		c0.157,0.094,0.076,0.324,0.326,0.297c0-0.17,0-0.337,0-0.5c-0.389-0.072-1.547-0.058-1.794,0.028
		c0.05,0.038,0.086,0.081,0.132,0.093c0.123,0.038,0.147,0.117,0.147,0.224c-0.002,0.49-0.001,0.982-0.001,1.475
		c-0.096,0.062-0.184,0.119-0.336,0.218c0.717,0,1.346,0,1.969,0c0-0.195,0-0.37,0-0.564
		C118.862,44.497,118.955,44.736,118.81,44.832z M106.857,43.021c-0.357-0.114-0.694-0.234-1.065-0.048
		c-0.322,0.163-0.455,0.322-0.436,0.621c0.017,0.266,0.171,0.431,0.506,0.535c0.14,0.044,0.282,0.084,0.422,0.13
		c0.161,0.055,0.227,0.174,0.218,0.326c-0.013,0.145-0.157,0.252-0.338,0.267c-0.293,0.025-0.532-0.117-0.669-0.385
		c-0.025-0.056-0.085-0.095-0.18-0.193c0,0.277,0,0.473,0,0.695c0.239,0.041,0.464,0.111,0.685,0.11
		c0.223-0.005,0.455-0.052,0.657-0.135c0.242-0.096,0.343-0.315,0.332-0.556c-0.006-0.235-0.143-0.404-0.373-0.497
		c-0.135-0.054-0.282-0.081-0.418-0.138c-0.104-0.041-0.217-0.085-0.287-0.16c-0.059-0.062-0.105-0.188-0.074-0.253
		c0.035-0.081,0.147-0.159,0.242-0.184c0.234-0.061,0.442,0.044,0.559,0.255c0.048,0.083,0.071,0.193,0.22,0.117
		C106.857,43.361,106.857,43.194,106.857,43.021z M119.435,44.964c0.236,0.044,0.459,0.12,0.682,0.115
		c0.231-0.008,0.487-0.049,0.683-0.152c0.456-0.244,0.412-0.819-0.056-1.031c-0.135-0.061-0.283-0.085-0.42-0.142
		c-0.104-0.039-0.216-0.082-0.292-0.155c-0.188-0.178-0.104-0.399,0.161-0.449c0.236-0.044,0.448,0.052,0.563,0.256
		c0.045,0.088,0.073,0.19,0.215,0.132c0-0.177,0-0.354,0-0.524c-0.156-0.044-0.287-0.083-0.419-0.114
		c-0.342-0.079-0.642,0.023-0.892,0.228c-0.335,0.279-0.231,0.775,0.19,0.952c0.188,0.075,0.389,0.123,0.579,0.193
		c0.148,0.051,0.207,0.173,0.19,0.308c-0.019,0.153-0.131,0.243-0.296,0.271c-0.278,0.043-0.575-0.104-0.695-0.352
		c-0.033-0.073-0.034-0.179-0.194-0.143C119.435,44.537,119.435,44.725,119.435,44.964z M94.817,44.979
		c0.272,0.038,0.529,0.101,0.785,0.1c0.187,0,0.386-0.06,0.558-0.135c0.236-0.109,0.332-0.313,0.322-0.561
		c-0.01-0.242-0.149-0.401-0.376-0.492c-0.135-0.056-0.281-0.088-0.42-0.138c-0.086-0.029-0.174-0.063-0.243-0.113
		c-0.099-0.076-0.17-0.178-0.123-0.312c0.046-0.128,0.161-0.172,0.295-0.186c0.235-0.024,0.407,0.064,0.521,0.273
		c0.042,0.076,0.063,0.169,0.199,0.115c0-0.172,0-0.349,0-0.521c-0.129-0.038-0.239-0.068-0.35-0.099
		c-0.241-0.066-0.469-0.044-0.699,0.063c-0.267,0.124-0.449,0.294-0.446,0.589c0.002,0.277,0.178,0.461,0.518,0.565
		c0.142,0.044,0.288,0.076,0.423,0.131c0.172,0.07,0.254,0.223,0.209,0.361c-0.049,0.147-0.169,0.22-0.334,0.23
		c-0.287,0.021-0.526-0.113-0.653-0.36c-0.035-0.068-0.035-0.186-0.219-0.125C94.795,44.551,94.804,44.744,94.817,44.979z
		 M104.878,43.019c-0.359-0.122-0.698-0.226-1.065-0.038c-0.292,0.15-0.451,0.342-0.432,0.598c0.024,0.297,0.216,0.46,0.503,0.547
		c0.14,0.044,0.284,0.076,0.423,0.129c0.175,0.068,0.26,0.211,0.229,0.35c-0.029,0.143-0.17,0.239-0.355,0.248
		c-0.289,0.017-0.516-0.117-0.642-0.375c-0.038-0.076-0.053-0.177-0.221-0.103c0.015,0.184,0.026,0.38,0.043,0.596
		c0.237,0.042,0.451,0.116,0.661,0.109c0.233-0.008,0.477-0.06,0.691-0.149c0.238-0.096,0.322-0.316,0.309-0.562
		c-0.013-0.228-0.146-0.381-0.359-0.469c-0.145-0.063-0.304-0.089-0.449-0.15c-0.103-0.041-0.214-0.093-0.284-0.168
		c-0.156-0.166-0.082-0.357,0.141-0.421c0.242-0.068,0.481,0.026,0.602,0.239c0.042,0.076,0.051,0.175,0.206,0.141
		C104.878,43.37,104.878,43.192,104.878,43.019z M76.852,44.969c0.01,0.024,0.018,0.049,0.027,0.073
		c0.305-0.024,0.613,0.042,1-0.056c-0.308-0.115-0.355-0.326-0.436-0.523c-0.193-0.48-0.385-0.96-0.583-1.438
		c-0.026-0.059-0.102-0.14-0.151-0.138c-0.074,0.003-0.175,0.057-0.207,0.115c-0.123,0.228-0.216,0.471-0.332,0.703
		c-0.217,0.431-0.25,0.942-0.674,1.308c0.261,0,0.486,0,0.771,0c-0.118-0.093-0.188-0.149-0.264-0.209
		c0.067-0.161,0.13-0.309,0.188-0.452c0.242,0,0.467,0,0.688,0c0.065,0.168,0.127,0.315,0.189,0.474
		C76.988,44.879,76.92,44.925,76.852,44.969z M101.606,44.348c0.246,0,0.46,0,0.684,0c0.066,0.166,0.129,0.322,0.192,0.475
		c-0.087,0.063-0.151,0.107-0.271,0.195c0.381,0,0.686,0,0.992,0c-0.104-0.151-0.222-0.276-0.285-0.423
		c-0.146-0.323-0.262-0.661-0.392-0.991c-0.081-0.199-0.161-0.399-0.256-0.595c-0.084-0.177-0.238-0.185-0.351-0.021
		c-0.037,0.051-0.068,0.11-0.095,0.169c-0.169,0.396-0.342,0.791-0.498,1.192c-0.094,0.235-0.146,0.485-0.481,0.662
		c0.326,0.033,0.556,0.061,0.824-0.022c-0.105-0.07-0.173-0.12-0.254-0.173C101.48,44.656,101.541,44.509,101.606,44.348z
		 M88.02,43.576c0.116-0.318,0.116-0.377,0.029-0.612c-0.649,0-1.299,0-1.94,0c0,0.193,0,0.364,0,0.533
		c0.026,0.008,0.052,0.015,0.078,0.024c0.066-0.114,0.135-0.225,0.207-0.34c0.14,0,0.281,0,0.434,0c0,0.563,0,1.104,0,1.647
		c-0.053,0.105-0.266,0.021-0.25,0.187c0.354,0,0.698,0,1.043,0c0.006-0.013,0.011-0.03,0.016-0.046
		c-0.101-0.055-0.199-0.111-0.285-0.159c0-0.557,0-1.088,0-1.633c0.165,0,0.308,0,0.445,0C87.865,43.302,87.926,43.409,88.02,43.576
		z M115.745,43.178c0,0.519,0.006,1.02-0.007,1.521c0,0.059-0.064,0.125-0.116,0.172c-0.05,0.046-0.121,0.07-0.183,0.103
		c0.005,0.021,0.01,0.042,0.017,0.063c0.351,0.001,0.699,0.011,1.049-0.005c0.005-0.021,0.009-0.043,0.014-0.063
		c-0.089-0.052-0.179-0.103-0.261-0.148c0-0.557,0-1.098,0-1.639c0.167,0,0.311,0,0.409,0c0.145,0.104,0.072,0.312,0.314,0.323
		c0-0.187,0-0.36,0-0.528c-0.393-0.063-1.747-0.049-2.021,0.022c0.026,0.163-0.063,0.34,0.097,0.558
		c0.088-0.144,0.155-0.255,0.229-0.379C115.423,43.178,115.566,43.178,115.745,43.178z M94.523,42.949
		c-0.67-0.019-1.327-0.015-1.983-0.003c0,0.212,0,0.383,0,0.563c0.234-0.029,0.171-0.232,0.303-0.332c0.121,0,0.267,0,0.449,0
		c0,0.408-0.005,0.802,0.002,1.194c0.006,0.254,0.037,0.511-0.293,0.646c0.349,0,0.698,0,1.049,0
		c0.005-0.015,0.011-0.031,0.017-0.046c-0.09-0.051-0.179-0.103-0.263-0.154c0-0.548,0-1.092,0-1.64c0.164,0,0.308,0,0.414,0
		c0.134,0.106,0.07,0.308,0.306,0.33C94.523,43.319,94.523,43.149,94.523,42.949z M81.925,43.023
		c-0.181-0.045-0.32-0.096-0.465-0.113c-0.156-0.02-0.326-0.04-0.473,0c-0.562,0.147-0.843,0.47-0.871,1.02
		c-0.021,0.41,0.074,0.795,0.499,1.018c0.42,0.225,0.835,0.169,1.232-0.064c0.107-0.065,0.216-0.133,0.11-0.298
		c-0.103,0.051-0.194,0.105-0.295,0.149c-0.427,0.192-0.838,0.014-0.964-0.409c-0.076-0.255-0.073-0.506-0.004-0.761
		c0.063-0.224,0.19-0.385,0.453-0.423c0.248-0.036,0.431,0.06,0.582,0.287c0.033,0.049,0.099,0.077,0.188,0.145
		c0.01-0.136,0.019-0.21,0.019-0.281C81.938,43.208,81.929,43.125,81.925,43.023z M92.267,43.016
		c-0.169-0.041-0.311-0.094-0.458-0.109c-0.166-0.014-0.35-0.027-0.504,0.023c-0.606,0.189-0.856,0.562-0.817,1.178
		c0.025,0.389,0.172,0.709,0.577,0.879c0.414,0.178,0.802,0.105,1.171-0.118c0.104-0.065,0.173-0.142,0.076-0.276
		c-0.099,0.05-0.192,0.107-0.294,0.149c-0.347,0.147-0.757,0.041-0.891-0.254c-0.147-0.324-0.149-0.666-0.037-1.004
		c0.072-0.215,0.24-0.346,0.481-0.346c0.221,0.002,0.439,0.038,0.521,0.284c0.015,0.049,0.083,0.083,0.175,0.164
		C92.267,43.36,92.267,43.199,92.267,43.016z M111.427,43.021c-0.173-0.042-0.314-0.082-0.457-0.114
		c-0.524-0.116-1.093,0.176-1.266,0.653c-0.093,0.26-0.082,0.521-0.032,0.792c0.121,0.654,1.033,1.006,1.757,0.483
		c0.094-0.066,0.106-0.147,0.024-0.248c-0.102,0.055-0.187,0.107-0.277,0.147c-0.286,0.127-0.639,0.07-0.821-0.129
		c-0.241-0.262-0.257-1.002-0.026-1.281c0.229-0.277,0.703-0.245,0.89,0.061c0.046,0.072,0.061,0.171,0.209,0.123
		C111.427,43.356,111.427,43.201,111.427,43.021z M84.807,42.971c0.119,0.157,0.319,0.146,0.314,0.34
		c-0.017,0.501-0.007,1.007-0.007,1.492c-0.105,0.07-0.188,0.124-0.313,0.203c0.487,0.059,0.835,0.048,1.087-0.032
		c-0.103-0.063-0.192-0.115-0.287-0.174c0-0.45,0.01-0.889-0.003-1.328c-0.008-0.199,0.022-0.356,0.254-0.423
		c0.008-0.004,0.005-0.038,0.009-0.085C85.529,42.923,85.198,42.923,84.807,42.971z"/>
	<path fill-rule="evenodd" clip-rule="evenodd" d="M99.113,64.42c0-5.733,0-11.474,0-17.238c0.494,0,0.959,0,1.445,0
		c0,6.224,0,12.444,0,18.683c-20.227,0-40.436,0-60.646,0c-0.071-0.229-0.105-56.436-0.032-57.13c20.217,0,40.436,0,60.677,0
		c0,5.556,0,11.113,0,16.687c-0.479,0-0.941,0-1.434,0c0-5.188,0-10.35,0-15.504c-0.29-0.071-57.166-0.104-58.037-0.04
		c-0.074,0.234-0.109,53.787-0.037,54.539C41.301,64.478,98.723,64.488,99.113,64.42z"/>
	<path fill-rule="evenodd" clip-rule="evenodd" d="M80.214,34.421c0-1.275,0.003-2.55-0.003-3.824
		c-0.002-0.385-0.028-0.771-0.05-1.156c-0.016-0.296-0.07-0.342-0.401-0.346c-0.276-0.004-0.551,0.004-0.826-0.003
		c-0.274-0.006-0.405-0.113-0.424-0.365c-0.018-0.192-0.016-0.385-0.004-0.578c0.012-0.215,0.134-0.324,0.37-0.343
		c0.092-0.007,0.183-0.002,0.275-0.002c1.628,0,3.258,0.001,4.888,0c1.045-0.001,2.088-0.01,3.125,0.135
		c0.954,0.132,1.861,0.4,2.678,0.863c1.801,1.019,2.827,2.525,3.065,4.481c0.153,1.262,0.055,2.501-0.425,3.703
		c-0.267,0.667-0.657,1.269-1.13,1.826c-0.757,0.893-1.732,1.461-2.89,1.815c-1.006,0.307-2.03,0.429-3.075,0.433
		c-1.297,0.002-2.596-0.026-3.892-0.028c-0.791-0.005-1.583,0.018-2.373,0.03c-0.597,0.011-0.68-0.062-0.684-0.617
		c-0.001-0.609,0.07-0.674,0.732-0.674c0.218,0,0.436,0.006,0.653-0.004c0.227-0.01,0.277-0.061,0.31-0.27
		c0.01-0.074,0.011-0.148,0.012-0.223c0.038-1.617,0.074-3.235,0.11-4.852C80.24,34.422,80.229,34.422,80.214,34.421z
		 M83.588,34.153c-0.004,0-0.006,0-0.007,0c0,0.365-0.001,0.727,0,1.092c0.003,1.083,0.003,2.164,0.022,3.245
		c0.006,0.242,0.063,0.486,0.12,0.723c0.066,0.268,0.275,0.414,0.554,0.47c0.372,0.073,0.745,0.108,1.126,0.063
		c0.813-0.092,1.508-0.412,2.128-0.899c0.372-0.294,0.679-0.64,0.919-1.032c0.822-1.354,1.16-2.811,0.929-4.357
		c-0.164-1.111-0.6-2.122-1.412-2.978c-0.3-0.318-0.665-0.549-1.04-0.774c-0.777-0.464-1.626-0.68-2.544-0.653
		c-0.693,0.021-0.792,0.119-0.794,0.764C83.585,31.261,83.588,32.708,83.588,34.153z"/>
	<path fill-rule="evenodd" clip-rule="evenodd" d="M113.853,29.101c-0.13-0.008-0.206-0.016-0.283-0.016
		c-0.94,0-1.881,0.01-2.821-0.004c-0.502-0.007-0.896,0.18-1.212,0.514c-0.674,0.715-1.335,1.44-1.996,2.166
		c-0.249,0.272-0.419,0.304-0.731,0.107c-0.041-0.023-0.075-0.051-0.114-0.074c-0.267-0.168-0.314-0.269-0.223-0.565
		c0.095-0.297,0.207-0.59,0.311-0.884c0.27-0.74,0.535-1.48,0.805-2.219c0.106-0.289,0.276-0.396,0.631-0.384
		c0.677,0.023,1.352,0.08,2.026,0.083c1.801,0.009,3.604,0.001,5.403-0.009c0.539-0.003,1.078-0.036,1.617-0.053
		c0.136-0.004,0.277-0.016,0.412,0.006c0.463,0.075,0.653,0.485,0.394,0.851c-0.331,0.463-0.678,0.917-1.015,1.375
		c-1.024,1.395-2.044,2.79-3.067,4.185c-0.594,0.813-1.195,1.622-1.794,2.435c-0.72,0.979-1.438,1.96-2.152,2.939
		c-0.025,0.033-0.042,0.07-0.08,0.143c0.106,0.006,0.181,0.014,0.255,0.014c1.25,0.002,2.502-0.006,3.751,0.004
		c0.608,0.006,1.118-0.152,1.536-0.584c0.585-0.6,1.207-1.174,1.802-1.765c0.342-0.337,0.845-0.327,1.147,0.043
		c0.113,0.136,0.096,0.284,0.033,0.426c-0.444,0.998-0.889,1.993-1.344,2.988c-0.151,0.332-0.365,0.448-0.729,0.407
		c-1.313-0.146-2.63-0.179-3.951-0.188c-1.937-0.018-3.877-0.021-5.815-0.032c-0.162,0-0.323,0-0.482-0.016
		c-0.329-0.031-0.472-0.174-0.447-0.485c0.012-0.146,0.053-0.301,0.13-0.426c0.217-0.341,0.45-0.671,0.688-0.999
		c0.813-1.114,1.63-2.226,2.446-3.338c1.103-1.5,2.208-2.997,3.31-4.498C112.8,30.549,113.307,29.85,113.853,29.101z"/>
	<path fill-rule="evenodd" clip-rule="evenodd" d="M100.108,36.838c0.191-0.451,0.36-0.825,0.508-1.204
		c0.64-1.638,1.28-3.276,1.906-4.919c0.14-0.36,0.245-0.735,0.313-1.112c0.062-0.352-0.095-0.491-0.476-0.508
		c-0.161-0.007-0.321,0.002-0.48-0.002c-0.265-0.008-0.387-0.096-0.414-0.338c-0.025-0.211-0.022-0.428-0.004-0.641
		c0.018-0.197,0.151-0.299,0.368-0.309c0.173-0.007,0.345,0.005,0.518,0.005c1.308-0.002,2.615-0.004,3.923-0.008
		c0.424-0.001,0.534,0.092,0.54,0.481c0.002,0.14,0.008,0.279-0.001,0.418c-0.02,0.273-0.145,0.38-0.434,0.394
		c-0.012,0-0.022,0.001-0.035,0c-0.697-0.071-1.168,0.229-1.46,0.798c-0.327,0.636-0.659,1.271-0.954,1.919
		c-0.508,1.123-0.985,2.258-1.485,3.384c-0.592,1.345-1.188,2.689-1.788,4.03c-0.234,0.524-0.481,1.043-0.72,1.563
		c-0.007,0.01-0.011,0.019-0.017,0.03c-0.157,0.289-0.355,0.534-0.751,0.521c-0.386-0.016-0.544-0.283-0.663-0.572
		c-0.824-2.006-1.653-4.011-2.46-6.023c-0.544-1.351-1.056-2.713-1.581-4.072c-0.136-0.352-0.265-0.706-0.397-1.059
		c-0.166-0.434-0.292-0.519-0.778-0.521c-0.548-0.002-0.638-0.084-0.646-0.592c0-0.085-0.001-0.172,0-0.257
		c0.016-0.331,0.133-0.442,0.483-0.442c0.471,0.001,0.94,0.017,1.411,0.016c1.389-0.003,2.777-0.011,4.166-0.016
		c0.103,0,0.206-0.006,0.311,0.004c0.222,0.022,0.352,0.141,0.368,0.352c0.011,0.181,0.013,0.365-0.001,0.546
		c-0.025,0.269-0.155,0.379-0.442,0.388c-0.218,0.005-0.437-0.003-0.654,0.002c-0.114,0.003-0.229,0.012-0.339,0.037
		c-0.257,0.06-0.294,0.093-0.249,0.333c0.067,0.369,0.136,0.739,0.254,1.095c0.431,1.308,0.882,2.611,1.328,3.915
		c0.236,0.692,0.478,1.383,0.72,2.074C100.021,36.621,100.049,36.69,100.108,36.838z"/>
	<path fill-rule="evenodd" clip-rule="evenodd" d="M115.065,45.018c-0.297,0-0.605,0-0.995,0c0.135-0.088,0.204-0.132,0.294-0.19
		c-0.061-0.153-0.124-0.309-0.194-0.478c-0.218,0-0.434,0-0.682,0c-0.061,0.145-0.123,0.299-0.192,0.468
		c0.078,0.058,0.152,0.109,0.288,0.202c-0.671,0-1.266,0-1.946,0c0.155-0.101,0.242-0.155,0.34-0.219c0-0.491-0.001-0.985,0-1.477
		c0-0.105-0.021-0.188-0.146-0.223c-0.048-0.012-0.084-0.055-0.136-0.091c0.281-0.099,0.796-0.098,1.055,0.004
		c-0.051,0.035-0.091,0.075-0.139,0.091c-0.122,0.036-0.149,0.118-0.147,0.223c0,0.493,0,0.985,0,1.465
		c0.368,0.211,0.49,0.177,0.631-0.164c0.176-0.419,0.338-0.842,0.511-1.264c0.055-0.129,0.116-0.254,0.192-0.374
		c0.109-0.172,0.269-0.164,0.358,0.015c0.074,0.154,0.138,0.316,0.2,0.478c0.134,0.342,0.258,0.688,0.403,1.025
		C114.836,44.678,114.952,44.832,115.065,45.018z M114.084,44.133c-0.089-0.222-0.166-0.412-0.268-0.667
		c-0.094,0.269-0.16,0.458-0.232,0.667C113.759,44.133,113.894,44.133,114.084,44.133z"/>
	<path fill-rule="evenodd" clip-rule="evenodd" d="M82.252,42.992c0.25-0.074,0.705-0.077,1.021,0.013
		c-0.433,0.18-0.256,0.505-0.289,0.811c0.3,0,0.566,0,0.853,0c0.008-0.308,0.147-0.623-0.254-0.831
		c0.355-0.055,0.685-0.057,1.083-0.02c-0.089,0.074-0.12,0.122-0.163,0.134c-0.146,0.035-0.158,0.132-0.156,0.246
		c0.001,0.482,0,0.963,0,1.46c0.091,0.055,0.18,0.11,0.333,0.201c-0.403,0.054-0.731,0.04-1.134,0.015
		c0.097-0.075,0.147-0.104,0.183-0.146c0.049-0.053,0.115-0.111,0.121-0.173c0.015-0.201,0.005-0.402,0.005-0.622
		c-0.294,0-0.553,0-0.842,0c0,0.238,0,0.48,0,0.742c0.067,0.037,0.151,0.085,0.243,0.14c-0.211,0.1-0.669,0.109-1.048,0.023
		c0.099-0.063,0.18-0.112,0.29-0.181c0-0.491,0.01-1.006-0.014-1.517C82.481,43.192,82.342,43.102,82.252,42.992z"/>
	<path fill-rule="evenodd" clip-rule="evenodd" d="M98.098,43.88c-0.059-0.101-0.151-0.205-0.178-0.324
		c-0.027-0.116-0.025-0.266,0.033-0.364c0.214-0.355,0.911-0.406,1.205-0.103c0.163,0.169,0.116,0.512-0.095,0.656
		c-0.084,0.057-0.176,0.101-0.359,0.203c0.125,0.07,0.215,0.114,0.296,0.174c0.081,0.057,0.15,0.127,0.254,0.216
		c0.058-0.106,0.106-0.193,0.158-0.289c-0.093-0.06-0.166-0.104-0.237-0.149c0.034-0.104,0.48-0.114,0.759-0.034
		c-0.172,0.201-0.349,0.41-0.519,0.605c0.139,0.277,0.383,0.378,0.603,0.516c-0.333,0.06-0.661,0.145-0.905-0.142
		c-0.222,0.083-0.412,0.192-0.617,0.228c-0.562,0.101-0.97-0.346-0.751-0.818C97.809,44.11,97.977,44.005,98.098,43.88z M98.274,44
		c-0.105,0.302-0.168,0.516,0.025,0.706c0.132,0.128,0.33,0.106,0.607-0.055C98.712,44.45,98.519,44.252,98.274,44z M98.604,43.777
		c0.173-0.138,0.244-0.272,0.216-0.425c-0.015-0.084-0.081-0.173-0.154-0.222c-0.041-0.029-0.173,0.001-0.207,0.045
		c-0.055,0.066-0.101,0.178-0.075,0.251C98.421,43.542,98.516,43.641,98.604,43.777z"/>
	<path fill-rule="evenodd" clip-rule="evenodd" d="M78.663,44.165c0,0.205,0,0.415,0,0.644c0.078,0.05,0.167,0.103,0.313,0.192
		c-0.398,0.07-0.731,0.028-1.094-0.02c0.083-0.055,0.164-0.108,0.275-0.182c0-0.479-0.01-0.984,0.005-1.483
		c0.008-0.193-0.182-0.19-0.296-0.311c0.083-0.027,0.136-0.062,0.19-0.063c0.311-0.006,0.618-0.006,0.928,0
		c0.092,0.002,0.182,0.022,0.272,0.038c0.23,0.04,0.414,0.145,0.462,0.372c0.045,0.224-0.025,0.425-0.232,0.565
		c-0.054,0.04-0.109,0.076-0.177,0.121c0.263,0.335,0.366,0.771,0.838,0.956c-0.229,0.057-0.449,0.063-0.666,0.028
		c-0.074-0.014-0.146-0.099-0.193-0.167c-0.127-0.179-0.235-0.367-0.355-0.549C78.876,44.222,78.832,44.103,78.663,44.165z
		 M78.663,43.909c0.213,0.062,0.374,0.026,0.472-0.133c0.095-0.156,0.104-0.33-0.001-0.486c-0.111-0.164-0.285-0.14-0.471-0.104
		C78.663,43.427,78.663,43.658,78.663,43.909z"/>
	<path fill-rule="evenodd" clip-rule="evenodd" d="M107.224,44c-0.003-0.549,0.223-0.862,0.758-1.058
		c0.553-0.203,1.24,0.131,1.361,0.68c0.042,0.185,0.046,0.383,0.021,0.571c-0.069,0.575-0.481,0.903-1.084,0.895
		c-0.622-0.012-1.009-0.364-1.054-0.961C107.222,44.083,107.224,44.041,107.224,44z M107.719,43.978
		c0.057,0.208,0.082,0.45,0.188,0.653c0.178,0.338,0.653,0.333,0.822-0.002c0.211-0.419,0.186-0.854-0.02-1.272
		c-0.084-0.165-0.251-0.251-0.453-0.24c-0.188,0.009-0.333,0.11-0.392,0.271C107.798,43.566,107.771,43.757,107.719,43.978z"/>
	<path fill-rule="evenodd" clip-rule="evenodd" d="M88.294,43.016c0.259-0.091,1.343-0.111,1.817-0.043c0,0.161,0,0.327,0,0.508
		c-0.252,0.047-0.177-0.196-0.334-0.309c-0.065-0.004-0.188-0.012-0.313-0.012c-0.112,0-0.224,0.008-0.353,0.016
		c0,0.215,0,0.414,0,0.626c0.286,0.098,0.501,0.05,0.573-0.316c0.136,0.257,0.147,0.487,0.075,0.83
		c-0.183,0.017-0.131-0.181-0.271-0.242c-0.091,0-0.214,0-0.37,0c0,0.249,0,0.496,0,0.761c0.267,0,0.525,0,0.786,0
		c0.165-0.07,0.054-0.347,0.329-0.374c0,0.188,0,0.362,0,0.558c-0.632,0-1.262,0-1.918,0c0.102-0.106,0.221-0.183,0.258-0.285
		c0.044-0.113,0.018-0.253,0.018-0.381c0.001-0.245,0.002-0.49,0-0.736C88.587,43.38,88.664,43.116,88.294,43.016z"/>
	<path fill-rule="evenodd" clip-rule="evenodd" d="M118.81,44.832c0.146-0.096,0.053-0.335,0.31-0.379c0,0.194,0,0.369,0,0.564
		c-0.623,0-1.252,0-1.969,0c0.152-0.099,0.24-0.156,0.336-0.218c0-0.492-0.001-0.984,0.001-1.475c0-0.106-0.024-0.186-0.147-0.224
		c-0.046-0.012-0.082-0.055-0.132-0.093c0.247-0.086,1.405-0.101,1.794-0.028c0,0.163,0,0.33,0,0.5
		c-0.25,0.027-0.169-0.203-0.326-0.297c-0.187,0-0.42,0-0.68,0c0,0.212,0,0.417,0,0.64c0.154,0,0.287,0,0.425,0
		c0.056-0.099,0.11-0.188,0.165-0.283c0.146,0.168,0.165,0.456,0.045,0.826c-0.087-0.112-0.152-0.197-0.223-0.288
		c-0.128,0-0.262,0-0.414,0c0,0.256,0,0.495,0,0.754C118.28,44.832,118.55,44.832,118.81,44.832z"/>
	<path fill-rule="evenodd" clip-rule="evenodd" d="M106.857,43.021c0,0.174,0,0.341,0,0.509c-0.148,0.076-0.172-0.034-0.22-0.117
		c-0.116-0.211-0.324-0.315-0.559-0.255c-0.095,0.024-0.207,0.103-0.242,0.184c-0.031,0.064,0.016,0.191,0.074,0.253
		c0.07,0.075,0.184,0.119,0.287,0.16c0.136,0.057,0.283,0.084,0.418,0.138c0.23,0.093,0.367,0.262,0.373,0.497
		c0.011,0.24-0.09,0.46-0.332,0.556c-0.202,0.083-0.435,0.13-0.657,0.135c-0.221,0.001-0.445-0.069-0.685-0.11
		c0-0.223,0-0.418,0-0.695c0.095,0.099,0.154,0.138,0.18,0.193c0.137,0.268,0.376,0.41,0.669,0.385
		c0.181-0.015,0.325-0.122,0.338-0.267c0.009-0.152-0.057-0.271-0.218-0.326c-0.14-0.046-0.282-0.086-0.422-0.13
		c-0.335-0.104-0.489-0.27-0.506-0.535c-0.02-0.299,0.113-0.458,0.436-0.621C106.163,42.786,106.5,42.906,106.857,43.021z"/>
	<path fill-rule="evenodd" clip-rule="evenodd" d="M119.435,44.964c0-0.239,0-0.427,0-0.607c0.16-0.036,0.161,0.069,0.194,0.143
		c0.12,0.247,0.417,0.395,0.695,0.352c0.165-0.028,0.277-0.118,0.296-0.271c0.017-0.135-0.042-0.257-0.19-0.308
		c-0.19-0.07-0.392-0.118-0.579-0.193c-0.422-0.177-0.525-0.673-0.19-0.952c0.25-0.204,0.55-0.307,0.892-0.228
		c0.132,0.031,0.263,0.07,0.419,0.114c0,0.171,0,0.348,0,0.524c-0.142,0.059-0.17-0.044-0.215-0.132
		c-0.115-0.204-0.327-0.3-0.563-0.256c-0.266,0.05-0.35,0.271-0.161,0.449c0.076,0.073,0.188,0.116,0.292,0.155
		c0.137,0.057,0.285,0.081,0.42,0.142c0.468,0.212,0.512,0.787,0.056,1.031c-0.195,0.104-0.451,0.145-0.683,0.152
		C119.894,45.084,119.671,45.008,119.435,44.964z"/>
	<path fill-rule="evenodd" clip-rule="evenodd" d="M94.817,44.979c-0.014-0.235-0.022-0.429-0.033-0.613
		c0.184-0.061,0.184,0.057,0.219,0.125c0.127,0.247,0.366,0.382,0.653,0.36c0.165-0.011,0.285-0.083,0.334-0.23
		c0.045-0.139-0.037-0.291-0.209-0.361c-0.135-0.055-0.281-0.087-0.423-0.131c-0.34-0.104-0.516-0.288-0.518-0.565
		c-0.003-0.295,0.18-0.465,0.446-0.589c0.23-0.106,0.458-0.129,0.699-0.063c0.11,0.03,0.221,0.061,0.35,0.099
		c0,0.173,0,0.35,0,0.521c-0.136,0.054-0.157-0.039-0.199-0.115c-0.114-0.209-0.286-0.298-0.521-0.273
		c-0.134,0.014-0.249,0.058-0.295,0.186c-0.047,0.134,0.024,0.235,0.123,0.312c0.069,0.051,0.157,0.084,0.243,0.113
		c0.139,0.05,0.285,0.082,0.42,0.138c0.227,0.091,0.366,0.25,0.376,0.492c0.01,0.247-0.086,0.451-0.322,0.561
		c-0.172,0.075-0.371,0.135-0.558,0.135C95.347,45.08,95.09,45.018,94.817,44.979z"/>
	<path fill-rule="evenodd" clip-rule="evenodd" d="M104.878,43.019c0,0.174,0,0.352,0,0.521c-0.155,0.034-0.164-0.064-0.206-0.141
		c-0.12-0.213-0.359-0.308-0.602-0.239c-0.223,0.063-0.297,0.255-0.141,0.421c0.07,0.075,0.182,0.127,0.284,0.168
		c0.146,0.062,0.305,0.087,0.449,0.15c0.214,0.088,0.347,0.241,0.359,0.469c0.014,0.245-0.07,0.466-0.309,0.562
		c-0.215,0.09-0.458,0.142-0.691,0.149c-0.21,0.007-0.424-0.067-0.661-0.109c-0.017-0.216-0.028-0.412-0.043-0.596
		c0.168-0.074,0.183,0.026,0.221,0.103c0.126,0.258,0.353,0.392,0.642,0.375c0.186-0.009,0.326-0.105,0.355-0.248
		c0.03-0.139-0.055-0.281-0.229-0.35c-0.139-0.053-0.283-0.085-0.423-0.129c-0.287-0.087-0.479-0.25-0.503-0.547
		c-0.02-0.256,0.14-0.447,0.432-0.598C104.18,42.793,104.519,42.896,104.878,43.019z"/>
	<path fill-rule="evenodd" clip-rule="evenodd" d="M76.852,44.969c0.068-0.044,0.137-0.09,0.217-0.143
		c-0.063-0.158-0.124-0.306-0.189-0.474c-0.222,0-0.446,0-0.688,0c-0.058,0.144-0.12,0.291-0.188,0.452
		c0.075,0.06,0.146,0.116,0.264,0.209c-0.284,0-0.51,0-0.771,0c0.424-0.365,0.457-0.877,0.674-1.308
		c0.116-0.232,0.209-0.476,0.332-0.703c0.032-0.059,0.133-0.112,0.207-0.115c0.05-0.002,0.125,0.079,0.151,0.138
		c0.198,0.478,0.39,0.957,0.583,1.438c0.08,0.197,0.128,0.408,0.436,0.523c-0.387,0.098-0.695,0.031-1,0.056
		C76.869,45.018,76.861,44.993,76.852,44.969z M76.786,44.125c-0.088-0.216-0.162-0.402-0.263-0.647
		c-0.097,0.251-0.166,0.437-0.245,0.647C76.454,44.125,76.597,44.125,76.786,44.125z"/>
	<path fill-rule="evenodd" clip-rule="evenodd" d="M101.606,44.348c-0.065,0.161-0.126,0.309-0.19,0.469
		c0.081,0.053,0.148,0.103,0.254,0.173c-0.269,0.083-0.498,0.056-0.824,0.022c0.335-0.177,0.388-0.427,0.481-0.662
		c0.156-0.401,0.329-0.796,0.498-1.192c0.026-0.059,0.058-0.118,0.095-0.169c0.112-0.164,0.267-0.156,0.351,0.021
		c0.095,0.195,0.175,0.396,0.256,0.595c0.13,0.33,0.245,0.668,0.392,0.991c0.063,0.146,0.182,0.271,0.285,0.423
		c-0.307,0-0.611,0-0.992,0c0.12-0.088,0.185-0.133,0.271-0.195c-0.063-0.152-0.126-0.309-0.192-0.475
		C102.066,44.348,101.853,44.348,101.606,44.348z M101.944,43.476c-0.093,0.243-0.168,0.437-0.249,0.644c0.184,0,0.33,0,0.503,0
		C102.113,43.906,102.039,43.719,101.944,43.476z"/>
	<path fill-rule="evenodd" clip-rule="evenodd" d="M88.02,43.576c-0.094-0.167-0.154-0.274-0.224-0.398c-0.138,0-0.28,0-0.445,0
		c0,0.545,0,1.076,0,1.633c0.086,0.048,0.185,0.104,0.285,0.159c-0.005,0.016-0.01,0.033-0.016,0.046c-0.345,0-0.688,0-1.043,0
		c-0.016-0.165,0.197-0.081,0.25-0.187c0-0.543,0-1.084,0-1.647c-0.152,0-0.294,0-0.434,0c-0.072,0.115-0.141,0.226-0.207,0.34
		c-0.026-0.01-0.052-0.017-0.078-0.024c0-0.169,0-0.34,0-0.533c0.642,0,1.291,0,1.94,0C88.136,43.199,88.136,43.258,88.02,43.576z"
		/>
	<path fill-rule="evenodd" clip-rule="evenodd" d="M115.745,43.178c-0.179,0-0.322,0-0.46,0c-0.073,0.124-0.141,0.235-0.229,0.379
		c-0.159-0.218-0.07-0.395-0.097-0.558c0.274-0.071,1.629-0.086,2.021-0.022c0,0.168,0,0.342,0,0.528
		c-0.242-0.012-0.17-0.22-0.314-0.323c-0.099,0-0.242,0-0.409,0c0,0.541,0,1.082,0,1.639c0.082,0.046,0.172,0.097,0.261,0.148
		c-0.005,0.021-0.009,0.043-0.014,0.063c-0.35,0.016-0.698,0.006-1.049,0.005c-0.007-0.021-0.012-0.042-0.017-0.063
		c0.062-0.032,0.133-0.057,0.183-0.103c0.052-0.047,0.116-0.113,0.116-0.172C115.751,44.197,115.745,43.696,115.745,43.178z"/>
	<path fill-rule="evenodd" clip-rule="evenodd" d="M94.523,42.949c0,0.2,0,0.37,0,0.559c-0.235-0.022-0.172-0.224-0.306-0.33
		c-0.106,0-0.25,0-0.414,0c0,0.548,0,1.092,0,1.64c0.084,0.052,0.173,0.104,0.263,0.154c-0.006,0.015-0.012,0.031-0.017,0.046
		c-0.351,0-0.7,0-1.049,0c0.33-0.135,0.299-0.392,0.293-0.646c-0.007-0.393-0.002-0.786-0.002-1.194c-0.183,0-0.328,0-0.449,0
		c-0.132,0.1-0.068,0.303-0.303,0.332c0-0.181,0-0.352,0-0.563C93.196,42.935,93.854,42.931,94.523,42.949z"/>
	<path fill-rule="evenodd" clip-rule="evenodd" d="M81.925,43.023c0.004,0.102,0.013,0.185,0.013,0.269
		c0,0.071-0.009,0.146-0.019,0.281c-0.09-0.067-0.155-0.096-0.188-0.145c-0.151-0.228-0.334-0.323-0.582-0.287
		c-0.263,0.038-0.39,0.199-0.453,0.423c-0.069,0.255-0.072,0.506,0.004,0.761c0.126,0.423,0.537,0.602,0.964,0.409
		c0.101-0.044,0.192-0.099,0.295-0.149c0.105,0.165-0.003,0.232-0.11,0.298c-0.397,0.233-0.813,0.289-1.232,0.064
		c-0.425-0.223-0.521-0.607-0.499-1.018c0.028-0.55,0.31-0.872,0.871-1.02c0.146-0.04,0.316-0.02,0.473,0
		C81.604,42.928,81.744,42.979,81.925,43.023z"/>
	<path fill-rule="evenodd" clip-rule="evenodd" d="M92.267,43.016c0,0.184,0,0.345,0,0.57c-0.092-0.081-0.16-0.115-0.175-0.164
		c-0.081-0.246-0.3-0.282-0.521-0.284c-0.241,0-0.409,0.131-0.481,0.346c-0.112,0.338-0.11,0.68,0.037,1.004
		c0.134,0.295,0.544,0.401,0.891,0.254c0.102-0.042,0.195-0.1,0.294-0.149c0.097,0.135,0.028,0.211-0.076,0.276
		c-0.369,0.224-0.757,0.296-1.171,0.118c-0.405-0.17-0.552-0.49-0.577-0.879c-0.039-0.616,0.211-0.988,0.817-1.178
		c0.154-0.051,0.338-0.037,0.504-0.023C91.956,42.922,92.098,42.975,92.267,43.016z"/>
	<path fill-rule="evenodd" clip-rule="evenodd" d="M111.427,43.021c0,0.181,0,0.336,0,0.487c-0.148,0.048-0.163-0.051-0.209-0.123
		c-0.187-0.306-0.661-0.338-0.89-0.061c-0.23,0.279-0.215,1.02,0.026,1.281c0.183,0.199,0.535,0.256,0.821,0.129
		c0.091-0.04,0.176-0.093,0.277-0.147c0.082,0.101,0.069,0.182-0.024,0.248c-0.724,0.522-1.636,0.171-1.757-0.483
		c-0.05-0.271-0.061-0.532,0.032-0.792c0.173-0.478,0.741-0.77,1.266-0.653C111.112,42.938,111.254,42.979,111.427,43.021z"/>
	<path fill-rule="evenodd" clip-rule="evenodd" d="M84.807,42.971c0.392-0.048,0.723-0.048,1.055-0.007
		c-0.004,0.047-0.001,0.081-0.009,0.085c-0.231,0.066-0.262,0.224-0.254,0.423c0.013,0.439,0.003,0.878,0.003,1.328
		c0.095,0.059,0.185,0.111,0.287,0.174c-0.252,0.08-0.6,0.091-1.087,0.032c0.124-0.079,0.207-0.133,0.313-0.203
		c0-0.485-0.01-0.991,0.007-1.492C85.126,43.116,84.926,43.128,84.807,42.971z"/>
	<path fill-rule="evenodd" clip-rule="evenodd" fill="#FFFFFF" d="M83.588,34.153c0-1.446-0.003-2.892,0.001-4.337
		c0.002-0.645,0.101-0.743,0.794-0.764c0.918-0.027,1.767,0.188,2.544,0.653c0.375,0.225,0.74,0.456,1.04,0.774
		c0.813,0.856,1.248,1.867,1.412,2.978c0.231,1.547-0.106,3.004-0.929,4.357c-0.24,0.393-0.547,0.738-0.919,1.032
		c-0.62,0.487-1.315,0.808-2.128,0.899c-0.381,0.045-0.754,0.01-1.126-0.063c-0.278-0.056-0.487-0.202-0.554-0.47
		c-0.058-0.236-0.114-0.48-0.12-0.723c-0.02-1.081-0.02-2.162-0.022-3.245c-0.001-0.365,0-0.728,0-1.092
		C83.582,34.153,83.584,34.153,83.588,34.153z"/>
	<path fill-rule="evenodd" clip-rule="evenodd" fill="#FFFFFF" d="M114.084,44.133c-0.19,0-0.325,0-0.5,0
		c0.072-0.209,0.139-0.398,0.232-0.667C113.918,43.721,113.995,43.911,114.084,44.133z"/>
	<path fill-rule="evenodd" clip-rule="evenodd" fill="#FFFFFF" d="M98.274,44c0.244,0.252,0.438,0.45,0.633,0.651
		c-0.277,0.161-0.476,0.183-0.607,0.055C98.106,44.516,98.169,44.302,98.274,44z"/>
	<path fill-rule="evenodd" clip-rule="evenodd" fill="#FFFFFF" d="M98.604,43.777c-0.089-0.137-0.184-0.235-0.221-0.351
		c-0.025-0.073,0.021-0.185,0.075-0.251c0.034-0.044,0.166-0.074,0.207-0.045c0.073,0.049,0.14,0.138,0.154,0.222
		C98.849,43.505,98.777,43.64,98.604,43.777z"/>
	<path fill-rule="evenodd" clip-rule="evenodd" fill="#FFFFFF" d="M78.663,43.909c0-0.251,0-0.482,0-0.723
		c0.186-0.036,0.359-0.061,0.471,0.104c0.105,0.156,0.096,0.33,0.001,0.486C79.037,43.936,78.876,43.971,78.663,43.909z"/>
	<path fill-rule="evenodd" clip-rule="evenodd" fill="#FFFFFF" d="M107.719,43.978c0.053-0.221,0.079-0.411,0.146-0.591
		c0.059-0.16,0.203-0.262,0.392-0.271c0.202-0.011,0.369,0.075,0.453,0.24c0.205,0.418,0.23,0.854,0.02,1.272
		c-0.169,0.335-0.645,0.34-0.822,0.002C107.801,44.428,107.775,44.186,107.719,43.978z"/>
	<path fill-rule="evenodd" clip-rule="evenodd" fill="#FFFFFF" d="M76.786,44.125c-0.189,0-0.332,0-0.508,0
		c0.079-0.211,0.148-0.396,0.245-0.647C76.624,43.723,76.698,43.909,76.786,44.125z"/>
	<path fill-rule="evenodd" clip-rule="evenodd" fill="#FFFFFF" d="M101.944,43.476c0.095,0.243,0.169,0.431,0.254,0.644
		c-0.173,0-0.319,0-0.503,0C101.776,43.912,101.852,43.719,101.944,43.476z"/>
</g>
</svg>
