<?xml version="1.0" encoding="utf-8"?>
<!-- Generator: Adobe Illustrator 16.0.0, SVG Export Plug-In . SVG Version: 6.00 Build 0)  -->
<!DOCTYPE svg PUBLIC "-//W3C//DTD SVG 1.1//EN" "http://www.w3.org/Graphics/SVG/1.1/DTD/svg11.dtd">
<svg version="1.1" id="Layer_1" xmlns="http://www.w3.org/2000/svg" xmlns:xlink="http://www.w3.org/1999/xlink" x="0px" y="0px"
	 width="147px" height="75px" viewBox="0 0 147 75" enable-background="new 0 0 147 75" xml:space="preserve">
<g display="none">
	<path display="inline" fill-rule="evenodd" clip-rule="evenodd" fill="#FFFFFF" d="M33.25,77c0-26.002,0-52.001,0-78
		c31.5,0,63.001,0,94.5,0c0,25.999,0,51.998,0,78C96.251,77,64.75,77,33.25,77z M99.113,64.42
		c-0.391,0.068-57.812,0.058-58.062-0.004c-0.072-0.752-0.037-54.305,0.037-54.539c0.871-0.064,57.747-0.031,58.037,0.04
		c0,5.154,0,10.316,0,15.504c0.492,0,0.955,0,1.434,0c0-5.574,0-11.131,0-16.687c-20.241,0-40.46,0-60.677,0
		c-0.073,0.694-0.04,56.901,0.032,57.13c20.21,0,40.419,0,60.646,0c0-6.238,0-12.459,0-18.683c-0.486,0-0.951,0-1.445,0
		C99.113,52.946,99.113,58.687,99.113,64.42z M80.214,34.421c0.015,0.001,0.026,0.001,0.043,0.001
		c-0.036,1.616-0.072,3.234-0.11,4.852c-0.001,0.074-0.002,0.148-0.012,0.223c-0.032,0.209-0.083,0.26-0.31,0.27
		c-0.218,0.01-0.436,0.004-0.653,0.004c-0.662,0-0.733,0.064-0.732,0.674c0.004,0.556,0.087,0.628,0.684,0.617
		c0.79-0.013,1.582-0.035,2.373-0.03c1.296,0.002,2.595,0.03,3.892,0.028c1.045-0.004,2.069-0.126,3.075-0.433
		c1.157-0.354,2.133-0.923,2.89-1.815c0.473-0.558,0.863-1.159,1.13-1.826c0.479-1.201,0.578-2.441,0.425-3.703
		c-0.238-1.956-1.265-3.463-3.065-4.481c-0.816-0.463-1.724-0.731-2.678-0.863c-1.037-0.145-2.08-0.136-3.125-0.135
		c-1.63,0.001-3.26,0-4.888,0c-0.093,0-0.184-0.005-0.275,0.002c-0.236,0.02-0.358,0.128-0.37,0.343
		c-0.012,0.193-0.014,0.386,0.004,0.578c0.019,0.252,0.149,0.359,0.424,0.365c0.275,0.007,0.55-0.001,0.826,0.003
		c0.331,0.004,0.386,0.05,0.401,0.346c0.021,0.385,0.048,0.771,0.05,1.156C80.217,31.871,80.214,33.146,80.214,34.421z
		 M113.853,29.101c-0.546,0.749-1.053,1.449-1.563,2.146c-1.102,1.5-2.207,2.998-3.31,4.498c-0.816,1.113-1.633,2.224-2.446,3.338
		c-0.237,0.328-0.471,0.658-0.688,0.999c-0.077,0.125-0.118,0.279-0.13,0.426c-0.024,0.312,0.118,0.454,0.447,0.485
		c0.159,0.016,0.32,0.016,0.482,0.016c1.938,0.011,3.879,0.015,5.815,0.032c1.321,0.01,2.638,0.043,3.951,0.188
		c0.364,0.041,0.578-0.075,0.729-0.407c0.455-0.995,0.899-1.99,1.344-2.988c0.063-0.142,0.08-0.29-0.033-0.426
		c-0.303-0.37-0.806-0.38-1.147-0.043c-0.595,0.591-1.217,1.165-1.802,1.765c-0.418,0.432-0.928,0.59-1.536,0.584
		c-1.249-0.01-2.501-0.002-3.751-0.004c-0.074,0-0.148-0.008-0.255-0.014c0.038-0.072,0.055-0.109,0.08-0.143
		c0.714-0.979,1.433-1.961,2.152-2.939c0.599-0.813,1.2-1.622,1.794-2.435c1.023-1.395,2.043-2.79,3.067-4.185
		c0.337-0.459,0.684-0.912,1.015-1.375c0.26-0.366,0.069-0.776-0.394-0.851c-0.135-0.022-0.276-0.011-0.412-0.006
		c-0.539,0.017-1.078,0.05-1.617,0.053c-1.799,0.01-3.603,0.018-5.403,0.009c-0.675-0.003-1.35-0.06-2.026-0.083
		c-0.354-0.013-0.524,0.095-0.631,0.384c-0.27,0.739-0.535,1.479-0.805,2.219c-0.104,0.294-0.216,0.587-0.311,0.884
		c-0.092,0.296-0.044,0.397,0.223,0.565c0.039,0.023,0.073,0.051,0.114,0.074c0.313,0.197,0.482,0.165,0.731-0.107
		c0.661-0.726,1.322-1.451,1.996-2.166c0.315-0.333,0.71-0.521,1.212-0.514c0.94,0.014,1.881,0.004,2.821,0.004
		C113.646,29.084,113.723,29.093,113.853,29.101z M100.108,36.838c-0.06-0.147-0.087-0.217-0.113-0.289
		c-0.242-0.69-0.483-1.381-0.72-2.074c-0.446-1.304-0.897-2.607-1.328-3.915c-0.118-0.356-0.187-0.727-0.254-1.095
		c-0.045-0.239-0.008-0.272,0.249-0.333c0.109-0.025,0.225-0.034,0.339-0.037c0.218-0.005,0.437,0.003,0.654-0.002
		c0.287-0.008,0.417-0.119,0.442-0.388c0.014-0.182,0.012-0.365,0.001-0.546c-0.017-0.211-0.146-0.33-0.368-0.352
		c-0.104-0.01-0.208-0.004-0.311-0.004c-1.389,0.005-2.777,0.013-4.166,0.016c-0.471,0.001-0.94-0.015-1.411-0.016
		c-0.351,0-0.468,0.111-0.483,0.442c-0.001,0.085,0,0.172,0,0.257c0.008,0.507,0.098,0.589,0.646,0.592
		c0.486,0.001,0.612,0.086,0.778,0.521c0.133,0.353,0.262,0.707,0.397,1.059c0.525,1.358,1.037,2.721,1.581,4.072
		c0.807,2.012,1.636,4.017,2.46,6.023c0.119,0.289,0.277,0.557,0.663,0.572c0.396,0.014,0.594-0.231,0.751-0.521
		c0.006-0.012,0.01-0.021,0.017-0.03c0.238-0.521,0.485-1.039,0.72-1.563c0.601-1.341,1.196-2.685,1.788-4.03
		c0.5-1.126,0.978-2.261,1.485-3.384c0.295-0.648,0.627-1.284,0.954-1.919c0.292-0.569,0.763-0.869,1.46-0.798
		c0.013,0.001,0.023,0,0.035,0c0.289-0.013,0.414-0.121,0.434-0.394c0.009-0.139,0.003-0.278,0.001-0.418
		c-0.006-0.389-0.116-0.482-0.54-0.481c-1.308,0.004-2.615,0.006-3.923,0.008c-0.173,0-0.345-0.012-0.518-0.005
		c-0.217,0.01-0.351,0.112-0.368,0.309c-0.019,0.213-0.021,0.43,0.004,0.641c0.027,0.242,0.149,0.33,0.414,0.338
		c0.159,0.005,0.319-0.005,0.48,0.002c0.381,0.017,0.537,0.156,0.476,0.508c-0.067,0.376-0.173,0.752-0.313,1.112
		c-0.626,1.643-1.267,3.281-1.906,4.919C100.469,36.013,100.3,36.387,100.108,36.838z M115.065,45.018
		c-0.113-0.186-0.229-0.34-0.305-0.509c-0.146-0.338-0.27-0.684-0.403-1.025c-0.063-0.161-0.126-0.323-0.2-0.478
		c-0.09-0.179-0.249-0.187-0.358-0.015c-0.076,0.12-0.138,0.245-0.192,0.374c-0.173,0.422-0.335,0.845-0.511,1.264
		c-0.141,0.341-0.263,0.375-0.631,0.164c0-0.479,0-0.972,0-1.465c-0.002-0.104,0.025-0.187,0.147-0.223
		c0.048-0.016,0.088-0.056,0.139-0.091c-0.259-0.102-0.773-0.103-1.055-0.004c0.052,0.036,0.088,0.079,0.136,0.091
		c0.124,0.034,0.146,0.117,0.146,0.223c-0.001,0.491,0,0.985,0,1.477c-0.098,0.063-0.185,0.118-0.34,0.219c0.681,0,1.275,0,1.946,0
		c-0.136-0.093-0.21-0.145-0.288-0.202c0.069-0.169,0.132-0.323,0.192-0.468c0.248,0,0.464,0,0.682,0
		c0.07,0.169,0.134,0.324,0.194,0.478c-0.09,0.059-0.159,0.103-0.294,0.19C114.46,45.018,114.769,45.018,115.065,45.018z
		 M82.252,42.992c0.09,0.109,0.229,0.2,0.232,0.296c0.023,0.511,0.014,1.025,0.014,1.517c-0.11,0.068-0.191,0.118-0.29,0.181
		c0.379,0.086,0.837,0.076,1.048-0.023c-0.092-0.055-0.176-0.103-0.243-0.14c0-0.262,0-0.504,0-0.742c0.289,0,0.548,0,0.842,0
		c0,0.22,0.01,0.421-0.005,0.622c-0.006,0.062-0.072,0.12-0.121,0.173c-0.035,0.042-0.086,0.07-0.183,0.146
		c0.402,0.025,0.73,0.039,1.134-0.015c-0.153-0.091-0.242-0.146-0.333-0.201c0-0.497,0.001-0.978,0-1.46
		c-0.002-0.114,0.011-0.211,0.156-0.246c0.043-0.012,0.074-0.06,0.163-0.134c-0.398-0.037-0.728-0.035-1.083,0.02
		c0.401,0.208,0.262,0.523,0.254,0.831c-0.286,0-0.553,0-0.853,0c0.033-0.306-0.144-0.631,0.289-0.811
		C82.957,42.915,82.502,42.918,82.252,42.992z M98.098,43.88c-0.121,0.125-0.289,0.23-0.354,0.374
		c-0.219,0.473,0.189,0.919,0.751,0.818c0.205-0.035,0.396-0.145,0.617-0.228c0.244,0.286,0.572,0.201,0.905,0.142
		c-0.22-0.138-0.464-0.238-0.603-0.516c0.17-0.195,0.347-0.404,0.519-0.605c-0.278-0.08-0.725-0.07-0.759,0.034
		c0.071,0.046,0.145,0.09,0.237,0.149c-0.052,0.096-0.101,0.183-0.158,0.289c-0.104-0.089-0.173-0.159-0.254-0.216
		c-0.081-0.06-0.171-0.104-0.296-0.174c0.184-0.103,0.275-0.146,0.359-0.203c0.211-0.145,0.258-0.487,0.095-0.656
		c-0.294-0.304-0.991-0.253-1.205,0.103c-0.059,0.099-0.061,0.248-0.033,0.364C97.946,43.675,98.039,43.779,98.098,43.88z
		 M78.663,44.165c0.169-0.063,0.213,0.057,0.27,0.143c0.12,0.182,0.229,0.37,0.355,0.549c0.048,0.068,0.119,0.153,0.193,0.167
		c0.217,0.034,0.438,0.028,0.666-0.028c-0.472-0.185-0.575-0.621-0.838-0.956c0.067-0.045,0.123-0.081,0.177-0.121
		c0.207-0.141,0.277-0.342,0.232-0.565c-0.048-0.228-0.231-0.332-0.462-0.372c-0.091-0.016-0.181-0.036-0.272-0.038
		c-0.31-0.006-0.617-0.006-0.928,0c-0.055,0.002-0.107,0.036-0.19,0.063c0.114,0.12,0.304,0.117,0.296,0.311
		c-0.015,0.499-0.005,1.004-0.005,1.483c-0.111,0.073-0.192,0.127-0.275,0.182c0.362,0.048,0.695,0.09,1.094,0.02
		c-0.146-0.09-0.234-0.143-0.313-0.192C78.663,44.58,78.663,44.37,78.663,44.165z M107.224,44c0,0.041-0.002,0.083,0.002,0.127
		c0.045,0.597,0.432,0.949,1.054,0.961c0.603,0.009,1.015-0.319,1.084-0.895c0.025-0.188,0.021-0.387-0.021-0.571
		c-0.121-0.549-0.809-0.883-1.361-0.68C107.446,43.138,107.221,43.451,107.224,44z M88.294,43.016c0.37,0.101,0.293,0.364,0.298,0.6
		c0.002,0.246,0.001,0.491,0,0.736c0,0.128,0.026,0.268-0.018,0.381c-0.037,0.103-0.156,0.179-0.258,0.285c0.656,0,1.286,0,1.918,0
		c0-0.195,0-0.369,0-0.558c-0.275,0.027-0.164,0.304-0.329,0.374c-0.261,0-0.52,0-0.786,0c0-0.265,0-0.512,0-0.761
		c0.156,0,0.279,0,0.37,0c0.141,0.062,0.089,0.259,0.271,0.242c0.072-0.343,0.061-0.573-0.075-0.83
		c-0.072,0.366-0.287,0.414-0.573,0.316c0-0.212,0-0.411,0-0.626c0.129-0.008,0.24-0.016,0.353-0.016
		c0.124,0,0.247,0.008,0.313,0.012c0.157,0.112,0.082,0.355,0.334,0.309c0-0.181,0-0.347,0-0.508
		C89.637,42.904,88.553,42.925,88.294,43.016z M118.81,44.832c-0.26,0-0.529,0-0.815,0c0-0.259,0-0.498,0-0.754
		c0.152,0,0.286,0,0.414,0c0.07,0.091,0.136,0.176,0.223,0.288c0.12-0.37,0.102-0.658-0.045-0.826
		c-0.055,0.095-0.109,0.185-0.165,0.283c-0.138,0-0.271,0-0.425,0c0-0.223,0-0.428,0-0.64c0.26,0,0.493,0,0.68,0
		c0.157,0.094,0.076,0.324,0.326,0.297c0-0.17,0-0.337,0-0.5c-0.389-0.072-1.547-0.058-1.794,0.028
		c0.05,0.038,0.086,0.081,0.132,0.093c0.123,0.038,0.147,0.117,0.147,0.224c-0.002,0.49-0.001,0.982-0.001,1.475
		c-0.096,0.062-0.184,0.119-0.336,0.218c0.717,0,1.346,0,1.969,0c0-0.195,0-0.37,0-0.564
		C118.862,44.497,118.955,44.736,118.81,44.832z M106.857,43.021c-0.357-0.114-0.694-0.234-1.065-0.048
		c-0.322,0.163-0.455,0.322-0.436,0.621c0.017,0.266,0.171,0.431,0.506,0.535c0.14,0.044,0.282,0.084,0.422,0.13
		c0.161,0.055,0.227,0.174,0.218,0.326c-0.013,0.145-0.157,0.252-0.338,0.267c-0.293,0.025-0.532-0.117-0.669-0.385
		c-0.025-0.056-0.085-0.095-0.18-0.193c0,0.277,0,0.473,0,0.695c0.239,0.041,0.464,0.111,0.685,0.11
		c0.223-0.005,0.455-0.052,0.657-0.135c0.242-0.096,0.343-0.315,0.332-0.556c-0.006-0.235-0.143-0.404-0.373-0.497
		c-0.135-0.054-0.282-0.081-0.418-0.138c-0.104-0.041-0.217-0.085-0.287-0.16c-0.059-0.062-0.105-0.188-0.074-0.253
		c0.035-0.081,0.147-0.159,0.242-0.184c0.234-0.061,0.442,0.044,0.559,0.255c0.048,0.083,0.071,0.193,0.22,0.117
		C106.857,43.361,106.857,43.194,106.857,43.021z M119.435,44.964c0.236,0.044,0.459,0.12,0.682,0.115
		c0.231-0.008,0.487-0.049,0.683-0.152c0.456-0.244,0.412-0.819-0.056-1.031c-0.135-0.061-0.283-0.085-0.42-0.142
		c-0.104-0.039-0.216-0.082-0.292-0.155c-0.188-0.178-0.104-0.399,0.161-0.449c0.236-0.044,0.448,0.052,0.563,0.256
		c0.045,0.088,0.073,0.19,0.215,0.132c0-0.177,0-0.354,0-0.524c-0.156-0.044-0.287-0.083-0.419-0.114
		c-0.342-0.079-0.642,0.023-0.892,0.228c-0.335,0.279-0.231,0.775,0.19,0.952c0.188,0.075,0.389,0.123,0.579,0.193
		c0.148,0.051,0.207,0.173,0.19,0.308c-0.019,0.153-0.131,0.243-0.296,0.271c-0.278,0.043-0.575-0.104-0.695-0.352
		c-0.033-0.073-0.034-0.179-0.194-0.143C119.435,44.537,119.435,44.725,119.435,44.964z M94.817,44.979
		c0.272,0.038,0.529,0.101,0.785,0.1c0.187,0,0.386-0.06,0.558-0.135c0.236-0.109,0.332-0.313,0.322-0.561
		c-0.01-0.242-0.149-0.401-0.376-0.492c-0.135-0.056-0.281-0.088-0.42-0.138c-0.086-0.029-0.174-0.063-0.243-0.113
		c-0.099-0.076-0.17-0.178-0.123-0.312c0.046-0.128,0.161-0.172,0.295-0.186c0.235-0.024,0.407,0.064,0.521,0.273
		c0.042,0.076,0.063,0.169,0.199,0.115c0-0.172,0-0.349,0-0.521c-0.129-0.038-0.239-0.068-0.35-0.099
		c-0.241-0.066-0.469-0.044-0.699,0.063c-0.267,0.124-0.449,0.294-0.446,0.589c0.002,0.277,0.178,0.461,0.518,0.565
		c0.142,0.044,0.288,0.076,0.423,0.131c0.172,0.07,0.254,0.223,0.209,0.361c-0.049,0.147-0.169,0.22-0.334,0.23
		c-0.287,0.021-0.526-0.113-0.653-0.36c-0.035-0.068-0.035-0.186-0.219-0.125C94.795,44.551,94.804,44.744,94.817,44.979z
		 M104.878,43.019c-0.359-0.122-0.698-0.226-1.065-0.038c-0.292,0.15-0.451,0.342-0.432,0.598c0.024,0.297,0.216,0.46,0.503,0.547
		c0.14,0.044,0.284,0.076,0.423,0.129c0.175,0.068,0.26,0.211,0.229,0.35c-0.029,0.143-0.17,0.239-0.355,0.248
		c-0.289,0.017-0.516-0.117-0.642-0.375c-0.038-0.076-0.053-0.177-0.221-0.103c0.015,0.184,0.026,0.38,0.043,0.596
		c0.237,0.042,0.451,0.116,0.661,0.109c0.233-0.008,0.477-0.06,0.691-0.149c0.238-0.096,0.322-0.316,0.309-0.562
		c-0.013-0.228-0.146-0.381-0.359-0.469c-0.145-0.063-0.304-0.089-0.449-0.15c-0.103-0.041-0.214-0.093-0.284-0.168
		c-0.156-0.166-0.082-0.357,0.141-0.421c0.242-0.068,0.481,0.026,0.602,0.239c0.042,0.076,0.051,0.175,0.206,0.141
		C104.878,43.37,104.878,43.192,104.878,43.019z M76.852,44.969c0.01,0.024,0.018,0.049,0.027,0.073
		c0.305-0.024,0.613,0.042,1-0.056c-0.308-0.115-0.355-0.326-0.436-0.523c-0.193-0.48-0.385-0.96-0.583-1.438
		c-0.026-0.059-0.102-0.14-0.151-0.138c-0.074,0.003-0.175,0.057-0.207,0.115c-0.123,0.228-0.216,0.471-0.332,0.703
		c-0.217,0.431-0.25,0.942-0.674,1.308c0.261,0,0.486,0,0.771,0c-0.118-0.093-0.188-0.149-0.264-0.209
		c0.067-0.161,0.13-0.309,0.188-0.452c0.242,0,0.467,0,0.688,0c0.065,0.168,0.127,0.315,0.189,0.474
		C76.988,44.879,76.92,44.925,76.852,44.969z M101.606,44.348c0.246,0,0.46,0,0.684,0c0.066,0.166,0.129,0.322,0.192,0.475
		c-0.087,0.063-0.151,0.107-0.271,0.195c0.381,0,0.686,0,0.992,0c-0.104-0.151-0.222-0.276-0.285-0.423
		c-0.146-0.323-0.262-0.661-0.392-0.991c-0.081-0.199-0.161-0.399-0.256-0.595c-0.084-0.177-0.238-0.185-0.351-0.021
		c-0.037,0.051-0.068,0.11-0.095,0.169c-0.169,0.396-0.342,0.791-0.498,1.192c-0.094,0.235-0.146,0.485-0.481,0.662
		c0.326,0.033,0.556,0.061,0.824-0.022c-0.105-0.07-0.173-0.12-0.254-0.173C101.48,44.656,101.541,44.509,101.606,44.348z
		 M88.02,43.576c0.116-0.318,0.116-0.377,0.029-0.612c-0.649,0-1.299,0-1.94,0c0,0.193,0,0.364,0,0.533
		c0.026,0.008,0.052,0.015,0.078,0.024c0.066-0.114,0.135-0.225,0.207-0.34c0.14,0,0.281,0,0.434,0c0,0.563,0,1.104,0,1.647
		c-0.053,0.105-0.266,0.021-0.25,0.187c0.354,0,0.698,0,1.043,0c0.006-0.013,0.011-0.03,0.016-0.046
		c-0.101-0.055-0.199-0.111-0.285-0.159c0-0.557,0-1.088,0-1.633c0.165,0,0.308,0,0.445,0C87.865,43.302,87.926,43.409,88.02,43.576
		z M115.745,43.178c0,0.519,0.006,1.02-0.007,1.521c0,0.059-0.064,0.125-0.116,0.172c-0.05,0.046-0.121,0.07-0.183,0.103
		c0.005,0.021,0.01,0.042,0.017,0.063c0.351,0.001,0.699,0.011,1.049-0.005c0.005-0.021,0.009-0.043,0.014-0.063
		c-0.089-0.052-0.179-0.103-0.261-0.148c0-0.557,0-1.098,0-1.639c0.167,0,0.311,0,0.409,0c0.145,0.104,0.072,0.312,0.314,0.323
		c0-0.187,0-0.36,0-0.528c-0.393-0.063-1.747-0.049-2.021,0.022c0.026,0.163-0.063,0.34,0.097,0.558
		c0.088-0.144,0.155-0.255,0.229-0.379C115.423,43.178,115.566,43.178,115.745,43.178z M94.523,42.949
		c-0.67-0.019-1.327-0.015-1.983-0.003c0,0.212,0,0.383,0,0.563c0.234-0.029,0.171-0.232,0.303-0.332c0.121,0,0.267,0,0.449,0
		c0,0.408-0.005,0.802,0.002,1.194c0.006,0.254,0.037,0.511-0.293,0.646c0.349,0,0.698,0,1.049,0
		c0.005-0.015,0.011-0.031,0.017-0.046c-0.09-0.051-0.179-0.103-0.263-0.154c0-0.548,0-1.092,0-1.64c0.164,0,0.308,0,0.414,0
		c0.134,0.106,0.07,0.308,0.306,0.33C94.523,43.319,94.523,43.149,94.523,42.949z M81.925,43.023
		c-0.181-0.045-0.32-0.096-0.465-0.113c-0.156-0.02-0.326-0.04-0.473,0c-0.562,0.147-0.843,0.47-0.871,1.02
		c-0.021,0.41,0.074,0.795,0.499,1.018c0.42,0.225,0.835,0.169,1.232-0.064c0.107-0.065,0.216-0.133,0.11-0.298
		c-0.103,0.051-0.194,0.105-0.295,0.149c-0.427,0.192-0.838,0.014-0.964-0.409c-0.076-0.255-0.073-0.506-0.004-0.761
		c0.063-0.224,0.19-0.385,0.453-0.423c0.248-0.036,0.431,0.06,0.582,0.287c0.033,0.049,0.099,0.077,0.188,0.145
		c0.01-0.136,0.019-0.21,0.019-0.281C81.938,43.208,81.929,43.125,81.925,43.023z M92.267,43.016
		c-0.169-0.041-0.311-0.094-0.458-0.109c-0.166-0.014-0.35-0.027-0.504,0.023c-0.606,0.189-0.856,0.562-0.817,1.178
		c0.025,0.389,0.172,0.709,0.577,0.879c0.414,0.178,0.802,0.105,1.171-0.118c0.104-0.065,0.173-0.142,0.076-0.276
		c-0.099,0.05-0.192,0.107-0.294,0.149c-0.347,0.147-0.757,0.041-0.891-0.254c-0.147-0.324-0.149-0.666-0.037-1.004
		c0.072-0.215,0.24-0.346,0.481-0.346c0.221,0.002,0.439,0.038,0.521,0.284c0.015,0.049,0.083,0.083,0.175,0.164
		C92.267,43.36,92.267,43.199,92.267,43.016z M111.427,43.021c-0.173-0.042-0.314-0.082-0.457-0.114
		c-0.524-0.116-1.093,0.176-1.266,0.653c-0.093,0.26-0.082,0.521-0.032,0.792c0.121,0.654,1.033,1.006,1.757,0.483
		c0.094-0.066,0.106-0.147,0.024-0.248c-0.102,0.055-0.187,0.107-0.277,0.147c-0.286,0.127-0.639,0.07-0.821-0.129
		c-0.241-0.262-0.257-1.002-0.026-1.281c0.229-0.277,0.703-0.245,0.89,0.061c0.046,0.072,0.061,0.171,0.209,0.123
		C111.427,43.356,111.427,43.201,111.427,43.021z M84.807,42.971c0.119,0.157,0.319,0.146,0.314,0.34
		c-0.017,0.501-0.007,1.007-0.007,1.492c-0.105,0.07-0.188,0.124-0.313,0.203c0.487,0.059,0.835,0.048,1.087-0.032
		c-0.103-0.063-0.192-0.115-0.287-0.174c0-0.45,0.01-0.889-0.003-1.328c-0.008-0.199,0.022-0.356,0.254-0.423
		c0.008-0.004,0.005-0.038,0.009-0.085C85.529,42.923,85.198,42.923,84.807,42.971z"/>
	<path display="inline" fill-rule="evenodd" clip-rule="evenodd" d="M99.113,64.42c0-5.733,0-11.474,0-17.238
		c0.494,0,0.959,0,1.445,0c0,6.224,0,12.444,0,18.683c-20.227,0-40.436,0-60.646,0c-0.071-0.229-0.105-56.436-0.032-57.13
		c20.217,0,40.436,0,60.677,0c0,5.556,0,11.113,0,16.687c-0.479,0-0.941,0-1.434,0c0-5.188,0-10.35,0-15.504
		c-0.29-0.071-57.166-0.104-58.037-0.04c-0.074,0.234-0.109,53.787-0.037,54.539C41.301,64.478,98.723,64.488,99.113,64.42z"/>
	<path display="inline" fill-rule="evenodd" clip-rule="evenodd" d="M80.214,34.421c0-1.275,0.003-2.55-0.003-3.824
		c-0.002-0.385-0.028-0.771-0.05-1.156c-0.016-0.296-0.07-0.342-0.401-0.346c-0.276-0.004-0.551,0.004-0.826-0.003
		c-0.274-0.006-0.405-0.113-0.424-0.365c-0.018-0.192-0.016-0.385-0.004-0.578c0.012-0.215,0.134-0.324,0.37-0.343
		c0.092-0.007,0.183-0.002,0.275-0.002c1.628,0,3.258,0.001,4.888,0c1.045-0.001,2.088-0.01,3.125,0.135
		c0.954,0.132,1.861,0.4,2.678,0.863c1.801,1.019,2.827,2.525,3.065,4.481c0.153,1.262,0.055,2.501-0.425,3.703
		c-0.267,0.667-0.657,1.269-1.13,1.826c-0.757,0.893-1.732,1.461-2.89,1.815c-1.006,0.307-2.03,0.429-3.075,0.433
		c-1.297,0.002-2.596-0.026-3.892-0.028c-0.791-0.005-1.583,0.018-2.373,0.03c-0.597,0.011-0.68-0.062-0.684-0.617
		c-0.001-0.609,0.07-0.674,0.732-0.674c0.218,0,0.436,0.006,0.653-0.004c0.227-0.01,0.277-0.061,0.31-0.27
		c0.01-0.074,0.011-0.148,0.012-0.223c0.038-1.617,0.074-3.235,0.11-4.852C80.24,34.422,80.229,34.422,80.214,34.421z
		 M83.588,34.153c-0.004,0-0.006,0-0.007,0c0,0.365-0.001,0.727,0,1.092c0.003,1.083,0.003,2.164,0.022,3.245
		c0.006,0.242,0.063,0.486,0.12,0.723c0.066,0.268,0.275,0.414,0.554,0.47c0.372,0.073,0.745,0.108,1.126,0.063
		c0.813-0.092,1.508-0.412,2.128-0.899c0.372-0.294,0.679-0.64,0.919-1.032c0.822-1.354,1.16-2.811,0.929-4.357
		c-0.164-1.111-0.6-2.122-1.412-2.978c-0.3-0.318-0.665-0.549-1.04-0.774c-0.777-0.464-1.626-0.68-2.544-0.653
		c-0.693,0.021-0.792,0.119-0.794,0.764C83.585,31.261,83.588,32.708,83.588,34.153z"/>
	<path display="inline" fill-rule="evenodd" clip-rule="evenodd" d="M113.853,29.101c-0.13-0.008-0.206-0.016-0.283-0.016
		c-0.94,0-1.881,0.01-2.821-0.004c-0.502-0.007-0.896,0.18-1.212,0.514c-0.674,0.715-1.335,1.44-1.996,2.166
		c-0.249,0.272-0.419,0.304-0.731,0.107c-0.041-0.023-0.075-0.051-0.114-0.074c-0.267-0.168-0.314-0.269-0.223-0.565
		c0.095-0.297,0.207-0.59,0.311-0.884c0.27-0.74,0.535-1.48,0.805-2.219c0.106-0.289,0.276-0.396,0.631-0.384
		c0.677,0.023,1.352,0.08,2.026,0.083c1.801,0.009,3.604,0.001,5.403-0.009c0.539-0.003,1.078-0.036,1.617-0.053
		c0.136-0.004,0.277-0.016,0.412,0.006c0.463,0.075,0.653,0.485,0.394,0.851c-0.331,0.463-0.678,0.917-1.015,1.375
		c-1.024,1.395-2.044,2.79-3.067,4.185c-0.594,0.813-1.195,1.622-1.794,2.435c-0.72,0.979-1.438,1.96-2.152,2.939
		c-0.025,0.033-0.042,0.07-0.08,0.143c0.106,0.006,0.181,0.014,0.255,0.014c1.25,0.002,2.502-0.006,3.751,0.004
		c0.608,0.006,1.118-0.152,1.536-0.584c0.585-0.6,1.207-1.174,1.802-1.765c0.342-0.337,0.845-0.327,1.147,0.043
		c0.113,0.136,0.096,0.284,0.033,0.426c-0.444,0.998-0.889,1.993-1.344,2.988c-0.151,0.332-0.365,0.448-0.729,0.407
		c-1.313-0.146-2.63-0.179-3.951-0.188c-1.937-0.018-3.877-0.021-5.815-0.032c-0.162,0-0.323,0-0.482-0.016
		c-0.329-0.031-0.472-0.174-0.447-0.485c0.012-0.146,0.053-0.301,0.13-0.426c0.217-0.341,0.45-0.671,0.688-0.999
		c0.813-1.114,1.63-2.226,2.446-3.338c1.103-1.5,2.208-2.997,3.31-4.498C112.8,30.549,113.307,29.85,113.853,29.101z"/>
	<path display="inline" fill-rule="evenodd" clip-rule="evenodd" d="M100.108,36.838c0.191-0.451,0.36-0.825,0.508-1.204
		c0.64-1.638,1.28-3.276,1.906-4.919c0.14-0.36,0.245-0.735,0.313-1.112c0.062-0.352-0.095-0.491-0.476-0.508
		c-0.161-0.007-0.321,0.002-0.48-0.002c-0.265-0.008-0.387-0.096-0.414-0.338c-0.025-0.211-0.022-0.428-0.004-0.641
		c0.018-0.197,0.151-0.299,0.368-0.309c0.173-0.007,0.345,0.005,0.518,0.005c1.308-0.002,2.615-0.004,3.923-0.008
		c0.424-0.001,0.534,0.092,0.54,0.481c0.002,0.14,0.008,0.279-0.001,0.418c-0.02,0.273-0.145,0.38-0.434,0.394
		c-0.012,0-0.022,0.001-0.035,0c-0.697-0.071-1.168,0.229-1.46,0.798c-0.327,0.636-0.659,1.271-0.954,1.919
		c-0.508,1.123-0.985,2.258-1.485,3.384c-0.592,1.345-1.188,2.689-1.788,4.03c-0.234,0.524-0.481,1.043-0.72,1.563
		c-0.007,0.01-0.011,0.019-0.017,0.03c-0.157,0.289-0.355,0.534-0.751,0.521c-0.386-0.016-0.544-0.283-0.663-0.572
		c-0.824-2.006-1.653-4.011-2.46-6.023c-0.544-1.351-1.056-2.713-1.581-4.072c-0.136-0.352-0.265-0.706-0.397-1.059
		c-0.166-0.434-0.292-0.519-0.778-0.521c-0.548-0.002-0.638-0.084-0.646-0.592c0-0.085-0.001-0.172,0-0.257
		c0.016-0.331,0.133-0.442,0.483-0.442c0.471,0.001,0.94,0.017,1.411,0.016c1.389-0.003,2.777-0.011,4.166-0.016
		c0.103,0,0.206-0.006,0.311,0.004c0.222,0.022,0.352,0.141,0.368,0.352c0.011,0.181,0.013,0.365-0.001,0.546
		c-0.025,0.269-0.155,0.379-0.442,0.388c-0.218,0.005-0.437-0.003-0.654,0.002c-0.114,0.003-0.229,0.012-0.339,0.037
		c-0.257,0.06-0.294,0.093-0.249,0.333c0.067,0.369,0.136,0.739,0.254,1.095c0.431,1.308,0.882,2.611,1.328,3.915
		c0.236,0.692,0.478,1.383,0.72,2.074C100.021,36.621,100.049,36.69,100.108,36.838z"/>
	<path display="inline" fill-rule="evenodd" clip-rule="evenodd" d="M115.065,45.018c-0.297,0-0.605,0-0.995,0
		c0.135-0.088,0.204-0.132,0.294-0.19c-0.061-0.153-0.124-0.309-0.194-0.478c-0.218,0-0.434,0-0.682,0
		c-0.061,0.145-0.123,0.299-0.192,0.468c0.078,0.058,0.152,0.109,0.288,0.202c-0.671,0-1.266,0-1.946,0
		c0.155-0.101,0.242-0.155,0.34-0.219c0-0.491-0.001-0.985,0-1.477c0-0.105-0.021-0.188-0.146-0.223
		c-0.048-0.012-0.084-0.055-0.136-0.091c0.281-0.099,0.796-0.098,1.055,0.004c-0.051,0.035-0.091,0.075-0.139,0.091
		c-0.122,0.036-0.149,0.118-0.147,0.223c0,0.493,0,0.985,0,1.465c0.368,0.211,0.49,0.177,0.631-0.164
		c0.176-0.419,0.338-0.842,0.511-1.264c0.055-0.129,0.116-0.254,0.192-0.374c0.109-0.172,0.269-0.164,0.358,0.015
		c0.074,0.154,0.138,0.316,0.2,0.478c0.134,0.342,0.258,0.688,0.403,1.025C114.836,44.678,114.952,44.832,115.065,45.018z
		 M114.084,44.133c-0.089-0.222-0.166-0.412-0.268-0.667c-0.094,0.269-0.16,0.458-0.232,0.667
		C113.759,44.133,113.894,44.133,114.084,44.133z"/>
	<path display="inline" fill-rule="evenodd" clip-rule="evenodd" d="M82.252,42.992c0.25-0.074,0.705-0.077,1.021,0.013
		c-0.433,0.18-0.256,0.505-0.289,0.811c0.3,0,0.566,0,0.853,0c0.008-0.308,0.147-0.623-0.254-0.831
		c0.355-0.055,0.685-0.057,1.083-0.02c-0.089,0.074-0.12,0.122-0.163,0.134c-0.146,0.035-0.158,0.132-0.156,0.246
		c0.001,0.482,0,0.963,0,1.46c0.091,0.055,0.18,0.11,0.333,0.201c-0.403,0.054-0.731,0.04-1.134,0.015
		c0.097-0.075,0.147-0.104,0.183-0.146c0.049-0.053,0.115-0.111,0.121-0.173c0.015-0.201,0.005-0.402,0.005-0.622
		c-0.294,0-0.553,0-0.842,0c0,0.238,0,0.48,0,0.742c0.067,0.037,0.151,0.085,0.243,0.14c-0.211,0.1-0.669,0.109-1.048,0.023
		c0.099-0.063,0.18-0.112,0.29-0.181c0-0.491,0.01-1.006-0.014-1.517C82.481,43.192,82.342,43.102,82.252,42.992z"/>
	<path display="inline" fill-rule="evenodd" clip-rule="evenodd" d="M98.098,43.88c-0.059-0.101-0.151-0.205-0.178-0.324
		c-0.027-0.116-0.025-0.266,0.033-0.364c0.214-0.355,0.911-0.406,1.205-0.103c0.163,0.169,0.116,0.512-0.095,0.656
		c-0.084,0.057-0.176,0.101-0.359,0.203c0.125,0.07,0.215,0.114,0.296,0.174c0.081,0.057,0.15,0.127,0.254,0.216
		c0.058-0.106,0.106-0.193,0.158-0.289c-0.093-0.06-0.166-0.104-0.237-0.149c0.034-0.104,0.48-0.114,0.759-0.034
		c-0.172,0.201-0.349,0.41-0.519,0.605c0.139,0.277,0.383,0.378,0.603,0.516c-0.333,0.06-0.661,0.145-0.905-0.142
		c-0.222,0.083-0.412,0.192-0.617,0.228c-0.562,0.101-0.97-0.346-0.751-0.818C97.809,44.11,97.977,44.005,98.098,43.88z M98.274,44
		c-0.105,0.302-0.168,0.516,0.025,0.706c0.132,0.128,0.33,0.106,0.607-0.055C98.712,44.45,98.519,44.252,98.274,44z M98.604,43.777
		c0.173-0.138,0.244-0.272,0.216-0.425c-0.015-0.084-0.081-0.173-0.154-0.222c-0.041-0.029-0.173,0.001-0.207,0.045
		c-0.055,0.066-0.101,0.178-0.075,0.251C98.421,43.542,98.516,43.641,98.604,43.777z"/>
	<path display="inline" fill-rule="evenodd" clip-rule="evenodd" d="M78.663,44.165c0,0.205,0,0.415,0,0.644
		c0.078,0.05,0.167,0.103,0.313,0.192c-0.398,0.07-0.731,0.028-1.094-0.02c0.083-0.055,0.164-0.108,0.275-0.182
		c0-0.479-0.01-0.984,0.005-1.483c0.008-0.193-0.182-0.19-0.296-0.311c0.083-0.027,0.136-0.062,0.19-0.063
		c0.311-0.006,0.618-0.006,0.928,0c0.092,0.002,0.182,0.022,0.272,0.038c0.23,0.04,0.414,0.145,0.462,0.372
		c0.045,0.224-0.025,0.425-0.232,0.565c-0.054,0.04-0.109,0.076-0.177,0.121c0.263,0.335,0.366,0.771,0.838,0.956
		c-0.229,0.057-0.449,0.063-0.666,0.028c-0.074-0.014-0.146-0.099-0.193-0.167c-0.127-0.179-0.235-0.367-0.355-0.549
		C78.876,44.222,78.832,44.103,78.663,44.165z M78.663,43.909c0.213,0.062,0.374,0.026,0.472-0.133
		c0.095-0.156,0.104-0.33-0.001-0.486c-0.111-0.164-0.285-0.14-0.471-0.104C78.663,43.427,78.663,43.658,78.663,43.909z"/>
	<path display="inline" fill-rule="evenodd" clip-rule="evenodd" d="M107.224,44c-0.003-0.549,0.223-0.862,0.758-1.058
		c0.553-0.203,1.24,0.131,1.361,0.68c0.042,0.185,0.046,0.383,0.021,0.571c-0.069,0.575-0.481,0.903-1.084,0.895
		c-0.622-0.012-1.009-0.364-1.054-0.961C107.222,44.083,107.224,44.041,107.224,44z M107.719,43.978
		c0.057,0.208,0.082,0.45,0.188,0.653c0.178,0.338,0.653,0.333,0.822-0.002c0.211-0.419,0.186-0.854-0.02-1.272
		c-0.084-0.165-0.251-0.251-0.453-0.24c-0.188,0.009-0.333,0.11-0.392,0.271C107.798,43.566,107.771,43.757,107.719,43.978z"/>
	<path display="inline" fill-rule="evenodd" clip-rule="evenodd" d="M88.294,43.016c0.259-0.091,1.343-0.111,1.817-0.043
		c0,0.161,0,0.327,0,0.508c-0.252,0.047-0.177-0.196-0.334-0.309c-0.065-0.004-0.188-0.012-0.313-0.012
		c-0.112,0-0.224,0.008-0.353,0.016c0,0.215,0,0.414,0,0.626c0.286,0.098,0.501,0.05,0.573-0.316
		c0.136,0.257,0.147,0.487,0.075,0.83c-0.183,0.017-0.131-0.181-0.271-0.242c-0.091,0-0.214,0-0.37,0c0,0.249,0,0.496,0,0.761
		c0.267,0,0.525,0,0.786,0c0.165-0.07,0.054-0.347,0.329-0.374c0,0.188,0,0.362,0,0.558c-0.632,0-1.262,0-1.918,0
		c0.102-0.106,0.221-0.183,0.258-0.285c0.044-0.113,0.018-0.253,0.018-0.381c0.001-0.245,0.002-0.49,0-0.736
		C88.587,43.38,88.664,43.116,88.294,43.016z"/>
	<path display="inline" fill-rule="evenodd" clip-rule="evenodd" d="M118.81,44.832c0.146-0.096,0.053-0.335,0.31-0.379
		c0,0.194,0,0.369,0,0.564c-0.623,0-1.252,0-1.969,0c0.152-0.099,0.24-0.156,0.336-0.218c0-0.492-0.001-0.984,0.001-1.475
		c0-0.106-0.024-0.186-0.147-0.224c-0.046-0.012-0.082-0.055-0.132-0.093c0.247-0.086,1.405-0.101,1.794-0.028c0,0.163,0,0.33,0,0.5
		c-0.25,0.027-0.169-0.203-0.326-0.297c-0.187,0-0.42,0-0.68,0c0,0.212,0,0.417,0,0.64c0.154,0,0.287,0,0.425,0
		c0.056-0.099,0.11-0.188,0.165-0.283c0.146,0.168,0.165,0.456,0.045,0.826c-0.087-0.112-0.152-0.197-0.223-0.288
		c-0.128,0-0.262,0-0.414,0c0,0.256,0,0.495,0,0.754C118.28,44.832,118.55,44.832,118.81,44.832z"/>
	<path display="inline" fill-rule="evenodd" clip-rule="evenodd" d="M106.857,43.021c0,0.174,0,0.341,0,0.509
		c-0.148,0.076-0.172-0.034-0.22-0.117c-0.116-0.211-0.324-0.315-0.559-0.255c-0.095,0.024-0.207,0.103-0.242,0.184
		c-0.031,0.064,0.016,0.191,0.074,0.253c0.07,0.075,0.184,0.119,0.287,0.16c0.136,0.057,0.283,0.084,0.418,0.138
		c0.23,0.093,0.367,0.262,0.373,0.497c0.011,0.24-0.09,0.46-0.332,0.556c-0.202,0.083-0.435,0.13-0.657,0.135
		c-0.221,0.001-0.445-0.069-0.685-0.11c0-0.223,0-0.418,0-0.695c0.095,0.099,0.154,0.138,0.18,0.193
		c0.137,0.268,0.376,0.41,0.669,0.385c0.181-0.015,0.325-0.122,0.338-0.267c0.009-0.152-0.057-0.271-0.218-0.326
		c-0.14-0.046-0.282-0.086-0.422-0.13c-0.335-0.104-0.489-0.27-0.506-0.535c-0.02-0.299,0.113-0.458,0.436-0.621
		C106.163,42.786,106.5,42.906,106.857,43.021z"/>
	<path display="inline" fill-rule="evenodd" clip-rule="evenodd" d="M119.435,44.964c0-0.239,0-0.427,0-0.607
		c0.16-0.036,0.161,0.069,0.194,0.143c0.12,0.247,0.417,0.395,0.695,0.352c0.165-0.028,0.277-0.118,0.296-0.271
		c0.017-0.135-0.042-0.257-0.19-0.308c-0.19-0.07-0.392-0.118-0.579-0.193c-0.422-0.177-0.525-0.673-0.19-0.952
		c0.25-0.204,0.55-0.307,0.892-0.228c0.132,0.031,0.263,0.07,0.419,0.114c0,0.171,0,0.348,0,0.524
		c-0.142,0.059-0.17-0.044-0.215-0.132c-0.115-0.204-0.327-0.3-0.563-0.256c-0.266,0.05-0.35,0.271-0.161,0.449
		c0.076,0.073,0.188,0.116,0.292,0.155c0.137,0.057,0.285,0.081,0.42,0.142c0.468,0.212,0.512,0.787,0.056,1.031
		c-0.195,0.104-0.451,0.145-0.683,0.152C119.894,45.084,119.671,45.008,119.435,44.964z"/>
	<path display="inline" fill-rule="evenodd" clip-rule="evenodd" d="M94.817,44.979c-0.014-0.235-0.022-0.429-0.033-0.613
		c0.184-0.061,0.184,0.057,0.219,0.125c0.127,0.247,0.366,0.382,0.653,0.36c0.165-0.011,0.285-0.083,0.334-0.23
		c0.045-0.139-0.037-0.291-0.209-0.361c-0.135-0.055-0.281-0.087-0.423-0.131c-0.34-0.104-0.516-0.288-0.518-0.565
		c-0.003-0.295,0.18-0.465,0.446-0.589c0.23-0.106,0.458-0.129,0.699-0.063c0.11,0.03,0.221,0.061,0.35,0.099
		c0,0.173,0,0.35,0,0.521c-0.136,0.054-0.157-0.039-0.199-0.115c-0.114-0.209-0.286-0.298-0.521-0.273
		c-0.134,0.014-0.249,0.058-0.295,0.186c-0.047,0.134,0.024,0.235,0.123,0.312c0.069,0.051,0.157,0.084,0.243,0.113
		c0.139,0.05,0.285,0.082,0.42,0.138c0.227,0.091,0.366,0.25,0.376,0.492c0.01,0.247-0.086,0.451-0.322,0.561
		c-0.172,0.075-0.371,0.135-0.558,0.135C95.347,45.08,95.09,45.018,94.817,44.979z"/>
	<path display="inline" fill-rule="evenodd" clip-rule="evenodd" d="M104.878,43.019c0,0.174,0,0.352,0,0.521
		c-0.155,0.034-0.164-0.064-0.206-0.141c-0.12-0.213-0.359-0.308-0.602-0.239c-0.223,0.063-0.297,0.255-0.141,0.421
		c0.07,0.075,0.182,0.127,0.284,0.168c0.146,0.062,0.305,0.087,0.449,0.15c0.214,0.088,0.347,0.241,0.359,0.469
		c0.014,0.245-0.07,0.466-0.309,0.562c-0.215,0.09-0.458,0.142-0.691,0.149c-0.21,0.007-0.424-0.067-0.661-0.109
		c-0.017-0.216-0.028-0.412-0.043-0.596c0.168-0.074,0.183,0.026,0.221,0.103c0.126,0.258,0.353,0.392,0.642,0.375
		c0.186-0.009,0.326-0.105,0.355-0.248c0.03-0.139-0.055-0.281-0.229-0.35c-0.139-0.053-0.283-0.085-0.423-0.129
		c-0.287-0.087-0.479-0.25-0.503-0.547c-0.02-0.256,0.14-0.447,0.432-0.598C104.18,42.793,104.519,42.896,104.878,43.019z"/>
	<path display="inline" fill-rule="evenodd" clip-rule="evenodd" d="M76.852,44.969c0.068-0.044,0.137-0.09,0.217-0.143
		c-0.063-0.158-0.124-0.306-0.189-0.474c-0.222,0-0.446,0-0.688,0c-0.058,0.144-0.12,0.291-0.188,0.452
		c0.075,0.06,0.146,0.116,0.264,0.209c-0.284,0-0.51,0-0.771,0c0.424-0.365,0.457-0.877,0.674-1.308
		c0.116-0.232,0.209-0.476,0.332-0.703c0.032-0.059,0.133-0.112,0.207-0.115c0.05-0.002,0.125,0.079,0.151,0.138
		c0.198,0.478,0.39,0.957,0.583,1.438c0.08,0.197,0.128,0.408,0.436,0.523c-0.387,0.098-0.695,0.031-1,0.056
		C76.869,45.018,76.861,44.993,76.852,44.969z M76.786,44.125c-0.088-0.216-0.162-0.402-0.263-0.647
		c-0.097,0.251-0.166,0.437-0.245,0.647C76.454,44.125,76.597,44.125,76.786,44.125z"/>
	<path display="inline" fill-rule="evenodd" clip-rule="evenodd" d="M101.606,44.348c-0.065,0.161-0.126,0.309-0.19,0.469
		c0.081,0.053,0.148,0.103,0.254,0.173c-0.269,0.083-0.498,0.056-0.824,0.022c0.335-0.177,0.388-0.427,0.481-0.662
		c0.156-0.401,0.329-0.796,0.498-1.192c0.026-0.059,0.058-0.118,0.095-0.169c0.112-0.164,0.267-0.156,0.351,0.021
		c0.095,0.195,0.175,0.396,0.256,0.595c0.13,0.33,0.245,0.668,0.392,0.991c0.063,0.146,0.182,0.271,0.285,0.423
		c-0.307,0-0.611,0-0.992,0c0.12-0.088,0.185-0.133,0.271-0.195c-0.063-0.152-0.126-0.309-0.192-0.475
		C102.066,44.348,101.853,44.348,101.606,44.348z M101.944,43.476c-0.093,0.243-0.168,0.437-0.249,0.644c0.184,0,0.33,0,0.503,0
		C102.113,43.906,102.039,43.719,101.944,43.476z"/>
	<path display="inline" fill-rule="evenodd" clip-rule="evenodd" d="M88.02,43.576c-0.094-0.167-0.154-0.274-0.224-0.398
		c-0.138,0-0.28,0-0.445,0c0,0.545,0,1.076,0,1.633c0.086,0.048,0.185,0.104,0.285,0.159c-0.005,0.016-0.01,0.033-0.016,0.046
		c-0.345,0-0.688,0-1.043,0c-0.016-0.165,0.197-0.081,0.25-0.187c0-0.543,0-1.084,0-1.647c-0.152,0-0.294,0-0.434,0
		c-0.072,0.115-0.141,0.226-0.207,0.34c-0.026-0.01-0.052-0.017-0.078-0.024c0-0.169,0-0.34,0-0.533c0.642,0,1.291,0,1.94,0
		C88.136,43.199,88.136,43.258,88.02,43.576z"/>
	<path display="inline" fill-rule="evenodd" clip-rule="evenodd" d="M115.745,43.178c-0.179,0-0.322,0-0.46,0
		c-0.073,0.124-0.141,0.235-0.229,0.379c-0.159-0.218-0.07-0.395-0.097-0.558c0.274-0.071,1.629-0.086,2.021-0.022
		c0,0.168,0,0.342,0,0.528c-0.242-0.012-0.17-0.22-0.314-0.323c-0.099,0-0.242,0-0.409,0c0,0.541,0,1.082,0,1.639
		c0.082,0.046,0.172,0.097,0.261,0.148c-0.005,0.021-0.009,0.043-0.014,0.063c-0.35,0.016-0.698,0.006-1.049,0.005
		c-0.007-0.021-0.012-0.042-0.017-0.063c0.062-0.032,0.133-0.057,0.183-0.103c0.052-0.047,0.116-0.113,0.116-0.172
		C115.751,44.197,115.745,43.696,115.745,43.178z"/>
	<path display="inline" fill-rule="evenodd" clip-rule="evenodd" d="M94.523,42.949c0,0.2,0,0.37,0,0.559
		c-0.235-0.022-0.172-0.224-0.306-0.33c-0.106,0-0.25,0-0.414,0c0,0.548,0,1.092,0,1.64c0.084,0.052,0.173,0.104,0.263,0.154
		c-0.006,0.015-0.012,0.031-0.017,0.046c-0.351,0-0.7,0-1.049,0c0.33-0.135,0.299-0.392,0.293-0.646
		c-0.007-0.393-0.002-0.786-0.002-1.194c-0.183,0-0.328,0-0.449,0c-0.132,0.1-0.068,0.303-0.303,0.332c0-0.181,0-0.352,0-0.563
		C93.196,42.935,93.854,42.931,94.523,42.949z"/>
	<path display="inline" fill-rule="evenodd" clip-rule="evenodd" d="M81.925,43.023c0.004,0.102,0.013,0.185,0.013,0.269
		c0,0.071-0.009,0.146-0.019,0.281c-0.09-0.067-0.155-0.096-0.188-0.145c-0.151-0.228-0.334-0.323-0.582-0.287
		c-0.263,0.038-0.39,0.199-0.453,0.423c-0.069,0.255-0.072,0.506,0.004,0.761c0.126,0.423,0.537,0.602,0.964,0.409
		c0.101-0.044,0.192-0.099,0.295-0.149c0.105,0.165-0.003,0.232-0.11,0.298c-0.397,0.233-0.813,0.289-1.232,0.064
		c-0.425-0.223-0.521-0.607-0.499-1.018c0.028-0.55,0.31-0.872,0.871-1.02c0.146-0.04,0.316-0.02,0.473,0
		C81.604,42.928,81.744,42.979,81.925,43.023z"/>
	<path display="inline" fill-rule="evenodd" clip-rule="evenodd" d="M92.267,43.016c0,0.184,0,0.345,0,0.57
		c-0.092-0.081-0.16-0.115-0.175-0.164c-0.081-0.246-0.3-0.282-0.521-0.284c-0.241,0-0.409,0.131-0.481,0.346
		c-0.112,0.338-0.11,0.68,0.037,1.004c0.134,0.295,0.544,0.401,0.891,0.254c0.102-0.042,0.195-0.1,0.294-0.149
		c0.097,0.135,0.028,0.211-0.076,0.276c-0.369,0.224-0.757,0.296-1.171,0.118c-0.405-0.17-0.552-0.49-0.577-0.879
		c-0.039-0.616,0.211-0.988,0.817-1.178c0.154-0.051,0.338-0.037,0.504-0.023C91.956,42.922,92.098,42.975,92.267,43.016z"/>
	<path display="inline" fill-rule="evenodd" clip-rule="evenodd" d="M111.427,43.021c0,0.181,0,0.336,0,0.487
		c-0.148,0.048-0.163-0.051-0.209-0.123c-0.187-0.306-0.661-0.338-0.89-0.061c-0.23,0.279-0.215,1.02,0.026,1.281
		c0.183,0.199,0.535,0.256,0.821,0.129c0.091-0.04,0.176-0.093,0.277-0.147c0.082,0.101,0.069,0.182-0.024,0.248
		c-0.724,0.522-1.636,0.171-1.757-0.483c-0.05-0.271-0.061-0.532,0.032-0.792c0.173-0.478,0.741-0.77,1.266-0.653
		C111.112,42.938,111.254,42.979,111.427,43.021z"/>
	<path display="inline" fill-rule="evenodd" clip-rule="evenodd" d="M84.807,42.971c0.392-0.048,0.723-0.048,1.055-0.007
		c-0.004,0.047-0.001,0.081-0.009,0.085c-0.231,0.066-0.262,0.224-0.254,0.423c0.013,0.439,0.003,0.878,0.003,1.328
		c0.095,0.059,0.185,0.111,0.287,0.174c-0.252,0.08-0.6,0.091-1.087,0.032c0.124-0.079,0.207-0.133,0.313-0.203
		c0-0.485-0.01-0.991,0.007-1.492C85.126,43.116,84.926,43.128,84.807,42.971z"/>
	<path display="inline" fill-rule="evenodd" clip-rule="evenodd" fill="#FFFFFF" d="M83.588,34.153c0-1.446-0.003-2.892,0.001-4.337
		c0.002-0.645,0.101-0.743,0.794-0.764c0.918-0.027,1.767,0.188,2.544,0.653c0.375,0.225,0.74,0.456,1.04,0.774
		c0.813,0.856,1.248,1.867,1.412,2.978c0.231,1.547-0.106,3.004-0.929,4.357c-0.24,0.393-0.547,0.738-0.919,1.032
		c-0.62,0.487-1.315,0.808-2.128,0.899c-0.381,0.045-0.754,0.01-1.126-0.063c-0.278-0.056-0.487-0.202-0.554-0.47
		c-0.058-0.236-0.114-0.48-0.12-0.723c-0.02-1.081-0.02-2.162-0.022-3.245c-0.001-0.365,0-0.728,0-1.092
		C83.582,34.153,83.584,34.153,83.588,34.153z"/>
	<path display="inline" fill-rule="evenodd" clip-rule="evenodd" fill="#FFFFFF" d="M114.084,44.133c-0.19,0-0.325,0-0.5,0
		c0.072-0.209,0.139-0.398,0.232-0.667C113.918,43.721,113.995,43.911,114.084,44.133z"/>
	<path display="inline" fill-rule="evenodd" clip-rule="evenodd" fill="#FFFFFF" d="M98.274,44c0.244,0.252,0.438,0.45,0.633,0.651
		c-0.277,0.161-0.476,0.183-0.607,0.055C98.106,44.516,98.169,44.302,98.274,44z"/>
	<path display="inline" fill-rule="evenodd" clip-rule="evenodd" fill="#FFFFFF" d="M98.604,43.777
		c-0.089-0.137-0.184-0.235-0.221-0.351c-0.025-0.073,0.021-0.185,0.075-0.251c0.034-0.044,0.166-0.074,0.207-0.045
		c0.073,0.049,0.14,0.138,0.154,0.222C98.849,43.505,98.777,43.64,98.604,43.777z"/>
	<path display="inline" fill-rule="evenodd" clip-rule="evenodd" fill="#FFFFFF" d="M78.663,43.909c0-0.251,0-0.482,0-0.723
		c0.186-0.036,0.359-0.061,0.471,0.104c0.105,0.156,0.096,0.33,0.001,0.486C79.037,43.936,78.876,43.971,78.663,43.909z"/>
	<path display="inline" fill-rule="evenodd" clip-rule="evenodd" fill="#FFFFFF" d="M107.719,43.978
		c0.053-0.221,0.079-0.411,0.146-0.591c0.059-0.16,0.203-0.262,0.392-0.271c0.202-0.011,0.369,0.075,0.453,0.24
		c0.205,0.418,0.23,0.854,0.02,1.272c-0.169,0.335-0.645,0.34-0.822,0.002C107.801,44.428,107.775,44.186,107.719,43.978z"/>
	<path display="inline" fill-rule="evenodd" clip-rule="evenodd" fill="#FFFFFF" d="M76.786,44.125c-0.189,0-0.332,0-0.508,0
		c0.079-0.211,0.148-0.396,0.245-0.647C76.624,43.723,76.698,43.909,76.786,44.125z"/>
	<path display="inline" fill-rule="evenodd" clip-rule="evenodd" fill="#FFFFFF" d="M101.944,43.476
		c0.095,0.243,0.169,0.431,0.254,0.644c-0.173,0-0.319,0-0.503,0C101.776,43.912,101.852,43.719,101.944,43.476z"/>
</g>
<g display="none">
	<g display="inline">
		<defs>
			<rect id="SVGID_1_" x="3.334" y="-12.132" width="149.666" height="107.746"/>
		</defs>
		<clipPath id="SVGID_2_">
			<use xlink:href="#SVGID_1_"  overflow="visible"/>
		</clipPath>
		<polygon clip-path="url(#SVGID_2_)" fill="#DE3824" points="31.76,43.378 23.072,43.425 22.862,29.219 31.201,29.219 
			31.271,31.84 26.155,31.84 26.226,34.966 30.919,34.966 30.989,37.586 26.226,37.586 26.295,40.804 31.69,40.804 		"/>
		<g clip-path="url(#SVGID_2_)">
			<defs>
				<rect id="SVGID_3_" x="3.334" y="-12.132" width="149.666" height="107.746"/>
			</defs>
			<clipPath id="SVGID_4_">
				<use xlink:href="#SVGID_3_"  overflow="visible"/>
			</clipPath>
			<path clip-path="url(#SVGID_4_)" fill="#3D499F" d="M56.073,31.611l0.07,4.412h1.261c1.751,0,2.592-0.735,2.592-2.206
				s-0.911-2.206-2.663-2.206H56.073z M56.144,38.46l0.07,4.871l-3.223,0.047l-0.21-14.205h5.114c3.644,0,5.535,1.471,5.535,4.506
				c0,1.425-0.49,2.573-1.541,3.447c-1.051,0.873-2.382,1.333-4.134,1.333H56.144z"/>
			<polygon clip-path="url(#SVGID_4_)" fill="#3D499F" points="76.882,43.285 68.194,43.331 67.984,29.127 76.392,29.127 
				76.392,31.749 71.277,31.749 71.347,34.875 76.111,34.875 76.111,37.494 71.347,37.494 71.417,40.712 76.812,40.712 			"/>
			<path clip-path="url(#SVGID_4_)" fill="#3D499F" d="M84.799,31.519l0.071,3.953l1.401-0.046c0.7,0,1.261-0.184,1.681-0.597
				c0.42-0.369,0.631-0.874,0.631-1.471c0-1.242-0.771-1.838-2.312-1.838H84.799z M93.838,43.285h-3.713l-2.313-3.631
				c-0.21-0.275-0.35-0.551-0.491-0.781c-0.141-0.184-0.35-0.367-0.489-0.551c-0.141-0.14-0.351-0.277-0.49-0.323
				c-0.21-0.091-0.352-0.138-0.562-0.138h-0.91l0.07,5.424h-3.224l-0.21-14.158h5.185c3.504-0.046,5.324,1.242,5.324,3.815
				c0,0.506-0.069,0.966-0.209,1.379c-0.141,0.414-0.351,0.783-0.631,1.15c-0.281,0.322-0.631,0.597-1.051,0.873
				c-0.352,0.231-0.841,0.415-1.331,0.553v0.046c0.209,0.046,0.42,0.184,0.63,0.322c0.21,0.138,0.42,0.321,0.631,0.505
				c0.141,0.229,0.351,0.413,0.561,0.645c0.14,0.229,0.279,0.459,0.42,0.689L93.838,43.285z"/>
			<polygon clip-path="url(#SVGID_4_)" fill="#3D499F" points="107.711,31.657 103.577,31.657 103.788,43.24 100.493,43.24 
				100.354,31.703 96.22,31.703 96.15,29.082 107.711,29.082 			"/>
			<path clip-path="url(#SVGID_4_)" fill="#3D499F" d="M123.056,29.036l-4.555,9.147l0.069,5.058h-3.292l-0.07-5.012l-4.694-9.193
				h3.713l2.383,5.286c0.07,0.092,0.21,0.507,0.35,1.15h0.07c0.07-0.459,0.141-0.828,0.28-1.104l2.313-5.333H123.056z"/>
			<polygon clip-path="url(#SVGID_4_)" fill="#3D499F" points="56.284,19.796 53.761,23.887 127.469,23.749 127.749,49.171 
				37.295,49.354 35.404,53.031 131.954,52.802 131.532,19.659 			"/>
			<polygon clip-path="url(#SVGID_4_)" fill="#DE3824" points="48.576,19.842 46.194,23.979 17.327,24.025 17.607,49.354 
				29.939,49.354 27.557,53.031 13.193,53.077 12.772,19.888 			"/>
			<polygon clip-path="url(#SVGID_4_)" fill="#DE3824" points="28.958,53.031 33.933,53.031 41.92,40.437 45.213,45.723 
				50.188,45.723 44.442,36.482 55.372,19.796 49.837,19.796 41.78,32.483 37.997,26.6 32.812,26.554 39.468,36.622 			"/>
			<path clip-path="url(#SVGID_4_)" fill="#767578" d="M14.665,55.79v1.103h0.42c0.21,0,0.352-0.092,0.491-0.184
				c0.07-0.092,0.14-0.275,0.14-0.413c0-0.368-0.21-0.506-0.631-0.506H14.665z M17.187,59.055h-1.051l-0.63-1.013
				c-0.07-0.092-0.07-0.138-0.141-0.184c0-0.092-0.07-0.138-0.14-0.184c0-0.046-0.07-0.092-0.14-0.092
				c0-0.046-0.07-0.046-0.14-0.046h-0.21v1.518h-0.911l-0.07-3.955h1.471c0.981,0,1.471,0.369,1.471,1.059
				c0,0.138,0,0.275-0.07,0.413c0,0.092-0.07,0.229-0.14,0.321c-0.14,0.092-0.21,0.138-0.35,0.231
				c-0.07,0.046-0.21,0.138-0.35,0.138v0.046c0.07,0,0.14,0.046,0.209,0.092c0.07,0.046,0.07,0.092,0.14,0.138
				s0.14,0.092,0.14,0.184c0.07,0.046,0.14,0.092,0.14,0.184L17.187,59.055z"/>
			<path clip-path="url(#SVGID_4_)" fill="#767578" d="M19.358,57.354c0-0.415-0.14-0.599-0.49-0.599
				c-0.141,0-0.28,0.046-0.42,0.184c-0.07,0.092-0.14,0.231-0.14,0.415H19.358z M20.2,57.904h-1.891
				c0.07,0.413,0.28,0.598,0.77,0.598c0.351,0,0.631-0.092,0.841-0.23l0.07,0.646c-0.28,0.138-0.631,0.229-1.051,0.229
				c-0.49,0-0.84-0.138-1.122-0.415c-0.28-0.229-0.42-0.598-0.42-1.057s0.14-0.828,0.42-1.104c0.281-0.275,0.631-0.413,1.052-0.413
				c0.42,0,0.701,0.138,0.981,0.367c0.21,0.229,0.35,0.599,0.35,1.012V57.904z"/>
			<path clip-path="url(#SVGID_4_)" fill="#767578" d="M22.442,57.904v-0.184l-0.561,0.046c-0.28,0.046-0.42,0.184-0.42,0.414
				c0,0.092,0,0.138,0.07,0.229c0.07,0.046,0.209,0.092,0.35,0.092c0.141,0,0.281-0.046,0.351-0.184
				C22.372,58.226,22.442,58.088,22.442,57.904 M23.283,59.055h-0.841V58.64h-0.07c-0.14,0.323-0.42,0.461-0.841,0.461
				c-0.28,0-0.49-0.046-0.63-0.23c-0.21-0.139-0.281-0.368-0.281-0.598c0-0.552,0.351-0.873,0.981-0.965l0.771-0.092
				c0-0.323-0.14-0.461-0.491-0.461c-0.35,0-0.7,0.092-0.98,0.275v-0.643c0.141-0.046,0.28-0.092,0.491-0.184
				c0.21-0.046,0.419-0.046,0.631-0.046c0.77,0,1.19,0.413,1.19,1.195L23.283,59.055z"/>
			<polygon clip-path="url(#SVGID_4_)" fill="#767578" points="24.964,59.055 24.053,59.055 24.053,54.87 24.894,54.87 			"/>
			<path clip-path="url(#SVGID_4_)" fill="#767578" d="M28.538,55.744v1.103h0.35c0.21,0,0.35-0.046,0.49-0.184
				c0.14-0.092,0.21-0.229,0.21-0.413c0-0.321-0.21-0.506-0.7-0.506H28.538z M31.059,59.009l-1.05,0.046l-0.631-1.059
				c-0.07-0.046-0.14-0.138-0.14-0.184c-0.07-0.046-0.14-0.138-0.14-0.138c-0.07-0.046-0.14-0.092-0.14-0.138h-0.21h-0.21v1.518
				h-0.911l-0.07-3.955l1.471-0.046c0.981,0,1.471,0.369,1.471,1.104c0,0.138,0,0.275-0.07,0.367c0,0.138-0.07,0.229-0.14,0.321
				c-0.069,0.092-0.21,0.184-0.28,0.229c-0.14,0.094-0.211,0.14-0.352,0.186c0,0,0.07,0.046,0.14,0.092
				c0.071,0.046,0.141,0.092,0.141,0.138c0.07,0.046,0.14,0.138,0.21,0.184c0,0.046,0.07,0.138,0.14,0.184L31.059,59.009z"/>
			<path clip-path="url(#SVGID_4_)" fill="#767578" d="M33.162,57.308c0-0.369-0.14-0.599-0.49-0.599
				c-0.141,0-0.282,0.092-0.352,0.184c-0.14,0.138-0.14,0.277-0.21,0.415H33.162z M34.003,57.858H32.11
				c0.07,0.413,0.352,0.598,0.841,0.598c0.28,0,0.56-0.046,0.841-0.185v0.599c-0.282,0.139-0.631,0.23-1.051,0.23
				c-0.491,0-0.841-0.138-1.121-0.369c-0.21-0.275-0.35-0.598-0.35-1.057c0-0.505,0.14-0.874,0.42-1.149
				c0.21-0.275,0.56-0.413,0.981-0.413c0.42,0,0.77,0.138,0.98,0.367c0.211,0.275,0.351,0.597,0.351,1.012V57.858z"/>
			<polygon clip-path="url(#SVGID_4_)" fill="#767578" points="35.614,59.009 34.703,59.009 34.633,54.824 35.544,54.824 			"/>
			<path clip-path="url(#SVGID_4_)" fill="#767578" d="M37.997,57.858v-0.184l-0.491,0.092c-0.35,0-0.49,0.138-0.49,0.367
				c0,0.093,0.069,0.184,0.14,0.23c0.07,0.092,0.14,0.092,0.28,0.092c0.14,0,0.282-0.046,0.421-0.139
				C37.927,58.18,37.997,58.042,37.997,57.858 M38.837,59.009h-0.84v-0.415c-0.21,0.323-0.491,0.507-0.841,0.507
				c-0.28,0-0.49-0.092-0.7-0.23c-0.142-0.185-0.211-0.368-0.211-0.644c0-0.552,0.281-0.873,0.981-0.965l0.771-0.092
				c0-0.323-0.21-0.461-0.562-0.461c-0.28,0-0.63,0.092-0.91,0.321l-0.07-0.688c0.14-0.046,0.35-0.092,0.56-0.138
				c0.209-0.046,0.35-0.092,0.56-0.092c0.841,0,1.262,0.413,1.262,1.195V59.009z"/>
			<path clip-path="url(#SVGID_4_)" fill="#767578" d="M41.429,58.963c-0.141,0.092-0.35,0.138-0.63,0.138
				c-0.631,0-0.911-0.323-0.911-0.967l-0.07-1.287h-0.419v-0.643h0.419v-0.644l0.912-0.231v0.875h0.63v0.643h-0.63v1.104
				c0,0.321,0.14,0.46,0.42,0.46c0.07,0,0.14-0.046,0.28-0.092V58.963z"/>
			<path clip-path="url(#SVGID_4_)" fill="#767578" d="M42.9,59.009h-0.84l-0.07-2.805h0.91V59.009z M42.48,55.744
				c-0.21,0-0.279-0.046-0.42-0.138c-0.07-0.092-0.14-0.184-0.14-0.323c0-0.138,0.07-0.229,0.14-0.321
				c0.07-0.092,0.21-0.138,0.35-0.138c0.21,0,0.28,0.046,0.42,0.138c0.07,0.092,0.141,0.184,0.141,0.321
				c0,0.14-0.071,0.231-0.141,0.323C42.69,55.698,42.62,55.744,42.48,55.744"/>
			<path clip-path="url(#SVGID_4_)" fill="#767578" d="M45.143,56.755c-0.21,0-0.351,0.092-0.491,0.229
				c-0.069,0.14-0.14,0.369-0.14,0.599c0,0.551,0.209,0.827,0.7,0.827c0.421,0,0.631-0.276,0.631-0.827
				C45.844,57.03,45.634,56.755,45.143,56.755 M45.143,59.055c-0.421,0-0.841-0.092-1.122-0.369c-0.28-0.275-0.42-0.644-0.42-1.103
				s0.14-0.828,0.42-1.058c0.281-0.275,0.701-0.413,1.122-0.413c0.491,0,0.911,0.138,1.191,0.367c0.28,0.275,0.42,0.645,0.42,1.058
				c0,0.459-0.14,0.827-0.42,1.103C46.054,58.917,45.634,59.055,45.143,59.055"/>
			<path clip-path="url(#SVGID_4_)" fill="#767578" d="M50.258,59.009h-0.912v-1.563c0-0.461-0.21-0.69-0.49-0.69
				c-0.14,0-0.28,0.092-0.42,0.184c-0.07,0.138-0.14,0.277-0.14,0.461l0.07,1.609h-0.911l-0.07-2.851h0.911v0.459
				c0.21-0.367,0.56-0.505,0.91-0.505c0.702,0,0.981,0.367,0.981,1.149L50.258,59.009z"/>
			<path clip-path="url(#SVGID_4_)" fill="#767578" d="M50.889,58.917v-0.691c0.14,0.093,0.28,0.139,0.42,0.185
				c0.141,0.046,0.28,0.046,0.42,0.046s0.28,0,0.352-0.046c0.07-0.046,0.14-0.139,0.14-0.185c0-0.092,0-0.138-0.069-0.138
				c0-0.046-0.07-0.092-0.142-0.138c-0.07,0-0.14-0.046-0.21-0.046c-0.07-0.046-0.14-0.046-0.21-0.092
				c-0.139-0.046-0.209-0.092-0.35-0.138c-0.07-0.046-0.14-0.092-0.21-0.138c-0.07-0.092-0.07-0.138-0.14-0.229
				c0-0.092-0.07-0.184-0.07-0.323c0-0.138,0.07-0.275,0.14-0.413c0.07-0.092,0.14-0.184,0.28-0.275
				c0.07-0.046,0.21-0.139,0.42-0.139c0.14-0.045,0.28-0.045,0.421-0.045H52.5c0.141,0.045,0.281,0.045,0.35,0.092l0.07,0.688
				c-0.14-0.092-0.28-0.138-0.42-0.138c-0.14-0.046-0.21-0.092-0.349-0.092c-0.07,0.046-0.142,0.046-0.142,0.046
				c-0.07,0-0.14,0-0.14,0.046c-0.07,0-0.07,0.046-0.14,0.046v0.138c0,0.046,0,0.092,0.07,0.138c0,0,0.07,0.048,0.07,0.094
				c0.07,0,0.14,0.046,0.211,0.046c0.07,0.046,0.14,0.046,0.209,0.092c0.14,0,0.21,0.046,0.351,0.092
				c0.07,0.046,0.14,0.138,0.209,0.184c0.07,0.046,0.14,0.138,0.14,0.229c0.07,0.092,0.07,0.184,0.07,0.321s0,0.276-0.07,0.414
				c-0.07,0.138-0.209,0.229-0.28,0.275c-0.14,0.094-0.28,0.139-0.42,0.186c-0.209,0.046-0.351,0.046-0.561,0.046
				C51.449,59.055,51.168,59.009,50.889,58.917"/>
			<path clip-path="url(#SVGID_4_)" fill="#767578" d="M56.494,58.963h-0.911v-1.609c0-0.415-0.141-0.599-0.49-0.599
				c-0.14,0-0.28,0.046-0.35,0.184c-0.141,0.092-0.141,0.277-0.141,0.415v1.609h-0.91v-4.185h0.84l0.07,1.793
				c0.211-0.321,0.491-0.506,0.841-0.506c0.701,0,1.052,0.414,1.052,1.196V58.963z"/>
			<path clip-path="url(#SVGID_4_)" fill="#767578" d="M58.175,58.963h-0.84l-0.07-2.805h0.911V58.963z M57.754,55.698
				c-0.209,0-0.28-0.046-0.42-0.138c-0.07-0.092-0.141-0.186-0.141-0.323s0.071-0.229,0.141-0.321c0.14-0.046,0.21-0.092,0.35-0.092
				c0.21,0,0.28,0.046,0.42,0.092c0.07,0.092,0.14,0.184,0.14,0.321s-0.07,0.231-0.14,0.323
				C58.035,55.652,57.895,55.698,57.754,55.698"/>
			<path clip-path="url(#SVGID_4_)" fill="#767578" d="M59.927,57.491v0.229c0,0.184,0.07,0.321,0.14,0.46
				c0.141,0.138,0.28,0.184,0.42,0.184c0.21,0,0.419-0.093,0.49-0.23c0.14-0.138,0.14-0.367,0.14-0.643
				c0-0.507-0.21-0.736-0.56-0.736c-0.21,0-0.35,0.046-0.491,0.184C59.998,57.076,59.927,57.262,59.927,57.491 M59.998,58.64
				L59.998,58.64v1.608l-0.912,0.047l-0.07-4.138h0.912v0.414c0.21-0.321,0.56-0.505,0.91-0.505c0.42,0,0.701,0.138,0.911,0.367
				c0.21,0.275,0.281,0.597,0.281,1.058c0.07,0.459-0.07,0.827-0.281,1.103c-0.279,0.323-0.561,0.461-0.98,0.461
				C60.417,59.055,60.137,58.917,59.998,58.64"/>
			<path clip-path="url(#SVGID_4_)" fill="#767578" d="M65.462,57.262v1.057h0.49c0.21,0,0.42-0.047,0.49-0.138
				c0.141-0.139,0.211-0.23,0.211-0.414c0-0.138-0.07-0.275-0.211-0.367c-0.07-0.092-0.28-0.138-0.49-0.138H65.462z M65.462,55.652
				v0.965h0.42c0.14,0,0.28-0.046,0.42-0.138c0.07-0.092,0.14-0.229,0.14-0.367c0-0.322-0.209-0.46-0.63-0.46H65.462z
				 M64.551,58.963v-3.955h1.471c0.42,0,0.771,0.092,1.051,0.229c0.21,0.186,0.35,0.415,0.35,0.69c0,0.23-0.07,0.414-0.21,0.552
				c-0.14,0.184-0.35,0.275-0.56,0.321v0.046c0.28,0,0.49,0.138,0.7,0.277c0.14,0.184,0.21,0.413,0.281,0.643
				c0,0.367-0.141,0.644-0.421,0.873c-0.28,0.23-0.63,0.323-1.051,0.323H64.551z"/>
			<path clip-path="url(#SVGID_4_)" fill="#767578" d="M71.067,58.963h-0.911v-0.461c-0.21,0.368-0.49,0.507-0.91,0.507
				c-0.631,0-0.981-0.369-0.981-1.196l-0.07-1.7h0.91v1.654c0.071,0.367,0.211,0.598,0.491,0.598c0.21,0,0.351-0.046,0.42-0.184
				c0.07-0.093,0.14-0.23,0.14-0.46v-1.608h0.841L71.067,58.963z"/>
			<path clip-path="url(#SVGID_4_)" fill="#767578" d="M72.818,58.962h-0.91v-2.85h0.84L72.818,58.962z M72.328,55.652
				c-0.14,0-0.28,0-0.35-0.092c-0.14-0.092-0.14-0.231-0.14-0.323c0-0.138,0-0.275,0.14-0.321c0.07-0.092,0.209-0.138,0.35-0.138
				s0.28,0.046,0.35,0.138c0.14,0.046,0.14,0.184,0.14,0.321c0,0.092,0,0.231-0.14,0.323C72.608,55.652,72.468,55.652,72.328,55.652
				"/>
			<polygon clip-path="url(#SVGID_4_)" fill="#767578" points="74.57,58.963 73.659,58.963 73.659,54.778 74.501,54.778 			"/>
			<path clip-path="url(#SVGID_4_)" fill="#767578" d="M77.163,58.917c-0.14,0.045-0.281,0.092-0.562,0.092
				c-0.63,0-0.979-0.323-0.979-0.967v-1.287h-0.491v-0.643h0.491v-0.598l0.84-0.277l0.069,0.875h0.632v0.643h-0.632v1.149
				c0,0.276,0.141,0.414,0.351,0.414c0.07,0,0.212,0,0.281-0.047V58.917z"/>
			<path clip-path="url(#SVGID_4_)" fill="#767578" d="M81.297,55.652c-0.28,0-0.562,0.138-0.771,0.367
				c-0.14,0.23-0.28,0.552-0.21,0.919c0,0.415,0.07,0.736,0.28,0.966c0.14,0.229,0.421,0.322,0.701,0.322
				c0.35,0,0.56-0.093,0.77-0.322c0.212-0.229,0.281-0.551,0.281-0.92c0-0.413-0.14-0.734-0.281-0.965
				C81.856,55.79,81.646,55.652,81.297,55.652 M81.297,59.009c-0.562,0-1.052-0.186-1.401-0.553
				c-0.352-0.367-0.562-0.873-0.562-1.472c0-0.597,0.141-1.103,0.562-1.516c0.35-0.369,0.84-0.553,1.401-0.553
				c0.63,0,1.051,0.184,1.471,0.553c0.351,0.367,0.49,0.827,0.49,1.47c0.07,0.599-0.14,1.104-0.49,1.472
				C82.418,58.823,81.927,59.009,81.297,59.009"/>
			<path clip-path="url(#SVGID_4_)" fill="#767578" d="M86.832,58.917H85.92v-1.563c0-0.461-0.21-0.645-0.49-0.645
				c-0.14,0-0.279,0.046-0.419,0.138c-0.07,0.138-0.141,0.277-0.141,0.461l0.07,1.609h-0.911l-0.07-2.805h0.911v0.413
				c0.21-0.321,0.56-0.505,0.91-0.505c0.701,0,0.981,0.413,0.981,1.149L86.832,58.917z"/>
			<path clip-path="url(#SVGID_4_)" fill="#767578" d="M91.105,55.652c-0.28,0-0.561,0.138-0.7,0.368
				c-0.21,0.229-0.28,0.551-0.28,0.918c0,0.369,0.07,0.69,0.28,0.92s0.42,0.367,0.771,0.367c0.28,0,0.561-0.138,0.7-0.367
				c0.21-0.229,0.28-0.505,0.28-0.92c0-0.413-0.07-0.688-0.28-0.918C91.666,55.79,91.456,55.652,91.105,55.652 M91.876,58.823
				c0.14,0.094,0.21,0.186,0.28,0.277c0.141,0.046,0.21,0.092,0.28,0.138c0.069,0.046,0.21,0.092,0.281,0.092h0.35h0.07h0.07
				c0.069,0,0.14,0,0.14-0.046h0.069v0.734c0,0-0.14,0.046-0.209,0.046c-0.141,0.046-0.21,0.046-0.421,0.046
				c-0.141,0-0.351-0.046-0.49-0.092c-0.141-0.046-0.281-0.138-0.421-0.229c-0.14-0.138-0.28-0.229-0.42-0.367
				s-0.28-0.275-0.421-0.459c-0.28,0-0.561-0.046-0.771-0.14c-0.21-0.138-0.421-0.275-0.631-0.459
				c-0.141-0.139-0.28-0.368-0.35-0.598c-0.07-0.229-0.141-0.505-0.141-0.782c0-0.643,0.141-1.148,0.561-1.516
				c0.351-0.369,0.841-0.599,1.472-0.599c0.561,0,1.051,0.184,1.4,0.553c0.352,0.367,0.562,0.873,0.562,1.47
				c0,0.461-0.14,0.874-0.351,1.241C92.576,58.456,92.297,58.686,91.876,58.823"/>
			<path clip-path="url(#SVGID_4_)" fill="#767578" d="M96.571,58.917H95.73l-0.07-0.461c-0.21,0.367-0.492,0.506-0.842,0.506
				c-0.7,0-1.051-0.368-1.051-1.195v-1.7h0.911v1.654c0,0.367,0.14,0.598,0.489,0.598c0.142,0,0.282-0.093,0.352-0.185
				c0.141-0.092,0.141-0.275,0.141-0.459v-1.608h0.911V58.917z"/>
			<path clip-path="url(#SVGID_4_)" fill="#767578" d="M99.022,57.767v-0.229l-0.561,0.092c-0.279,0.046-0.419,0.138-0.419,0.367
				c0,0.093,0.069,0.184,0.14,0.275c0.07,0.047,0.14,0.093,0.279,0.093c0.141,0,0.28-0.093,0.42-0.185
				C98.952,58.042,99.022,57.904,99.022,57.767 M99.863,58.87l-0.841,0.047v-0.415c-0.21,0.321-0.49,0.461-0.91,0.461
				c-0.281,0-0.491-0.093-0.631-0.231c-0.141-0.138-0.28-0.367-0.28-0.643c0-0.506,0.351-0.827,0.981-0.919l0.84-0.094
				c0-0.321-0.21-0.505-0.561-0.505c-0.35,0-0.631,0.138-0.98,0.321V56.25c0.14-0.092,0.279-0.138,0.491-0.185
				c0.21-0.045,0.419-0.045,0.63-0.045c0.771,0,1.191,0.367,1.261,1.195V58.87z"/>
			<polygon clip-path="url(#SVGID_4_)" fill="#767578" points="101.545,58.87 100.705,58.87 100.635,54.687 101.545,54.687 			"/>
			<path clip-path="url(#SVGID_4_)" fill="#767578" d="M103.297,58.87h-0.841l-0.07-2.805h0.911V58.87z M102.876,55.606
				c-0.21,0-0.28-0.046-0.42-0.138c-0.07-0.094-0.14-0.185-0.14-0.323c0-0.138,0.069-0.229,0.14-0.321
				c0.14-0.046,0.21-0.092,0.35-0.092c0.211,0,0.28,0.046,0.422,0.092c0.069,0.092,0.14,0.184,0.14,0.321
				c0,0.139-0.07,0.277-0.14,0.323C103.157,55.561,103.017,55.606,102.876,55.606"/>
			<path clip-path="url(#SVGID_4_)" fill="#767578" d="M105.96,58.823c-0.14,0.094-0.352,0.14-0.632,0.14
				c-0.63,0-0.909-0.323-0.909-0.967l-0.071-1.287h-0.421v-0.644h0.421v-0.597l0.911-0.277v0.874h0.631v0.644h-0.631v1.149
				c0,0.275,0.14,0.413,0.42,0.413c0.069,0,0.142,0,0.281-0.091V58.823z"/>
			<path clip-path="url(#SVGID_4_)" fill="#767578" d="M109.252,56.065l-1.121,3.035c-0.279,0.734-0.7,1.102-1.261,1.102
				c-0.211,0-0.351,0-0.491-0.092l-0.069-0.688c0.14,0.092,0.28,0.138,0.42,0.138c0.211,0,0.352-0.138,0.491-0.321l0.14-0.368
				l-1.19-2.805h0.98l0.561,1.701c0,0.092,0.07,0.229,0.07,0.367c0-0.092,0.07-0.229,0.07-0.367l0.561-1.701H109.252z"/>
			<path clip-path="url(#SVGID_4_)" fill="#767578" d="M111.425,58.731l-0.07-0.919c0.21,0.138,0.35,0.276,0.56,0.321
				c0.211,0.046,0.422,0.092,0.562,0.092h0.35c0.071-0.046,0.141-0.092,0.211-0.092c0.069-0.045,0.069-0.092,0.139-0.138v-0.184
				c0-0.046,0-0.138-0.069-0.184c0-0.046-0.069-0.138-0.14-0.184c-0.141-0.046-0.21-0.092-0.28-0.138
				c-0.14-0.046-0.279-0.092-0.35-0.138c-0.352-0.14-0.562-0.277-0.771-0.461c-0.14-0.184-0.21-0.413-0.21-0.689
				c0-0.184,0-0.367,0.14-0.551c0.07-0.14,0.141-0.231,0.28-0.369c0.21-0.092,0.351-0.138,0.562-0.184
				c0.14-0.046,0.35-0.092,0.561-0.092c0.209,0,0.419,0.046,0.56,0.046c0.211,0.046,0.352,0.092,0.491,0.138v0.828
				c-0.07-0.046-0.14-0.092-0.21-0.138s-0.212-0.046-0.281-0.092c-0.07,0-0.141-0.046-0.21-0.046h-0.28h-0.28
				c-0.069,0.046-0.14,0.046-0.21,0.092c-0.069,0.046-0.069,0.092-0.14,0.138v0.139v0.184c0.07,0.046,0.14,0.092,0.21,0.138
				s0.14,0.092,0.21,0.138c0.069,0.046,0.21,0.092,0.35,0.138c0.141,0.092,0.28,0.138,0.42,0.229
				c0.142,0.092,0.212,0.138,0.352,0.275c0.07,0.094,0.14,0.186,0.21,0.277c0,0.138,0.07,0.275,0.07,0.459s-0.07,0.367-0.141,0.552
				c-0.069,0.138-0.209,0.275-0.35,0.367c-0.142,0.092-0.281,0.138-0.492,0.185c-0.209,0.047-0.419,0.047-0.629,0.047
				s-0.421,0-0.632-0.047C111.704,58.823,111.564,58.777,111.425,58.731"/>
			<path clip-path="url(#SVGID_4_)" fill="#767578" d="M116.609,57.17c0-0.415-0.21-0.599-0.491-0.599
				c-0.14,0-0.28,0.046-0.421,0.138c-0.069,0.138-0.139,0.275-0.139,0.461H116.609z M117.451,57.675h-1.893
				c0,0.413,0.279,0.643,0.771,0.643c0.35,0,0.629-0.091,0.84-0.229v0.644c-0.211,0.139-0.561,0.186-0.981,0.186
				c-0.491,0-0.841-0.094-1.12-0.369c-0.281-0.23-0.422-0.598-0.422-1.057c0-0.461,0.141-0.828,0.422-1.104
				c0.279-0.275,0.629-0.414,1.05-0.414s0.701,0.092,0.981,0.368c0.21,0.229,0.352,0.551,0.352,0.966V57.675z"/>
			<path clip-path="url(#SVGID_4_)" fill="#767578" d="M119.972,56.801c-0.14-0.046-0.28-0.092-0.42-0.092s-0.28,0.092-0.42,0.229
				c-0.141,0.138-0.141,0.323-0.141,0.553v1.379h-0.91V56.02h0.841l0.069,0.552c0.141-0.413,0.351-0.598,0.771-0.598
				c0.07,0,0.141,0,0.21,0.046V56.801z"/>
			<path clip-path="url(#SVGID_4_)" fill="#767578" d="M123.266,56.021l-1.052,2.803l-1.051,0.047l-1.051-2.85h0.98l0.491,1.746
				c0.07,0.184,0.07,0.367,0.141,0.506c0-0.139,0-0.322,0.069-0.506l0.49-1.746H123.266z"/>
			<path clip-path="url(#SVGID_4_)" fill="#767578" d="M124.666,58.823h-0.911v-2.803h0.842L124.666,58.823z M124.177,55.561
				c-0.142,0-0.281-0.046-0.352-0.138c-0.14-0.094-0.14-0.186-0.14-0.323c0-0.092,0-0.229,0.14-0.321
				c0.07-0.046,0.21-0.092,0.352-0.092c0.14,0,0.28,0.046,0.35,0.092c0.07,0.092,0.14,0.229,0.14,0.321c0,0.138,0,0.275-0.14,0.323
				C124.457,55.515,124.316,55.561,124.177,55.561"/>
			<path clip-path="url(#SVGID_4_)" fill="#767578" d="M127.679,58.731c-0.14,0.139-0.489,0.186-0.84,0.186
				c-0.421,0-0.771-0.14-1.051-0.415c-0.28-0.23-0.42-0.598-0.42-1.011c-0.07-0.461,0.07-0.874,0.42-1.149
				c0.28-0.276,0.63-0.413,1.121-0.413c0.35,0,0.63,0.045,0.77,0.137v0.735c-0.21-0.138-0.42-0.184-0.63-0.184
				s-0.421,0.046-0.562,0.229c-0.21,0.138-0.279,0.323-0.279,0.599c0,0.229,0.14,0.459,0.279,0.597
				c0.141,0.138,0.352,0.184,0.562,0.184s0.42-0.046,0.63-0.184V58.731z"/>
			<path clip-path="url(#SVGID_4_)" fill="#767578" d="M130.132,57.124c0-0.415-0.14-0.599-0.49-0.599
				c-0.14,0-0.28,0.046-0.351,0.184c-0.141,0.092-0.141,0.229-0.211,0.415H130.132z M130.973,57.675h-1.893
				c0.07,0.413,0.352,0.597,0.842,0.597c0.279,0,0.56-0.045,0.841-0.229v0.644c-0.281,0.138-0.631,0.231-1.051,0.231
				c-0.491,0-0.842-0.14-1.122-0.415c-0.21-0.23-0.35-0.598-0.35-1.057c0-0.461,0.14-0.828,0.421-1.104
				c0.209-0.276,0.56-0.413,0.98-0.413c0.42,0,0.771,0.137,0.981,0.367c0.209,0.229,0.35,0.597,0.35,1.012V57.675z"/>
		</g>
	</g>
</g>
<g>
	<g>
		<defs>
			<rect id="SVGID_5_" x="-103" y="-139" width="299.348" height="322.013"/>
		</defs>
		<clipPath id="SVGID_6_">
			<use xlink:href="#SVGID_5_"  overflow="visible"/>
		</clipPath>
		<g clip-path="url(#SVGID_6_)">
			<defs>
				<rect id="SVGID_7_" x="-103" y="-139" width="299.348" height="322.013"/>
			</defs>
			<clipPath id="SVGID_8_">
				<use xlink:href="#SVGID_7_"  overflow="visible"/>
			</clipPath>
			<path clip-path="url(#SVGID_8_)" fill-rule="evenodd" clip-rule="evenodd" fill="#AF2224" d="M65.301,41.777l2.168-1.153
				c1.733,2.714,4.912,13.302,3.322,14.931C67.686,58.813,65.157,43.609,65.301,41.777 M77.149,31.801
				c3.902-1.765,11.559-9.026,13.511-13.574c3.105-7.262-1.806-11.333-7.658-7.669c-2.818,1.764-1.878,1.357-3.612,3.055
				l-0.144-0.34c-0.363-1.019-0.146-0.95-0.725-1.967c-2.816-4.819-9.68-0.611-12.714,3.665c-4.336,6.176-4.48,11.13-5.49,17.849
				c-10.693,4.614-21.675-1.493-29.549-1.969c-2.096-0.203-8.092,0.679-8.164,3.258c1.228-0.135,0.434,0,1.228-0.476
				c2.167-1.289,4.191-2.306,7.297-1.832c5.779,0.882,10.981,2.714,17.989,3.529c5.563,0.678,7.152-0.679,9.825-0.882
				c-0.722,1.153-1.083,1.086-1.228,2.579c-0.072,1.696,0.649,3.054,1.878,4.004c0.649,0.408,0.649,0.339,0.795,1.019
				c0.649,2.918,0.505,11.334,4.479,14.795c1.445,1.29,3.974,2.036,5.996,0.407c1.879-1.492,1.517-3.325,1.372-5.633
				c-0.432-5.362-3.394-10.316-3.466-12.148c0.938-0.407,0.649-0.611,1.661-0.68c1.229,2.308,2.457,1.97,2.602,4.412
				c0.216,4.479,1.589,13.166,6.14,14.727c1.808,0.68,4.118-0.067,4.985-1.561c2.601-4.071-3.033-16.016-3.105-16.831
				c2.601-2.104,5.995-4.547,9.175-5.905c7.947-3.597,15.967,0.883,24.779,2.647c3.902,0.815,10.838,0.408,11.415-2.986
				c-1.445,0.136-1.445,0.68-2.6,1.29c-5.419,3.258-15.173-1.222-21.313-2.579c-4.696-1.019-8.742-1.019-12.932,0.814
				c-4.552,1.967-8.309,5.565-8.959,5.836C78.667,37.23,76.354,34.312,77.149,31.801 M77.655,41.777
				c0.361-0.203,1.807-0.883,2.456-0.883c1.808,4.005,2.891,7.195,3.469,11.538c0.217,1.969,0.433,2.918-1.229,3.664
				c-1.951-1.424-2.673-3.8-3.252-6.176C78.521,47.681,77.655,44.221,77.655,41.777 M77.438,40.556v-2.104 M77.511,38.045
				c0.65,0.067,1.735,0.678,1.951,1.696c-0.579,0.271-1.229,0.543-2.023,0.814 M64.724,36.688c0.577,0.203,0.867,0.678,1.301,1.154
				c0.433,0.61,0.794,1.017,0.866,1.832l-1.806,0.815C64.868,38.928,64.796,38.451,64.724,36.688 M60.244,35.194v4.208
				C58.943,38.384,58.655,36.008,60.244,35.194 M71.586,37.501l0.362-0.475c0-0.068,0.144-0.271,0.216-0.271l0.363-0.271
				c0.433,1.085,0.505,1.697,0.361,3.122c-0.795-0.475-0.361,0.136-0.795-0.747C71.875,38.451,71.731,37.706,71.586,37.501
				 M72.96,33.632c-1.3,0.883-1.806,0.612-2.529,2.376c-0.505,1.289-1.012,2.104-2.24,2.579c-0.65-0.542-1.589-2.035-2.239-2.782
				c-3.685-4.14,0.216-4.479,3.395-7.262l3.18-2.714c0.577-0.61,0.505-0.678,1.373-1.019C73.537,27.932,72.888,30.104,72.96,33.632
				 M64.796,30.443c-0.435-2.715,1.517-10.248,2.962-13.167c1.084-2.104,5.779-9.298,9.104-5.904
				c1.589,1.696,0.866,4.275-0.145,6.176c-1.519,2.851-1.807,4.004-4.118,6.448C71.081,25.557,64.796,30.375,64.796,30.443
				 M77.149,30.172c0.145-4.887,1.445-9.367,3.251-13.167c1.156-2.443,5.853-8.958,9.031-5.497c2.601,2.85-1.084,8.823-3.106,11.063
				C84.664,24.403,79.606,29.222,77.149,30.172"/>
			<path clip-path="url(#SVGID_8_)" fill-rule="evenodd" clip-rule="evenodd" fill="#151616" d="M42.616,71.774
				c0,0,0-0.067,0.072-0.067s0.795,0,0.939,0.067c0.217,0,0.289,0.137,0.289,0.205c0.072,0.067,0.072,0.135,0.072,0.203v0.068
				c0.072,0,0.072-0.068,0.072-0.137c0,0,0.074-0.271,0.074-0.407V71.3h-0.074c-0.072,0.136-0.145,0.136-0.289,0.136h-0.289h-0.795
				c-0.072,0-0.072,0-0.072-0.067v-1.426c0-0.067,0.072-0.136,0.072-0.136l0.939,0.068c0.289,0,0.433,0.067,0.433,0.136
				c0.074,0.067,0.074,0.203,0.074,0.271c0,0.068,0,0.068,0.072,0.068c0,0,0-0.068,0.073-0.068v-0.475
				c0-0.203,0.071-0.271,0.071-0.271c0-0.068-0.071-0.068-0.071-0.068s-0.073,0-0.073,0.068h-0.29h-1.661h-0.361h-0.579
				c-0.072,0-0.145,0-0.145,0.067h0.145c0.072,0,0.218,0,0.218,0.067c0.216,0,0.289,0.136,0.289,0.271v1.289v1.02v1.289
				c-0.072,0.136-0.072,0.271-0.217,0.339h-0.217c-0.072,0-0.072,0-0.072,0.067c0,0,0,0.068,0.146,0.068
				c0.216,0,0.649-0.068,0.794-0.068s0.578,0.068,0.939,0.068c0.072,0,0.145-0.068,0.145-0.068c0-0.067,0-0.067-0.145-0.067h-0.289
				c-0.218-0.067-0.218-0.203-0.218-0.339c-0.072-0.271-0.072-0.68-0.072-1.289V71.774z M47.313,72.454c0,0,0,0.067,0.072,0.067
				l0.505,1.222c0,0.068-0.072,0.136-0.072,0.136c-0.072,0-0.072,0-0.072,0.067h0.145c0.506,0.068,1.012,0.068,1.228,0.068
				c0.217,0,0.289-0.068,0.289-0.068c0-0.067-0.072-0.067-0.072-0.067h-0.289c-0.144-0.067-0.289-0.136-0.577-0.678
				c-0.363-0.883-1.373-3.259-1.517-3.598c-0.072-0.136-0.145-0.204-0.218-0.204c0,0-0.073,0.068-0.144,0.271L45,73.336
				c-0.145,0.271-0.216,0.476-0.505,0.543h-0.216c-0.073,0-0.073,0-0.073,0.067c0,0,0,0.068,0.144,0.068
				c0.29,0,0.65-0.068,0.722-0.068c0.216,0,0.433,0.068,0.651,0.068c0.071,0,0.144-0.068,0.144-0.068
				c0-0.067-0.072-0.067-0.144-0.067h-0.073c-0.218,0-0.29-0.067-0.29-0.203c0-0.068,0.072-0.204,0.145-0.34l0.362-0.814v-0.067
				H47.313z M46.012,72.183v-0.068l0.578-1.425v-0.068c0.071,0,0.071,0.068,0.071,0.068l0.579,1.493h-0.072H46.012z M50.563,74.083
				c0.361,0,0.651-0.068,1.012-0.271c0.433-0.271,0.578-0.68,0.578-1.019c0-0.542-0.289-0.949-1.011-1.493l-0.218-0.136
				c-0.505-0.339-0.649-0.611-0.649-0.883c0-0.339,0.289-0.61,0.723-0.61c0.433,0,0.65,0.204,0.722,0.34
				c0.144,0.136,0.144,0.339,0.144,0.407c0,0.067,0,0.067,0.072,0.067s0.072-0.067,0.072-0.204v-0.678c0-0.067,0-0.067-0.072-0.067
				c-0.145-0.068-0.433-0.137-0.794-0.137c-0.939,0-1.517,0.476-1.517,1.153c0,0.476,0.289,0.883,0.938,1.427l0.289,0.203
				c0.579,0.339,0.651,0.61,0.651,0.949c0,0.272-0.289,0.68-0.867,0.68c-0.361,0-0.722-0.204-0.866-0.61
				c-0.072-0.138-0.072-0.205-0.072-0.341c0,0,0-0.067-0.072-0.067s-0.072,0.067-0.072,0.136v0.814c0,0.136,0,0.136,0.072,0.203
				C49.913,74.015,50.202,74.083,50.563,74.083 M54.464,71.368L54.464,71.368v-0.137v-1.289c0-0.203,0.072-0.271,0.216-0.271
				c0.072-0.067,0.145-0.067,0.218-0.067c0.072,0,0.072,0,0.072-0.067h-0.146h-0.793h-0.868H53.02c0,0.067,0,0.067,0.072,0.067
				c0.144,0,0.216,0,0.289,0.067c0.216,0,0.216,0.136,0.29,0.271v1.289v1.02c0,0.542,0,1.018-0.074,1.289
				c0,0.136,0,0.271-0.145,0.339h-0.216c-0.072,0-0.144,0-0.144,0.067c0,0,0.072,0.068,0.144,0.068c0.289,0,0.651-0.068,0.796-0.068
				c0.144,0,0.577,0.068,1.011,0.068c0.072,0,0.072-0.068,0.072-0.068c0-0.067,0-0.067-0.072-0.067h-0.29
				c-0.217-0.067-0.289-0.203-0.289-0.339v-1.289v-0.477v-0.067h2.457v0.067v0.477v1.289c-0.072,0.136-0.072,0.271-0.216,0.339
				h-0.217c-0.072,0-0.072,0-0.072,0.067c0,0,0,0.068,0.072,0.068c0.289,0,0.65-0.068,0.794-0.068c0.216,0,0.578,0.068,1.011,0.068
				c0.072,0,0.145-0.068,0.145-0.068c0-0.067-0.072-0.067-0.145-0.067h-0.289c-0.217-0.067-0.217-0.203-0.289-0.339v-1.289v-1.02
				v-1.289c0-0.203,0.072-0.271,0.216-0.271c0.072-0.067,0.145-0.067,0.217-0.067s0.072,0,0.072-0.067h-0.072h-0.795h-0.938H56.27
				c0,0.067,0.073,0.067,0.146,0.067s0.145,0,0.217,0.067c0.216,0,0.289,0.136,0.289,0.271v1.289v0.137H54.464z M59.811,72.251
				c0,0.609,0,1.085-0.073,1.289c0,0.203-0.072,0.271-0.144,0.339h-0.289c-0.072,0-0.072,0-0.072,0.067c0,0,0.072,0.068,0.145,0.068
				c0.217,0,0.65-0.068,0.794-0.068c0.146,0,0.579,0.068,0.939,0.068c0.072,0,0.145-0.068,0.145-0.068c0-0.067,0-0.067-0.072-0.067
				h-0.361c-0.145-0.067-0.217-0.136-0.217-0.339c-0.072-0.204-0.072-0.68-0.072-1.289v-1.02c0-0.882,0-1.085,0.072-1.289
				c0-0.203,0-0.271,0.217-0.271c0.072-0.067,0.145-0.067,0.145-0.067c0.072,0,0.144,0,0.144-0.067h-0.144h-0.795h-0.794h-0.145
				c0,0.067,0,0.067,0.072,0.067s0.145,0,0.217,0.067c0.144,0,0.216,0.136,0.216,0.271c0.073,0.204,0.073,0.407,0.073,1.289V72.251z
				 M64.435,74.083c1.589,0,2.6-1.087,2.6-2.444s-1.011-2.239-2.528-2.239c-1.879,0-2.601,1.358-2.601,2.375
				C61.907,72.793,62.628,74.083,64.435,74.083 M64.652,73.812c-1.156,0-1.879-1.019-1.879-2.24c0-1.493,0.795-1.832,1.517-1.832
				c1.012,0,1.879,0.813,1.879,2.104C66.168,73.607,65.157,73.812,64.652,73.812 M68.625,70.689L68.625,70.689
				c0.144,0.136,0.866,0.882,1.517,1.493c0.649,0.61,1.445,1.425,1.878,1.764c0.072,0.068,0.144,0.137,0.216,0.137
				s0.072-0.068,0.072-0.204l0.072-3.732c0-0.34,0.072-0.476,0.218-0.476c0.072-0.067,0.145-0.067,0.217-0.067s0.072,0,0.072-0.067
				h-0.145h-0.579h-0.793h-0.145c0,0.067,0,0.067,0.072,0.067c0.145,0,0.289,0,0.361,0.067c0.144,0.068,0.216,0.136,0.216,0.543
				l0.073,2.646h-0.073c-0.072-0.135-0.939-0.949-1.373-1.357c-0.939-0.882-1.878-1.832-1.95-1.899s-0.144-0.204-0.217-0.204
				c-0.072,0-0.072,0.137-0.072,0.204l-0.072,3.528c0,0.476,0,0.68-0.217,0.747h-0.289c-0.072,0-0.072,0-0.072,0.067
				c0,0.068,0.072,0.068,0.145,0.068c0.289,0,0.651-0.068,0.651-0.068c0.144,0,0.36,0.068,0.794,0.068
				c0.072,0,0.144-0.068,0.144-0.068c0-0.067,0-0.067-0.072-0.067c-0.145,0-0.217,0-0.361-0.067c-0.145,0-0.216-0.136-0.216-0.61
				L68.625,70.689z M77.005,71.774c0,0,0-0.067,0.072-0.067s0.722,0,0.868,0.067c0.216,0,0.288,0.137,0.36,0.205v0.203l0.072,0.068
				c0.072,0,0.072-0.068,0.072-0.137v-0.407c0.072-0.204,0.072-0.339,0.072-0.407h-0.145c0,0.136-0.145,0.136-0.217,0.136h-0.289
				h-0.795c-0.072,0-0.072,0-0.072-0.067v-1.426c0-0.067,0-0.136,0.072-0.136l0.939,0.068c0.217,0,0.361,0.067,0.434,0.136v0.271
				l0.072,0.068c0.072,0,0.072-0.068,0.072-0.068c0-0.067,0.072-0.406,0.072-0.475v-0.271v-0.068c-0.072,0-0.072,0-0.145,0.068
				h-0.217h-1.661H76.21h-0.505c-0.072,0-0.145,0-0.145,0.067h0.145c0.072,0,0.145,0,0.217,0.067c0.216,0,0.288,0.136,0.288,0.271
				v1.289v1.02v1.289c-0.072,0.136-0.072,0.271-0.216,0.339h-0.217c-0.072,0-0.072,0-0.072,0.067c0,0,0,0.068,0.072,0.068
				c0.289,0,0.649-0.068,0.795-0.068c0.217,0,0.577,0.068,1.011,0.068c0.072,0,0.145-0.068,0.145-0.068
				c0-0.067-0.072-0.067-0.145-0.067h-0.289c-0.217-0.067-0.217-0.203-0.289-0.339v-1.289V71.774z M81.628,72.454
				c0.073,0,0.073,0.067,0.073,0.067l0.506,1.222c0.072,0.068,0,0.136-0.072,0.136c0,0-0.071,0-0.071,0.067h0.216
				c0.506,0.068,0.938,0.068,1.156,0.068c0.289,0,0.289-0.068,0.289-0.068c0-0.067,0-0.067-0.072-0.067h-0.217
				c-0.146-0.067-0.362-0.136-0.578-0.678c-0.434-0.883-1.445-3.259-1.59-3.598c-0.072-0.136-0.072-0.204-0.144-0.204
				c-0.072,0-0.072,0.068-0.145,0.271l-1.59,3.665c-0.145,0.271-0.29,0.476-0.578,0.543h-0.145c-0.072,0-0.072,0-0.072,0.067
				c0,0,0,0.068,0.072,0.068c0.36,0,0.723-0.068,0.795-0.068c0.145,0,0.433,0.068,0.649,0.068c0.072,0,0.072-0.068,0.072-0.068
				c0-0.067,0-0.067-0.072-0.067h-0.072c-0.216,0-0.288-0.067-0.288-0.203c0-0.068,0.072-0.204,0.072-0.34l0.36-0.814l0.072-0.067
				H81.628z M80.4,72.183c-0.072,0-0.072,0-0.072-0.068l0.579-1.425l0.072-0.068v0.068l0.577,1.493H80.4z M86.687,74.083
				c0.36,0,0.867-0.068,1.083-0.137c0.145-0.067,0.145-0.067,0.217-0.203c0.072-0.203,0.145-0.68,0.145-0.747s0-0.136-0.072-0.136
				s-0.072,0.068-0.072,0.136c-0.072,0.136-0.145,0.272-0.217,0.408c-0.288,0.271-0.578,0.339-1.155,0.339
				c-0.867,0-2.022-0.68-2.022-2.104c0-0.61,0.145-1.153,0.577-1.561c0.289-0.203,0.649-0.339,1.229-0.339
				c0.577,0,1.084,0.136,1.229,0.339c0.216,0.136,0.288,0.34,0.288,0.543c0,0.068,0,0.137,0.072,0.137s0.072-0.068,0.072-0.137
				v-0.61c0-0.204,0.072-0.271,0.072-0.34c0-0.067-0.072-0.067-0.145-0.067c-0.145,0-0.36-0.067-0.649-0.136
				c-0.29,0-0.507-0.068-0.867-0.068c-0.939,0-1.518,0.271-2.023,0.679c-0.577,0.475-0.722,1.222-0.722,1.629
				c0,0.544,0.145,1.222,0.794,1.697C85.097,73.879,85.818,74.083,86.687,74.083 M90.299,72.251c0,0.542,0,1.018-0.072,1.289
				c0,0.136-0.072,0.271-0.145,0.339h-0.29c-0.072,0-0.072,0-0.072,0.067c0,0,0.072,0.068,0.145,0.068
				c0.218,0,0.651-0.068,0.796-0.068s0.577,0.068,0.939,0.068c0.071,0,0.145-0.068,0.145-0.068c0-0.067,0-0.067-0.073-0.067H91.31
				c-0.145-0.067-0.217-0.203-0.217-0.339c-0.072-0.271-0.072-0.747-0.072-1.289v-2.376h0.796c0.577,0,0.794,0.136,0.794,0.339
				v0.067c0,0.068,0,0.068,0.073,0.068l0.071-0.068v-0.678c0-0.067,0-0.136-0.071-0.136c0,0-0.073,0-0.146,0.068h-0.434h-2.528
				h-0.65c-0.144-0.068-0.218-0.137-0.218-0.137c-0.072,0-0.072,0.068-0.072,0.137c-0.071,0.067-0.144,0.61-0.144,0.678
				s0,0.136,0.072,0.136c0,0,0-0.068,0.071-0.068c0-0.067,0-0.135,0.072-0.271c0.074-0.068,0.218-0.136,0.651-0.136h0.939V72.251z
				 M95.645,74.083c1.662,0,2.602-1.087,2.602-2.444s-0.939-2.239-2.529-2.239c-1.879,0-2.601,1.358-2.601,2.375
				C93.116,72.793,93.838,74.083,95.645,74.083 M95.934,73.812c-1.229,0-1.951-1.019-1.951-2.24c0-1.493,0.867-1.832,1.591-1.832
				c1.01,0,1.805,0.813,1.805,2.104C97.378,73.607,96.367,73.812,95.934,73.812 M99.619,72.251c0,0.542,0,1.018-0.072,1.289
				c0,0.136,0,0.271-0.146,0.339h-0.216c-0.072,0-0.145,0-0.145,0.067c0,0,0.072,0.068,0.145,0.068c0.216,0,0.65-0.068,0.795-0.068
				c0.072,0,0.506,0.068,0.867,0.068c0.145,0,0.145-0.068,0.145-0.068c0-0.067,0-0.067-0.072-0.067h-0.29
				c-0.216-0.067-0.216-0.203-0.288-0.339v-1.289v-0.068c0,0,0-0.068,0.072-0.068l0.506,0.068h0.145
				c0.072,0.068,0.361,0.475,0.649,0.813c0.289,0.476,0.579,0.747,0.795,0.883c0.217,0.067,0.361,0.136,0.723,0.136h0.578
				c0.072,0,0.145-0.068,0.145-0.068c0-0.067-0.072-0.067-0.072-0.067h-0.217c-0.072,0-0.361-0.067-0.723-0.407
				c-0.361-0.408-0.795-0.883-1.301-1.561c0.579-0.476,0.796-0.883,0.796-1.358c0-0.339-0.217-0.678-0.435-0.813
				c-0.361-0.203-0.722-0.203-1.155-0.203h-0.867h-0.867h-0.145c0,0.067,0,0.067,0.072,0.067c0.145,0,0.216,0,0.289,0.067
				c0.218,0,0.218,0.136,0.29,0.271v1.289V72.251z M100.341,69.875c0,0,0-0.068,0.072-0.068h0.288c0.435,0,1.012,0.204,1.012,1.087
				c0,0.475-0.216,0.745-0.36,0.881c-0.145,0.069-0.217,0.069-0.506,0.069c-0.146,0-0.289,0-0.434-0.069
				c-0.072,0-0.072,0-0.072-0.067V69.875z M104.965,72.929c0,0.135,0,0.34-0.074,0.611c0,0.136-0.071,0.271-0.144,0.339h-0.217
				c-0.072,0-0.145,0-0.145,0.067c0,0,0.072,0.068,0.145,0.068c0.217,0,0.651-0.068,0.796-0.068c0.144,0,0.577,0.068,0.939,0.068
				c0.145,0,0.145-0.068,0.145-0.068c0-0.067,0-0.067-0.073-0.067h-0.361c-0.145-0.067-0.217-0.203-0.217-0.339v-0.611v-0.475
				c0-0.203,0-0.407,0.072-0.61c0.145-0.205,1.012-1.63,1.229-1.833c0.145-0.204,0.145-0.271,0.288-0.34
				c0.145,0,0.217-0.067,0.29-0.067c0.072,0,0.145,0,0.145-0.067h-0.145h-0.651h-0.576h-0.145c0,0.067,0.071,0.067,0.145,0.067
				c0.072,0.067,0.145,0.136,0.145,0.203c0,0.068-0.072,0.136-0.145,0.271c-0.073,0.203-0.868,1.493-0.94,1.629
				c-0.072-0.136-0.939-1.561-1.084-1.765c0-0.067-0.071-0.136-0.071-0.203c0-0.068,0.071-0.068,0.144-0.136
				c0.072,0,0.145,0,0.145-0.067h-0.145h-0.649h-0.795h-0.145c0,0.067,0.072,0.067,0.145,0.067s0.145,0.067,0.217,0.067
				c0.145,0.068,0.289,0.271,0.434,0.476c0.217,0.271,1.083,1.561,1.155,1.697c0.071,0.136,0.146,0.271,0.146,0.61V72.929z"/>
			<path clip-path="url(#SVGID_8_)" fill-rule="evenodd" clip-rule="evenodd" fill="#AF2224" d="M41.315,2.55h66.467v28.165h-1.589
				V4.042H42.906v26.672h-1.591V2.55z M107.782,36.688v28.098H41.315V36.688h1.591v26.672h63.287V36.688H107.782z"/>
		</g>
	</g>
</g>
</svg>
